{
.appVersion = "1192";
DisplayStrings = (
"AûJNASD"
);
customParameters = (
{
name = fsType;
value = (
);
},
{
name = licenseURL;
value = "http://scripts.sil.org/OFL";
},
{
name = license;
value = "This Font Software is licensed under the SIL Open Font License, Version 1.1. This license is available with a FAQ at: http://scripts.sil.org/OFL";
},
{
name = trademark;
value = "Public Sans is based on Libre Franklin, which is a trademark of Impallari Type.";
},
{
name = description;
value = "Libre Franklin is a reinterpretation and expansion of the 1912 Morris Fuller Benton’s classic.";
},
{
name = vendorID;
value = IMPA;
},
{
name = note;
value = "Based on Libre Franklin";
},
{
name = vsuffix;
value = "";
},
{
name = Axes;
value = (
{
Name = Weight;
Tag = wght;
}
);
}
);
date = "2018-10-05 14:55:24 +0000";
designer = "Pablo Impallari, Rodrigo Fuenzalida (Modified by Dan O. Williams)";
designerURL = "https://designsystem.digital.gov";
familyName = "Public Sans";
featurePrefixes = (
{
automatic = 1;
code = "languagesystem DFLT dflt;\012languagesystem latn dflt;\012languagesystem latn CAT;\012languagesystem latn ROM;\012languagesystem latn MOL;\012languagesystem latn KAZ;\012languagesystem latn TAT;\012languagesystem latn TRK;\012languagesystem latn CRT;\012languagesystem latn AZE;\012";
name = Languagesystems;
}
);
features = (
{
automatic = 1;
code = "feature locl;\012feature subs;\012feature sinf;\012feature sups;\012feature numr;\012feature dnom;\012feature frac;\012feature ordn;\012feature lnum;\012feature pnum;\012feature tnum;\012feature onum;\012feature salt;\012feature ss01;\012";
name = aalt;
},
{
automatic = 1;

glyphs = (
{
glyphname = A;
lastChange = "2019-04-12 19:51:16 +0000";
layers = (
{
anchors = (
{
name = bottom;
position = "{367, 0}";
},
{
name = ogonek;
position = "{699, 5}";
},
{
name = top;
position = "{367, 723}";
}
);
background = {
anchors = (
{
name = ogonek;
position = "{731, 9}";
},
{
name = top;
position = "{380, 742}";
}
);
paths = (
{
closed = 1;
nodes = (
"180 0 LINE SMOOTH",
"194 0 OFFCURVE",
"201 7 OFFCURVE",
"204 15 CURVE SMOOTH",
"245 133 LINE SMOOTH",
"247 140 OFFCURVE",
"252 144 OFFCURVE",
"260 144 CURVE SMOOTH",
"472 144 LINE SMOOTH",
"482 144 OFFCURVE",
"484 139 OFFCURVE",
"487 132 CURVE SMOOTH",
"526 17 LINE SMOOTH",
"530 4 OFFCURVE",
"538 0 OFFCURVE",
"548 0 CURVE SMOOTH",
"744 0 LINE SMOOTH",
"759 0 OFFCURVE",
"763 20 OFFCURVE",
"758 34 CURVE SMOOTH",
"518 715 LINE SMOOTH",
"512 731 OFFCURVE",
"499 742 OFFCURVE",
"482 742 CURVE SMOOTH",
"285 742 LINE SMOOTH",
"267 742 OFFCURVE",
"261 735 OFFCURVE",
"255 719 CURVE SMOOTH",
"13 37 LINE SMOOTH",
"5 15 OFFCURVE",
"13 0 OFFCURVE",
"28 0 CURVE SMOOTH"
);
},
{
closed = 1;
nodes = (
"296 314 OFFCURVE",
"293 322 OFFCURVE",
"298 335 CURVE SMOOTH",
"359 505 LINE SMOOTH",
"361 512 OFFCURVE",
"368 512 OFFCURVE",
"371 505 CURVE SMOOTH",
"431 334 LINE SMOOTH",
"435 321 OFFCURVE",
"433 314 OFFCURVE",
"422 314 CURVE SMOOTH",
"308 314 LINE SMOOTH"
);
}
);
};
layerId = "258ED206-D907-4350-8EBA-CBDDA1C16BF7";
paths = (
{
closed = 1;
nodes = (
"205 0 LINE",
"254 140 LINE",
"482 140 LINE",
"530 0 LINE",
"722 0 LINE",
"466 723 LINE",
"267 723 LINE",
"11 0 LINE"
);
},
{
closed = 1;
nodes = (
"367 537 LINE",
"438 306 LINE",
"295 306 LINE"
);
}
);
width = 732;
},
{
anchors = (
{
name = bottom;
position = "{347, 0}";
},
{
name = ogonek;
position = "{637, 12}";
},
{
name = top;
position = "{347, 723}";
}
);
background = {
anchors = (
{
name = ogonek;
position = "{646, 11}";
},
{
name = top;
position = "{357, 742}";
}
);
paths = (
{
closed = 1;
nodes = (
"92 0 LINE SMOOTH",
"98 0 OFFCURVE",
"102 2 OFFCURVE",
"103 7 CURVE SMOOTH",
"186 231 LINE SMOOTH",
"188 236 OFFCURVE",
"190 238 OFFCURVE",
"196 238 CURVE SMOOTH",
"518 238 LINE SMOOTH",
"524 238 OFFCURVE",
"526 236 OFFCURVE",
"528 231 CURVE SMOOTH",
"609 8 LINE SMOOTH",
"611 2 OFFCURVE",
"615 0 OFFCURVE",
"622 0 CURVE SMOOTH",
"646 0 LINE SMOOTH",
"653 0 OFFCURVE",
"656 4 OFFCURVE",
"654 10 CURVE SMOOTH",
"392 732 LINE SMOOTH",
"390 739 OFFCURVE",
"384 742 OFFCURVE",
"374 742 CURVE SMOOTH",
"341 742 LINE SMOOTH",
"332 742 OFFCURVE",
"328 739 OFFCURVE",
"325 731 CURVE SMOOTH",
"60 9 LINE SMOOTH",
"58 3 OFFCURVE",
"61 0 OFFCURVE",
"67 0 CURVE SMOOTH"
);
},
{
closed = 1;
nodes = (
"204 278 OFFCURVE",
"202 279 OFFCURVE",
"205 286 CURVE SMOOTH",
"350 677 LINE SMOOTH",
"355 691 OFFCURVE",
"360 691 OFFCURVE",
"365 678 CURVE SMOOTH",
"508 288 LINE SMOOTH",
"510 282 OFFCURVE",
"509 278 OFFCURVE",
"501 278 CURVE SMOOTH",
"210 278 LINE SMOOTH"
);
}
);
};
guideLines = (
{
angle = 69.4967;
position = "{108, 110}";
},
{
angle = 110.0797;
position = "{482, 110}";
}
);
layerId = "91AB5BCA-6A50-42DA-B2F7-8181BF189245";
paths = (
{
closed = 1;
nodes = (
"97 0 LINE",
"182 228 LINE",
"513 228 LINE",
"596 0 LINE",
"639 0 LINE",
"375 723 LINE",
"320 723 LINE",
"55 0 LINE"
);
},
{
closed = 1;
nodes = (
"348 681 LINE",
"498 271 LINE",
"196 271 LINE"
);
}
);
width = 694;
}
);
leftKerningGroup = A;
rightKerningGroup = A;
unicode = 0041;
},
{
glyphname = Aringacute;
lastChange = "2019-04-14 21:36:15 +0000";
layers = (
{
background = {
paths = (
{
closed = 1;
nodes = (
"214 3 LINE",
"264 147 LINE",
"498 147 LINE",
"547 3 LINE",
"785 3 LINE",
"523 745 LINE",
"278 745 LINE",
"15 3 LINE"
);
},
{
closed = 1;
nodes = (
"380 524 LINE",
"453 317 LINE",
"306 317 LINE"
);
},
{
closed = 1;
nodes = (
"461 693 OFFCURVE",
"510 734 OFFCURVE",
"510 796 CURVE SMOOTH",
"510 856 OFFCURVE",
"461 899 OFFCURVE",
"400 899 CURVE SMOOTH",
"340 899 OFFCURVE",
"290 857 OFFCURVE",
"290 798 CURVE SMOOTH",
"290 735 OFFCURVE",
"339 693 OFFCURVE",
"400 693 CURVE SMOOTH"
);
},
{
closed = 1;
nodes = (
"373 746 OFFCURVE",
"350 769 OFFCURVE",
"350 795 CURVE SMOOTH",
"350 822 OFFCURVE",
"373 842 OFFCURVE",
"399 842 CURVE SMOOTH",
"426 842 OFFCURVE",
"447 822 OFFCURVE",
"447 795 CURVE SMOOTH",
"447 769 OFFCURVE",
"426 746 OFFCURVE",
"399 746 CURVE SMOOTH"
);
},
{
closed = 1;
nodes = (
"443 875 LINE",
"468 935 LINE SMOOTH",
"474 949 OFFCURVE",
"470 964 OFFCURVE",
"454 964 CURVE SMOOTH",
"409 964 LINE SMOOTH",
"390 964 OFFCURVE",
"377 958 OFFCURVE",
"371 933 CURVE SMOOTH",
"357 875 LINE"
);
}
);
};
components = (
{
name = A;
},
{
name = _ringacute;
}
);
layerId = "258ED206-D907-4350-8EBA-CBDDA1C16BF7";
width = 732;
},
{
background = {
paths = (
{
closed = 1;
nodes = (
"438 857 OFFCURVE",
"394 900 OFFCURVE",
"338 900 CURVE SMOOTH",
"283 900 OFFCURVE",
"238 857 OFFCURVE",
"238 804 CURVE SMOOTH",
"238 746 OFFCURVE",
"282 702 OFFCURVE",
"338 702 CURVE SMOOTH",
"394 702 OFFCURVE",
"438 745 OFFCURVE",
"438 802 CURVE SMOOTH"
);
},
{
closed = 1;
nodes = (
"395 770 OFFCURVE",
"370 742 OFFCURVE",
"337 742 CURVE SMOOTH",
"306 742 OFFCURVE",
"278 770 OFFCURVE",
"278 801 CURVE SMOOTH",
"278 836 OFFCURVE",
"306 860 OFFCURVE",
"337 860 CURVE SMOOTH",
"370 860 OFFCURVE",
"395 836 OFFCURVE",
"395 801 CURVE SMOOTH"
);
},
{
closed = 1;
nodes = (
"314 742 OFFCURVE",
"310 739 OFFCURVE",
"307 731 CURVE SMOOTH",
"60 9 LINE",
"58 4 OFFCURVE",
"61 0 OFFCURVE",
"67 0 CURVE SMOOTH",
"89 0 LINE SMOOTH",
"95 0 OFFCURVE",
"98 2 OFFCURVE",
"100 7 CURVE",
"177 231 LINE SMOOTH",
"179 236 OFFCURVE",
"181 238 OFFCURVE",
"187 238 CURVE SMOOTH",
"483 238 LINE SMOOTH",
"489 238 OFFCURVE",
"491 236 OFFCURVE",
"493 231 CURVE SMOOTH",
"569 8 LINE SMOOTH",
"571 2 OFFCURVE",
"574 0 OFFCURVE",
"581 0 CURVE SMOOTH",
"608 0 LINE SMOOTH",
"615 0 OFFCURVE",
"618 4 OFFCURVE",
"616 10 CURVE SMOOTH",
"373 732 LINE",
"371 739 OFFCURVE",
"365 742 OFFCURVE",
"355 742 CURVE SMOOTH",
"323 742 LINE SMOOTH"
);
},
{
closed = 1;
nodes = (
"477 282 OFFCURVE",
"476 278 OFFCURVE",
"468 278 CURVE SMOOTH",
"199 278 LINE SMOOTH",
"193 278 OFFCURVE",
"192 279 OFFCURVE",
"195 286 CURVE SMOOTH",
"328 677 LINE SMOOTH",
"333 691 OFFCURVE",
"339 691 OFFCURVE",
"343 678 CURVE SMOOTH",
"475 288 LINE SMOOTH"
);
},
{
closed = 1;
nodes = (
"348 964 OFFCURVE",
"343 960 OFFCURVE",
"341 951 CURVE SMOOTH",
"323 875 LINE",
"361 875 LINE",
"392 948 LINE SMOOTH",
"396 958 OFFCURVE",
"393 964 OFFCURVE",
"382 964 CURVE SMOOTH",
"359 964 LINE SMOOTH"
);
}
);
};
components = (
{
name = A;
},
{
name = _ringacute;
}
);
layerId = "91AB5BCA-6A50-42DA-B2F7-8181BF189245";
width = 694;
}
);
leftKerningGroup = A;
leftMetricsKey = A;
rightKerningGroup = A;
rightMetricsKey = A;
unicode = 01FA;
},
{
glyphname = AE;
lastChange = "2019-04-14 20:06:04 +0000";
layers = (
{
anchors = (
{
name = top;
position = "{702, 723}";
}
);
background = {
anchors = (
{
name = top;
position = "{709, 742}";
}
);
paths = (
{
closed = 1;
nodes = (
"735 164 LINE SMOOTH",
"726 164 OFFCURVE",
"723 167 OFFCURVE",
"723 178 CURVE SMOOTH",
"723 278 LINE SMOOTH",
"723 286 OFFCURVE",
"729 292 OFFCURVE",
"739 292 CURVE SMOOTH",
"924 292 LINE SMOOTH",
"937 292 OFFCURVE",
"942 300 OFFCURVE",
"942 309 CURVE SMOOTH",
"942 433 LINE SMOOTH",
"942 446 OFFCURVE",
"935 453 OFFCURVE",
"921 453 CURVE SMOOTH",
"741 453 LINE SMOOTH",
"731 453 OFFCURVE",
"723 460 OFFCURVE",
"723 474 CURVE SMOOTH",
"723 559 LINE SMOOTH",
"723 572 OFFCURVE",
"731 578 OFFCURVE",
"746 578 CURVE SMOOTH",
"1046 578 LINE SMOOTH",
"1064 578 OFFCURVE",
"1072 589 OFFCURVE",
"1072 605 CURVE SMOOTH",
"1073 721 LINE SMOOTH",
"1073 734 OFFCURVE",
"1067 742 OFFCURVE",
"1055 742 CURVE SMOOTH",
"406 742 LINE SMOOTH",
"389 742 OFFCURVE",
"381 735 OFFCURVE",
"373 719 CURVE SMOOTH",
"19 37 LINE SMOOTH",
"7 15 OFFCURVE",
"13 0 OFFCURVE",
"28 0 CURVE SMOOTH",
"180 0 LINE SMOOTH",
"194 0 OFFCURVE",
"202 7 OFFCURVE",
"206 15 CURVE SMOOTH",
"265 133 LINE",
"268 140 OFFCURVE",
"274 144 OFFCURVE",
"282 144 CURVE SMOOTH",
"483 144 LINE SMOOTH",
"493 144 OFFCURVE",
"496 139 OFFCURVE",
"496 130 CURVE SMOOTH",
"496 25 LINE SMOOTH",
"496 8 OFFCURVE",
"503 0 OFFCURVE",
"523 0 CURVE SMOOTH",
"1058 0 LINE SMOOTH",
"1075 0 OFFCURVE",
"1082 10 OFFCURVE",
"1082 22 CURVE SMOOTH",
"1082 145 LINE SMOOTH",
"1082 159 OFFCURVE",
"1074 164 OFFCURVE",
"1060 164 CURVE SMOOTH"
);
},
{
closed = 1;
nodes = (
"360 314 LINE SMOOTH",
"348 314 OFFCURVE",
"346 322 OFFCURVE",
"354 335 CURVE",
"456 537 LINE SMOOTH",
"472 567 OFFCURVE",
"496 565 OFFCURVE",
"496 535 CURVE SMOOTH",
"496 334 LINE SMOOTH",
"496 321 OFFCURVE",
"489 314 OFFCURVE",
"477 314 CURVE SMOOTH"
);
}
);
};
layerId = "258ED206-D907-4350-8EBA-CBDDA1C16BF7";
paths = (
{
closed = 1;
nodes = (
"716 160 LINE",
"716 285 LINE",
"929 285 LINE",
"929 442 LINE",
"716 442 LINE",
"716 564 LINE",
"1056 564 LINE",
"1057 723 LINE",
"386 723 LINE",
"11 0 LINE",
"205 0 LINE",
"274 140 LINE",
"494 140 LINE",
"494 0 LINE",
"1066 0 LINE",
"1066 160 LINE"
);
},
{
closed = 1;
nodes = (
"345 306 LINE",
"494 601 LINE",
"494 306 LINE"
);
}
);
width = 1120;
},
{
anchors = (
{
name = top;
position = "{672, 723}";
}
);
background = {
anchors = (
{
name = top;
position = "{690, 742}";
}
);
paths = (
{
closed = 1;
nodes = (
"559 40 LINE SMOOTH",
"552 40 OFFCURVE",
"550 41 OFFCURVE",
"550 49 CURVE SMOOTH",
"550 346 LINE SMOOTH",
"550 354 OFFCURVE",
"552 355 OFFCURVE",
"559 355 CURVE SMOOTH",
"827 355 LINE SMOOTH",
"833 355 OFFCURVE",
"835 356 OFFCURVE",
"835 362 CURVE SMOOTH",
"835 388 LINE SMOOTH",
"835 393 OFFCURVE",
"833 395 OFFCURVE",
"828 395 CURVE SMOOTH",
"559 395 LINE SMOOTH",
"552 395 OFFCURVE",
"550 396 OFFCURVE",
"550 402 CURVE SMOOTH",
"550 693 LINE SMOOTH",
"550 701 OFFCURVE",
"552 702 OFFCURVE",
"559 702 CURVE SMOOTH",
"897 702 LINE SMOOTH",
"903 702 OFFCURVE",
"905 703 OFFCURVE",
"905 709 CURVE SMOOTH",
"905 735 LINE SMOOTH",
"905 740 OFFCURVE",
"903 742 OFFCURVE",
"898 742 CURVE SMOOTH",
"493 742 LINE SMOOTH",
"484 742 OFFCURVE",
"479 739 OFFCURVE",
"475 731 CURVE",
"62 9 LINE SMOOTH",
"59 4 OFFCURVE",
"61 0 OFFCURVE",
"67 0 CURVE SMOOTH",
"92 0 LINE SMOOTH",
"98 0 OFFCURVE",
"101 2 OFFCURVE",
"104 7 CURVE SMOOTH",
"233 231 LINE SMOOTH",
"236 236 OFFCURVE",
"239 238 OFFCURVE",
"245 238 CURVE SMOOTH",
"499 238 LINE SMOOTH",
"502 238 OFFCURVE",
"504 236 OFFCURVE",
"504 233 CURVE SMOOTH",
"504 10 LINE SMOOTH",
"504 2 OFFCURVE",
"506 0 OFFCURVE",
"513 0 CURVE SMOOTH",
"913 0 LINE SMOOTH",
"918 0 OFFCURVE",
"920 2 OFFCURVE",
"920 7 CURVE SMOOTH",
"920 33 LINE SMOOTH",
"920 39 OFFCURVE",
"918 40 OFFCURVE",
"912 40 CURVE SMOOTH"
);
},
{
closed = 1;
nodes = (
"264 278 LINE SMOOTH",
"258 278 OFFCURVE",
"257 279 OFFCURVE",
"261 286 CURVE SMOOTH",
"489 677 LINE SMOOTH",
"497 691 OFFCURVE",
"503 691 OFFCURVE",
"504 678 CURVE",
"504 287 LINE SMOOTH",
"504 282 OFFCURVE",
"502 278 OFFCURVE",
"496 278 CURVE SMOOTH"
);
}
);
};
layerId = "91AB5BCA-6A50-42DA-B2F7-8181BF189245";
paths = (
{
closed = 1;
nodes = (
"535 39 LINE",
"535 346 LINE",
"813 346 LINE",
"813 385 LINE",
"535 385 LINE",
"535 684 LINE",
"882 684 LINE",
"882 723 LINE",
"468 723 LINE",
"55 0 LINE",
"97 0 LINE",
"230 232 LINE",
"491 232 LINE",
"491 0 LINE",
"896 0 LINE",
"896 39 LINE"
);
},
{
closed = 1;
nodes = (
"249 271 LINE",
"491 685 LINE",
"491 271 LINE"
);
}
);
width = 966;
}
);
leftKerningGroup = A;
leftMetricsKey = A;
rightKerningGroup = E;
rightMetricsKey = E;
unicode = 00C6;
},
{
glyphname = B;
lastChange = "2019-04-14 20:32:49 +0000";
layers = (
{
background = {
paths = (
{
closed = 1;
nodes = (
"392 0 LINE SMOOTH",
"608 0 OFFCURVE",
"711 65 OFFCURVE",
"711 202 CURVE SMOOTH",
"711 287 OFFCURVE",
"672 338 OFFCURVE",
"562 379 CURVE SMOOTH",
"559 380 OFFCURVE",
"559 385 OFFCURVE",
"562 386 CURVE SMOOTH",
"662 432 OFFCURVE",
"693 477 OFFCURVE",
"693 546 CURVE SMOOTH",
"693 675 OFFCURVE",
"583 742 OFFCURVE",
"376 742 CURVE SMOOTH",
"78 742 LINE SMOOTH",
"63 742 OFFCURVE",
"53 731 OFFCURVE",
"53 716 CURVE SMOOTH",
"53 22 LINE SMOOTH",
"53 10 OFFCURVE",
"62 0 OFFCURVE",
"76 0 CURVE SMOOTH"
);
},
{
closed = 1;
nodes = (
"284 150 OFFCURVE",
"280 157 OFFCURVE",
"280 172 CURVE SMOOTH",
"280 277 LINE SMOOTH",
"280 292 OFFCURVE",
"286 298 OFFCURVE",
"303 298 CURVE SMOOTH",
"392 298 LINE SMOOTH",
"442 298 OFFCURVE",
"475 268 OFFCURVE",
"475 227 CURVE SMOOTH",
"475 188 OFFCURVE",
"445 150 OFFCURVE",
"387 150 CURVE SMOOTH",
"297 150 LINE SMOOTH"
);
},
{
closed = 1;
nodes = (
"284 452 OFFCURVE",
"280 459 OFFCURVE",
"280 474 CURVE SMOOTH",
"280 572 LINE SMOOTH",
"280 587 OFFCURVE",
"286 592 OFFCURVE",
"303 592 CURVE SMOOTH",
"385 592 LINE SMOOTH",
"432 592 OFFCURVE",
"469 564 OFFCURVE",
"469 520 CURVE SMOOTH",
"469 481 OFFCURVE",
"439 452 OFFCURVE",
"392 452 CURVE SMOOTH",
"297 452 LINE SMOOTH"
);
}
);
};
layerId = "258ED206-D907-4350-8EBA-CBDDA1C16BF7";
paths = (
{
closed = 1;
nodes = (
"374 0 LINE SMOOTH",
"584 0 OFFCURVE",
"665 62 OFFCURVE",
"665 197 CURVE",
"665 251 OFFCURVE",
"658 334 OFFCURVE",
"531 372 CURVE",
"620 416 OFFCURVE",
"648 465 OFFCURVE",
"648 532 CURVE SMOOTH",
"648 655 OFFCURVE",
"560 723 OFFCURVE",
"358 723 CURVE SMOOTH",
"69 723 LINE",
"69 0 LINE"
);
},
{
closed = 1;
nodes = (
"264 291 LINE",
"386 291 LINE",
"435 291 OFFCURVE",
"467 261 OFFCURVE",
"467 221 CURVE SMOOTH",
"467 183 OFFCURVE",
"438 146 OFFCURVE",
"381 146 CURVE",
"264 146 LINE"
);
},
{
closed = 1;
nodes = (
"264 577 LINE",
"379 577 LINE SMOOTH",
"425 577 OFFCURVE",
"461 550 OFFCURVE",
"461 507 CURVE SMOOTH",
"461 469 OFFCURVE",
"432 441 OFFCURVE",
"386 441 CURVE SMOOTH",
"264 441 LINE"
);
}
);
width = 705;
},
{
background = {
paths = (
{
closed = 1;
nodes = (
"324 0 LINE SMOOTH",
"499 0 OFFCURVE",
"602 65 OFFCURVE",
"602 197 CURVE SMOOTH",
"602 297 OFFCURVE",
"543 356 OFFCURVE",
"453 373 CURVE SMOOTH",
"447 374 OFFCURVE",
"447 380 OFFCURVE",
"453 382 CURVE SMOOTH",
"541 409 OFFCURVE",
"584 467 OFFCURVE",
"584 551 CURVE SMOOTH",
"584 675 OFFCURVE",
"487 742 OFFCURVE",
"321 742 CURVE SMOOTH",
"116 742 LINE SMOOTH",
"109 742 OFFCURVE",
"107 740 OFFCURVE",
"107 732 CURVE SMOOTH",
"107 8 LINE SMOOTH",
"107 3 OFFCURVE",
"110 0 OFFCURVE",
"115 0 CURVE SMOOTH"
);
},
{
closed = 1;
nodes = (
"155 40 OFFCURVE",
"153 43 OFFCURVE",
"153 50 CURVE SMOOTH",
"153 346 LINE SMOOTH",
"153 353 OFFCURVE",
"156 355 OFFCURVE",
"164 355 CURVE SMOOTH",
"333 355 LINE SMOOTH",
"458 355 OFFCURVE",
"554 311 OFFCURVE",
"554 191 CURVE SMOOTH",
"554 82 OFFCURVE",
"477 40 OFFCURVE",
"319 40 CURVE SMOOTH",
"160 40 LINE SMOOTH"
);
},
{
closed = 1;
nodes = (
"155 395 OFFCURVE",
"153 398 OFFCURVE",
"153 405 CURVE SMOOTH",
"153 694 LINE SMOOTH",
"153 700 OFFCURVE",
"156 702 OFFCURVE",
"162 702 CURVE SMOOTH",
"317 702 LINE SMOOTH",
"452 702 OFFCURVE",
"536 654 OFFCURVE",
"536 546 CURVE SMOOTH",
"536 424 OFFCURVE",
"426 395 OFFCURVE",
"333 395 CURVE SMOOTH",
"160 395 LINE SMOOTH"
);
}
);
};
layerId = "91AB5BCA-6A50-42DA-B2F7-8181BF189245";
paths = (
{
closed = 1;
nodes = (
"313 0 LINE",
"484 0 OFFCURVE",
"584 64 OFFCURVE",
"584 193 CURVE",
"584 289 OFFCURVE",
"530 349 OFFCURVE",
"423 367 CURVE",
"527 397 OFFCURVE",
"566 454 OFFCURVE",
"566 536 CURVE SMOOTH",
"566 657 OFFCURVE",
"472 723 OFFCURVE",
"310 723 CURVE SMOOTH",
"107 723 LINE",
"107 0 LINE"
);
},
{
closed = 1;
nodes = (
"146 345 LINE",
"322 345 LINE SMOOTH",
"444 345 OFFCURVE",
"545 304 OFFCURVE",
"545 187 CURVE SMOOTH",
"545 81 OFFCURVE",
"462 41 OFFCURVE",
"308 41 CURVE",
"146 41 LINE"
);
},
{
closed = 1;
nodes = (
"146 683 LINE",
"306 683 LINE SMOOTH",
"438 683 OFFCURVE",
"527 637 OFFCURVE",
"527 531 CURVE SMOOTH",
"527 412 OFFCURVE",
"412 386 OFFCURVE",
"322 386 CURVE SMOOTH",
"146 386 LINE"
);
}
);
width = 651;
}
);
leftKerningGroup = N;
leftMetricsKey = N;
rightKerningGroup = B;
unicode = 0042;
},
{
glyphname = C;
lastChange = "2019-04-14 20:32:43 +0000";
layers = (
{
anchors = (
{
name = bottom;
position = "{391, 0}";
},
{
name = top;
position = "{391, 723}";
}
);
background = {
anchors = (
{
name = bottom;
position = "{388, 0}";
},
{
name = top;
position = "{390, 742}";
}
);
paths = (
{
closed = 1;
nodes = (
"173 752 OFFCURVE",
"35 606 OFFCURVE",
"35 381 CURVE SMOOTH",
"35 155 OFFCURVE",
"173 -10 OFFCURVE",
"388 -10 CURVE SMOOTH",
"619 -10 OFFCURVE",
"705 167 OFFCURVE",
"715 221 CURVE SMOOTH",
"719 247 OFFCURVE",
"708 252 OFFCURVE",
"701 254 CURVE SMOOTH",
"576 279 LINE SMOOTH",
"560 282 OFFCURVE",
"551 279 OFFCURVE",
"548 271 CURVE SMOOTH",
"513 183 OFFCURVE",
"462 154 OFFCURVE",
"395 154 CURVE SMOOTH",
"314 154 OFFCURVE",
"273 212 OFFCURVE",
"273 377 CURVE SMOOTH",
"273 540 OFFCURVE",
"321 598 OFFCURVE",
"396 598 CURVE SMOOTH",
"464 598 OFFCURVE",
"491 544 OFFCURVE",
"503 475 CURVE",
"693 487 LINE",
"708 489 OFFCURVE",
"712 494 OFFCURVE",
"706 522 CURVE SMOOTH",
"680 655 OFFCURVE",
"559 752 OFFCURVE",
"390 752 CURVE SMOOTH"
);
}
);
};
guideLines = (
{
angle = -183.559;
position = "{501, 299}";
}
);
layerId = "258ED206-D907-4350-8EBA-CBDDA1C16BF7";
paths = (
{
closed = 1;
nodes = (
"180 733 OFFCURVE",
"45 591 OFFCURVE",
"45 371 CURVE SMOOTH",
"45 151 OFFCURVE",
"182 -10 OFFCURVE",
"391 -10 CURVE SMOOTH",
"622 -10 OFFCURVE",
"685 120 OFFCURVE",
"705 270 CURVE",
"502 270 LINE",
"491 203 OFFCURVE",
"451 146 OFFCURVE",
"384 146 CURVE SMOOTH",
"311 146 OFFCURVE",
"258 207 OFFCURVE",
"258 368 CURVE SMOOTH",
"258 527 OFFCURVE",
"311 577 OFFCURVE",
"384 577 CURVE SMOOTH",
"451 577 OFFCURVE",
"491 535 OFFCURVE",
"502 468 CURVE",
"705 468 LINE",
"689 624 OFFCURVE",
"563 733 OFFCURVE",
"391 733 CURVE SMOOTH"
);
}
);
width = 745;
},
{
anchors = (
{
name = bottom;
position = "{359, 0}";
},
{
name = top;
position = "{352, 723}";
}
);
background = {
anchors = (
{
name = bottom;
position = "{375, 0}";
},
{
name = top;
position = "{369, 742}";
}
);
guideLines = (
{
angle = 90;
position = "{630, 369}";
}
);
paths = (
{
closed = 1;
nodes = (
"182 752 OFFCURVE",
"72 610 OFFCURVE",
"72 368 CURVE SMOOTH",
"72 127 OFFCURVE",
"182 -10 OFFCURVE",
"375 -10 CURVE SMOOTH",
"496 -10 OFFCURVE",
"596 61 OFFCURVE",
"631 171 CURVE SMOOTH",
"632 175 OFFCURVE",
"631 177 OFFCURVE",
"629 178 CURVE SMOOTH",
"595 188 LINE SMOOTH",
"592 189 OFFCURVE",
"590 188 OFFCURVE",
"589 186 CURVE SMOOTH",
"549 81 OFFCURVE",
"483 32 OFFCURVE",
"379 32 CURVE SMOOTH",
"206 32 OFFCURVE",
"120 153 OFFCURVE",
"120 368 CURVE SMOOTH",
"120 591 OFFCURVE",
"208 710 OFFCURVE",
"371 710 CURVE SMOOTH",
"472 710 OFFCURVE",
"552 647 OFFCURVE",
"575 552 CURVE SMOOTH",
"576 546 OFFCURVE",
"578 544 OFFCURVE",
"582 545 CURVE SMOOTH",
"618 549 LINE SMOOTH",
"623 549 OFFCURVE",
"624 551 OFFCURVE",
"623 556 CURVE SMOOTH",
"611 659 OFFCURVE",
"491 752 OFFCURVE",
"369 752 CURVE SMOOTH"
);
}
);
};
guideLines = (
{
angle = 90;
position = "{631, 342}";
}
);
layerId = "91AB5BCA-6A50-42DA-B2F7-8181BF189245";
paths = (
{
closed = 1;
nodes = (
"169 733 OFFCURVE",
"69 595 OFFCURVE",
"69 359 CURVE SMOOTH",
"69 124 OFFCURVE",
"171 -10 OFFCURVE",
"359 -10 CURVE SMOOTH",
"478 -10 OFFCURVE",
"593 69 OFFCURVE",
"604 173 CURVE",
"562 184 LINE",
"539 87 OFFCURVE",
"460 31 OFFCURVE",
"361 31 CURVE SMOOTH",
"192 31 OFFCURVE",
"113 149 OFFCURVE",
"113 359 CURVE SMOOTH",
"113 576 OFFCURVE",
"194 692 OFFCURVE",
"353 692 CURVE SMOOTH",
"477 692 OFFCURVE",
"546 623 OFFCURVE",
"565 529 CURVE",
"608 536 LINE",
"596 640 OFFCURVE",
"499 733 OFFCURVE",
"351 733 CURVE SMOOTH"
);
}
);
width = 672;
}
);
leftKerningGroup = O;
leftMetricsKey = O;
rightKerningGroup = C;
unicode = 0043;
},
{
glyphname = D;
lastChange = "2019-04-14 20:32:00 +0000";
layers = (
{
anchors = (
{
name = bottom;
position = "{354, 0}";
},
{
name = center;
position = "{373, 362}";
},
{
name = top;
position = "{373, 723}";
}
);
background = {
anchors = (
{
name = center;
position = "{371, 371}";
},
{
name = top;
position = "{371, 742}";
}
);
paths = (
{
closed = 1;
nodes = (
"33 0 LINE",
"325 0 LINE SMOOTH",
"588 0 OFFCURVE",
"721 157 OFFCURVE",
"721 373 CURVE SMOOTH",
"721 584 OFFCURVE",
"594 731 OFFCURVE",
"326 741 CURVE SMOOTH",
"262 743 OFFCURVE",
"54 742 OFFCURVE",
"33 742 CURVE"
);
},
{
closed = 1;
nodes = (
"280 585 LINE SMOOTH",
"432 585 OFFCURVE",
"483 513 OFFCURVE",
"483 376 CURVE SMOOTH",
"483 215 OFFCURVE",
"407 157 OFFCURVE",
"281 157 CURVE SMOOTH",
"260 157 LINE",
"260 585 LINE"
);
}
);
};
layerId = "258ED206-D907-4350-8EBA-CBDDA1C16BF7";
paths = (
{
closed = 1;
nodes = (
"69 0 LINE",
"328 0 LINE SMOOTH",
"584 0 OFFCURVE",
"703 153 OFFCURVE",
"703 364 CURVE SMOOTH",
"703 569 OFFCURVE",
"590 713 OFFCURVE",
"329 722 CURVE SMOOTH",
"266 724 OFFCURVE",
"90 723 OFFCURVE",
"69 723 CURVE"
);
},
{
closed = 1;
nodes = (
"334 570 LINE SMOOTH",
"433 570 OFFCURVE",
"500 500 OFFCURVE",
"500 367 CURVE SMOOTH",
"500 210 OFFCURVE",
"408 153 OFFCURVE",
"334 153 CURVE SMOOTH",
"264 153 LINE",
"264 570 LINE"
);
}
);
width = 743;
},
{
anchors = (
{
name = bottom;
position = "{354, 0}";
},
{
name = center;
position = "{328, 362}";
},
{
name = top;
position = "{322, 723}";
}
);
background = {
anchors = (
{
name = center;
position = "{337, 371}";
},
{
name = top;
position = "{331, 742}";
}
);
paths = (
{
closed = 1;
nodes = (
"109 0 LINE",
"220 0 LINE SMOOTH",
"492 0 OFFCURVE",
"621 115 OFFCURVE",
"621 376 CURVE SMOOTH",
"621 624 OFFCURVE",
"509 739 OFFCURVE",
"234 741 CURVE SMOOTH",
"172 741 OFFCURVE",
"111 742 OFFCURVE",
"109 742 CURVE"
);
},
{
closed = 1;
nodes = (
"157 701 OFFCURVE",
"205 701 OFFCURVE",
"223 701 CURVE SMOOTH",
"467 696 OFFCURVE",
"573 628 OFFCURVE",
"573 372 CURVE SMOOTH",
"573 130 OFFCURVE",
"474 40 OFFCURVE",
"216 40 CURVE SMOOTH",
"155 40 LINE",
"155 701 LINE"
);
}
);
};
layerId = "91AB5BCA-6A50-42DA-B2F7-8181BF189245";
paths = (
{
closed = 1;
nodes = (
"107 0 LINE",
"213 0 LINE SMOOTH",
"479 0 OFFCURVE",
"604 112 OFFCURVE",
"604 367 CURVE SMOOTH",
"604 608 OFFCURVE",
"495 721 OFFCURVE",
"227 722 CURVE SMOOTH",
"167 722 OFFCURVE",
"109 723 OFFCURVE",
"107 723 CURVE"
);
},
{
closed = 1;
nodes = (
"216 682 LINE SMOOTH",
"437 682 OFFCURVE",
"562 612 OFFCURVE",
"562 363 CURVE SMOOTH",
"562 127 OFFCURVE",
"444 41 OFFCURVE",
"210 41 CURVE SMOOTH",
"150 41 LINE",
"150 682 LINE"
);
}
);
width = 669;
}
);
leftKerningGroup = N;
leftMetricsKey = N;
rightKerningGroup = O;
unicode = 0044;
},
{
glyphname = Eth;
lastChange = "2019-04-14 22:13:18 +0000";
layers = (
{
background = {
components = (
{
name = D;
transform = "{1, 0, 0, 1, 42, 0}";
}
);
paths = (
{
closed = 1;
nodes = (
"432 415 OFFCURVE",
"425 423 OFFCURVE",
"414 423 CURVE SMOOTH",
"53 423 LINE SMOOTH",
"41 423 OFFCURVE",
"34 415 OFFCURVE",
"34 401 CURVE SMOOTH",
"34 310 LINE SMOOTH",
"34 293 OFFCURVE",
"40 286 OFFCURVE",
"60 286 CURVE SMOOTH",
"400 286 LINE SMOOTH",
"422 286 OFFCURVE",
"432 293 OFFCURVE",
"432 313 CURVE SMOOTH",
"432 404 LINE SMOOTH"
);
}
);
};
components = (
{
name = D;
transform = "{1, 0, 0, 1, 42, 0}";
}
);
layerId = "258ED206-D907-4350-8EBA-CBDDA1C16BF7";
paths = (
{
closed = 1;
nodes = (
"34 423 LINE",
"34 286 LINE",
"432 286 LINE",
"432 423 LINE"
);
}
);
width = 785;
},
{
background = {
components = (
{
name = D;
}
);
paths = (
{
closed = 1;
nodes = (
"336 382 OFFCURVE",
"334 385 OFFCURVE",
"330 385 CURVE SMOOTH",
"44 385 LINE SMOOTH",
"39 385 OFFCURVE",
"37 382 OFFCURVE",
"37 376 CURVE SMOOTH",
"37 354 LINE SMOOTH",
"37 347 OFFCURVE",
"39 344 OFFCURVE",
"47 344 CURVE SMOOTH",
"324 344 LINE SMOOTH",
"333 344 OFFCURVE",
"336 347 OFFCURVE",
"336 355 CURVE SMOOTH",
"336 377 LINE SMOOTH"
);
}
);
};
components = (
{
name = D;
}
);
layerId = "91AB5BCA-6A50-42DA-B2F7-8181BF189245";
paths = (
{
closed = 1;
nodes = (
"37 385 LINE",
"37 344 LINE",
"336 344 LINE",
"336 385 LINE"
);
}
);
width = 669;
}
);
leftKerningGroup = N;
rightKerningGroup = O;
rightMetricsKey = D;
unicode = 00D0;
},
{
glyphname = E;
lastChange = "2019-04-14 21:49:58 +0000";
layers = (
{
anchors = (
{
name = bottom;
position = "{336, 0}";
},
{
name = ogonek;
position = "{603, 10}";
},
{
name = top;
position = "{336, 723}";
}
);
background = {
anchors = (
{
name = bottom;
position = "{333, 0}";
},
{
name = ogonek;
position = "{607, 10}";
},
{
name = top;
position = "{333, 742}";
}
);
paths = (
{
closed = 1;
nodes = (
"49 25 LINE SMOOTH",
"49 8 OFFCURVE",
"56 0 OFFCURVE",
"76 0 CURVE SMOOTH",
"611 0 LINE SMOOTH",
"628 0 OFFCURVE",
"635 10 OFFCURVE",
"635 22 CURVE SMOOTH",
"635 145 LINE SMOOTH",
"635 159 OFFCURVE",
"627 164 OFFCURVE",
"613 164 CURVE SMOOTH",
"288 164 LINE SMOOTH",
"279 164 OFFCURVE",
"276 167 OFFCURVE",
"276 178 CURVE SMOOTH",
"276 278 LINE SMOOTH",
"276 286 OFFCURVE",
"282 292 OFFCURVE",
"292 292 CURVE SMOOTH",
"477 292 LINE SMOOTH",
"490 292 OFFCURVE",
"495 300 OFFCURVE",
"495 309 CURVE SMOOTH",
"495 433 LINE SMOOTH",
"495 446 OFFCURVE",
"488 453 OFFCURVE",
"474 453 CURVE SMOOTH",
"294 453 LINE SMOOTH",
"284 453 OFFCURVE",
"276 460 OFFCURVE",
"276 474 CURVE SMOOTH",
"276 559 LINE SMOOTH",
"276 572 OFFCURVE",
"284 578 OFFCURVE",
"299 578 CURVE SMOOTH",
"599 578 LINE SMOOTH",
"617 578 OFFCURVE",
"625 589 OFFCURVE",
"625 605 CURVE SMOOTH",
"626 721 LINE SMOOTH",
"626 734 OFFCURVE",
"620 742 OFFCURVE",
"608 742 CURVE SMOOTH",
"68 742 LINE SMOOTH",
"56 742 OFFCURVE",
"49 734 OFFCURVE",
"49 719 CURVE SMOOTH"
);
}
);
};
layerId = "258ED206-D907-4350-8EBA-CBDDA1C16BF7";
paths = (
{
closed = 1;
nodes = (
"604 0 LINE",
"604 162 LINE",
"264 162 LINE",
"264 285 LINE",
"547 285 LINE",
"547 442 LINE",
"265 442 LINE",
"265 562 LINE",
"602 562 LINE",
"603 723 LINE",
"69 723 LINE",
"69 0 LINE"
);
}
);
width = 658;
},
{
anchors = (
{
name = bottom;
position = "{344, 0}";
},
{
name = ogonek;
position = "{531, 10}";
},
{
name = top;
position = "{317, 723}";
}
);
background = {
anchors = (
{
name = bottom;
position = "{357, 0}";
},
{
name = ogonek;
position = "{542, 10}";
},
{
name = top;
position = "{338, 742}";
}
);
paths = (
{
closed = 1;
nodes = (
"107 10 LINE SMOOTH",
"107 2 OFFCURVE",
"109 0 OFFCURVE",
"116 0 CURVE SMOOTH",
"546 0 LINE SMOOTH",
"551 0 OFFCURVE",
"553 2 OFFCURVE",
"553 7 CURVE SMOOTH",
"553 33 LINE SMOOTH",
"553 39 OFFCURVE",
"551 40 OFFCURVE",
"545 40 CURVE SMOOTH",
"162 40 LINE SMOOTH",
"155 40 OFFCURVE",
"153 41 OFFCURVE",
"153 49 CURVE SMOOTH",
"153 346 LINE SMOOTH",
"153 354 OFFCURVE",
"155 355 OFFCURVE",
"162 355 CURVE SMOOTH",
"450 355 LINE SMOOTH",
"456 355 OFFCURVE",
"458 356 OFFCURVE",
"458 362 CURVE SMOOTH",
"458 388 LINE SMOOTH",
"458 393 OFFCURVE",
"456 395 OFFCURVE",
"451 395 CURVE SMOOTH",
"162 395 LINE SMOOTH",
"155 395 OFFCURVE",
"153 396 OFFCURVE",
"153 402 CURVE SMOOTH",
"153 693 LINE SMOOTH",
"153 701 OFFCURVE",
"155 702 OFFCURVE",
"162 702 CURVE SMOOTH",
"530 702 LINE SMOOTH",
"536 702 OFFCURVE",
"538 703 OFFCURVE",
"538 709 CURVE SMOOTH",
"538 735 LINE SMOOTH",
"538 740 OFFCURVE",
"536 742 OFFCURVE",
"531 742 CURVE SMOOTH",
"116 742 LINE SMOOTH",
"109 742 OFFCURVE",
"107 740 OFFCURVE",
"107 732 CURVE SMOOTH"
);
}
);
};
layerId = "91AB5BCA-6A50-42DA-B2F7-8181BF189245";
paths = (
{
closed = 1;
nodes = (
"536 0 LINE",
"536 41 LINE",
"146 42 LINE",
"146 345 LINE",
"496 345 LINE",
"496 386 LINE",
"146 386 LINE",
"146 683 LINE",
"522 683 LINE",
"522 723 LINE",
"107 723 LINE",
"107 0 LINE"
);
}
);
width = 606;
}
);
leftKerningGroup = N;
leftMetricsKey = N;
rightKerningGroup = E;
unicode = 0045;
},
{
glyphname = F;
lastChange = "2019-04-14 21:03:51 +0000";
layers = (
{
background = {
paths = (
{
closed = 1;
nodes = (
"33 25 LINE SMOOTH",
"33 8 OFFCURVE",
"39 0 OFFCURVE",
"60 0 CURVE",
"227 0 LINE SMOOTH",
"250 0 OFFCURVE",
"260 8 OFFCURVE",
"260 29 CURVE SMOOTH",
"260 271 LINE SMOOTH",
"260 280 OFFCURVE",
"266 286 OFFCURVE",
"276 286 CURVE SMOOTH",
"463 286 LINE SMOOTH",
"477 286 OFFCURVE",
"481 293 OFFCURVE",
"481 303 CURVE SMOOTH",
"481 425 LINE SMOOTH",
"481 438 OFFCURVE",
"475 445 OFFCURVE",
"461 445 CURVE SMOOTH",
"278 445 LINE SMOOTH",
"267 445 OFFCURVE",
"260 451 OFFCURVE",
"260 465 CURVE SMOOTH",
"260 559 LINE SMOOTH",
"260 572 OFFCURVE",
"267 578 OFFCURVE",
"283 578 CURVE SMOOTH",
"577 578 LINE SMOOTH",
"595 578 OFFCURVE",
"602 589 OFFCURVE",
"602 605 CURVE SMOOTH",
"603 721 LINE SMOOTH",
"603 734 OFFCURVE",
"597 742 OFFCURVE",
"585 742 CURVE SMOOTH",
"52 742 LINE SMOOTH",
"41 742 OFFCURVE",
"33 734 OFFCURVE",
"33 719 CURVE SMOOTH"
);
}
);
};
layerId = "258ED206-D907-4350-8EBA-CBDDA1C16BF7";
paths = (
{
closed = 1;
nodes = (
"69 0 LINE",
"264 0 LINE",
"264 279 LINE",
"543 279 LINE",
"543 434 LINE",
"264 434 LINE",
"264 564 LINE",
"598 564 LINE",
"599 723 LINE",
"69 723 LINE"
);
}
);
width = 629;
},
{
background = {
paths = (
{
closed = 1;
nodes = (
"111 10 LINE SMOOTH",
"111 2 OFFCURVE",
"113 0 OFFCURVE",
"120 0 CURVE SMOOTH",
"150 0 LINE SMOOTH",
"155 0 OFFCURVE",
"157 2 OFFCURVE",
"157 7 CURVE SMOOTH",
"157 333 LINE SMOOTH",
"157 341 OFFCURVE",
"159 342 OFFCURVE",
"166 342 CURVE SMOOTH",
"464 342 LINE SMOOTH",
"470 342 OFFCURVE",
"472 343 OFFCURVE",
"472 349 CURVE SMOOTH",
"472 375 LINE SMOOTH",
"472 380 OFFCURVE",
"470 382 OFFCURVE",
"465 382 CURVE SMOOTH",
"166 382 LINE SMOOTH",
"159 382 OFFCURVE",
"157 383 OFFCURVE",
"157 389 CURVE SMOOTH",
"157 693 LINE SMOOTH",
"157 701 OFFCURVE",
"159 702 OFFCURVE",
"166 702 CURVE SMOOTH",
"524 702 LINE SMOOTH",
"530 702 OFFCURVE",
"532 703 OFFCURVE",
"532 709 CURVE SMOOTH",
"532 735 LINE SMOOTH",
"532 740 OFFCURVE",
"530 742 OFFCURVE",
"525 742 CURVE SMOOTH",
"120 742 LINE SMOOTH",
"113 742 OFFCURVE",
"111 740 OFFCURVE",
"111 732 CURVE SMOOTH"
);
}
);
};
layerId = "91AB5BCA-6A50-42DA-B2F7-8181BF189245";
paths = (
{
closed = 1;
nodes = (
"107 0 LINE",
"150 0 LINE",
"150 346 LINE",
"490 346 LINE",
"490 387 LINE",
"150 387 LINE",
"150 683 LINE",
"516 683 LINE",
"516 723 LINE",
"107 723 LINE"
);
}
);
width = 561;
}
);
leftKerningGroup = N;
leftMetricsKey = N;
rightKerningGroup = E;
unicode = 0046;
},
{
glyphname = G;
lastChange = "2019-04-12 19:23:44 +0000";
layers = (
{
anchors = (
{
name = bottom;
position = "{389, 0}";
},
{
name = top;
position = "{393, 723}";
}
);
background = {
anchors = (
{
name = bottom;
position = "{387, 0}";
},
{
name = top;
position = "{387, 742}";
}
);
paths = (
{
closed = 1;
nodes = (
"503 -10 OFFCURVE",
"554 40 OFFCURVE",
"590 75 CURVE SMOOTH",
"595 81 OFFCURVE",
"598 81 OFFCURVE",
"601 77 CURVE SMOOTH",
"641 19 LINE SMOOTH",
"651 5 OFFCURVE",
"661 0 OFFCURVE",
"673 0 CURVE SMOOTH",
"711 0 LINE SMOOTH",
"721 0 OFFCURVE",
"728 8 OFFCURVE",
"728 17 CURVE SMOOTH",
"728 344 LINE SMOOTH",
"728 362 OFFCURVE",
"715 375 OFFCURVE",
"690 375 CURVE SMOOTH",
"410 377 LINE SMOOTH",
"395 377 OFFCURVE",
"389 370 OFFCURVE",
"389 360 CURVE SMOOTH",
"389 264 LINE SMOOTH",
"389 247 OFFCURVE",
"395 242 OFFCURVE",
"409 242 CURVE SMOOTH",
"503 242 LINE SMOOTH",
"513 242 OFFCURVE",
"516 236 OFFCURVE",
"512 225 CURVE",
"509 216 LINE",
"491 170 OFFCURVE",
"457 146 OFFCURVE",
"401 146 CURVE SMOOTH",
"325 146 OFFCURVE",
"273 193 OFFCURVE",
"273 374 CURVE SMOOTH",
"273 544 OFFCURVE",
"319 597 OFFCURVE",
"393 597 CURVE SMOOTH",
"465 597 OFFCURVE",
"500 547 OFFCURVE",
"510 492 CURVE SMOOTH",
"513 479 OFFCURVE",
"514 472 OFFCURVE",
"530 472 CURVE SMOOTH",
"701 498 LINE SMOOTH",
"717 500 OFFCURVE",
"721 505 OFFCURVE",
"715 533 CURVE SMOOTH",
"691 640 OFFCURVE",
"578 752 OFFCURVE",
"398 752 CURVE SMOOTH",
"184 752 OFFCURVE",
"35 599 OFFCURVE",
"35 368 CURVE SMOOTH",
"35 145 OFFCURVE",
"174 -10 OFFCURVE",
"385 -10 CURVE SMOOTH"
);
}
);
};
layerId = "258ED206-D907-4350-8EBA-CBDDA1C16BF7";
paths = (
{
closed = 1;
nodes = (
"506 -10 OFFCURVE",
"557 43 OFFCURVE",
"593 80 CURVE",
"593 0 LINE",
"721 0 LINE",
"721 382 LINE",
"390 384 LINE",
"390 253 LINE",
"516 253 LINE",
"507 227 LINE",
"497 194 OFFCURVE",
"457 159 OFFCURVE",
"402 159 CURVE SMOOTH",
"340 159 OFFCURVE",
"257 188 OFFCURVE",
"257 365 CURVE SMOOTH",
"257 521 OFFCURVE",
"322 572 OFFCURVE",
"394 572 CURVE SMOOTH",
"462 572 OFFCURVE",
"499 527 OFFCURVE",
"512 468 CURVE",
"715 468 LINE",
"713 603 OFFCURVE",
"593 733 OFFCURVE",
"399 733 CURVE SMOOTH",
"191 733 OFFCURVE",
"45 584 OFFCURVE",
"45 359 CURVE SMOOTH",
"45 141 OFFCURVE",
"181 -10 OFFCURVE",
"387 -10 CURVE SMOOTH"
);
}
);
width = 785;
},
{
anchors = (
{
name = bottom;
position = "{357, 0}";
},
{
name = top;
position = "{358, 723}";
}
);
background = {
anchors = (
{
name = bottom;
position = "{373, 0}";
},
{
name = top;
position = "{368, 742}";
}
);
paths = (
{
closed = 1;
nodes = (
"478 -10 OFFCURVE",
"551 45 OFFCURVE",
"590 115 CURVE SMOOTH",
"594 122 OFFCURVE",
"598 121 OFFCURVE",
"598 115 CURVE SMOOTH",
"598 9 LINE SMOOTH",
"598 0 OFFCURVE",
"603 0 OFFCURVE",
"611 0 CURVE SMOOTH",
"628 0 LINE SMOOTH",
"635 0 OFFCURVE",
"638 2 OFFCURVE",
"638 11 CURVE SMOOTH",
"638 371 LINE SMOOTH",
"638 375 OFFCURVE",
"636 377 OFFCURVE",
"632 377 CURVE SMOOTH",
"396 377 LINE SMOOTH",
"393 377 OFFCURVE",
"391 375 OFFCURVE",
"391 371 CURVE SMOOTH",
"391 348 LINE SMOOTH",
"391 344 OFFCURVE",
"393 342 OFFCURVE",
"398 342 CURVE SMOOTH",
"587 342 LINE SMOOTH",
"593 342 OFFCURVE",
"598 341 OFFCURVE",
"598 334 CURVE SMOOTH",
"598 255 LINE SMOOTH",
"598 161 OFFCURVE",
"526 32 OFFCURVE",
"368 32 CURVE SMOOTH",
"205 32 OFFCURVE",
"120 153 OFFCURVE",
"120 374 CURVE SMOOTH",
"120 584 OFFCURVE",
"207 710 OFFCURVE",
"368 710 CURVE SMOOTH",
"474 710 OFFCURVE",
"559 640 OFFCURVE",
"575 551 CURVE SMOOTH",
"576 546 OFFCURVE",
"579 544 OFFCURVE",
"582 545 CURVE SMOOTH",
"617 551 LINE SMOOTH",
"622 552 OFFCURVE",
"622 555 OFFCURVE",
"622 559 CURVE SMOOTH",
"610 663 OFFCURVE",
"491 752 OFFCURVE",
"368 752 CURVE SMOOTH",
"187 752 OFFCURVE",
"72 614 OFFCURVE",
"72 368 CURVE SMOOTH",
"72 129 OFFCURVE",
"182 -10 OFFCURVE",
"367 -10 CURVE SMOOTH"
);
}
);
};
layerId = "91AB5BCA-6A50-42DA-B2F7-8181BF189245";
paths = (
{
closed = 1;
nodes = (
"469 -10 OFFCURVE",
"543 50 OFFCURVE",
"582 126 CURVE",
"582 0 LINE",
"621 0 LINE",
"621 368 LINE",
"380 368 LINE",
"380 333 LINE",
"582 333 LINE",
"582 249 LINE SMOOTH",
"582 157 OFFCURVE",
"512 29 OFFCURVE",
"358 29 CURVE SMOOTH",
"199 29 OFFCURVE",
"110 149 OFFCURVE",
"110 365 CURVE SMOOTH",
"110 569 OFFCURVE",
"201 692 OFFCURVE",
"358 692 CURVE SMOOTH",
"462 692 OFFCURVE",
"545 621 OFFCURVE",
"560 530 CURVE",
"606 538 LINE",
"595 644 OFFCURVE",
"478 733 OFFCURVE",
"358 733 CURVE SMOOTH",
"181 733 OFFCURVE",
"69 599 OFFCURVE",
"69 359 CURVE SMOOTH",
"69 126 OFFCURVE",
"176 -10 OFFCURVE",
"357 -10 CURVE SMOOTH"
);
}
);
width = 713;
}
);
leftKerningGroup = O;
leftMetricsKey = O;
rightKerningGroup = G;
unicode = 0047;
},
{
glyphname = H;
lastChange = "2019-04-12 19:25:02 +0000";
layers = (
{
anchors = (
{
name = bottom;
position = "{369, 0}";
},
{
name = top;
position = "{373, 723}";
}
);
background = {
anchors = (
{
name = bottom;
position = "{367, 0}";
},
{
name = top;
position = "{369, 742}";
}
);
paths = (
{
closed = 1;
nodes = (
"466 297 OFFCURVE",
"472 290 OFFCURVE",
"472 282 CURVE SMOOTH",
"472 29 LINE SMOOTH",
"472 8 OFFCURVE",
"482 0 OFFCURVE",
"505 0 CURVE SMOOTH",
"672 0 LINE SMOOTH",
"693 0 OFFCURVE",
"699 8 OFFCURVE",
"699 25 CURVE SMOOTH",
"699 719 LINE SMOOTH",
"699 734 OFFCURVE",
"691 742 OFFCURVE",
"680 742 CURVE SMOOTH",
"490 742 LINE SMOOTH",
"479 742 OFFCURVE",
"472 734 OFFCURVE",
"472 721 CURVE SMOOTH",
"472 489 LINE SMOOTH",
"472 476 OFFCURVE",
"465 469 OFFCURVE",
"454 469 CURVE SMOOTH",
"286 469 LINE SMOOTH",
"275 469 OFFCURVE",
"268 476 OFFCURVE",
"268 489 CURVE SMOOTH",
"268 721 LINE SMOOTH",
"268 734 OFFCURVE",
"261 742 OFFCURVE",
"250 742 CURVE SMOOTH",
"60 742 LINE SMOOTH",
"49 742 OFFCURVE",
"41 734 OFFCURVE",
"41 719 CURVE SMOOTH",
"41 25 LINE SMOOTH",
"41 8 OFFCURVE",
"47 0 OFFCURVE",
"68 0 CURVE SMOOTH",
"235 0 LINE SMOOTH",
"258 0 OFFCURVE",
"268 8 OFFCURVE",
"268 29 CURVE SMOOTH",
"268 282 LINE SMOOTH",
"268 290 OFFCURVE",
"274 297 OFFCURVE",
"284 297 CURVE SMOOTH",
"456 297 LINE SMOOTH"
);
}
);
};
layerId = "258ED206-D907-4350-8EBA-CBDDA1C16BF7";
paths = (
{
closed = 1;
nodes = (
"483 0 LINE",
"678 0 LINE",
"678 723 LINE",
"483 723 LINE",
"483 449 LINE",
"264 449 LINE",
"264 723 LINE",
"69 723 LINE",
"69 0 LINE",
"264 0 LINE",
"264 290 LINE",
"483 290 LINE"
);
}
);
width = 747;
},
{
anchors = (
{
name = bottom;
position = "{346, 0}";
},
{
name = top;
position = "{346, 723}";
}
);
background = {
anchors = (
{
name = bottom;
position = "{356, 0}";
},
{
name = top;
position = "{356, 742}";
}
);
paths = (
{
closed = 1;
nodes = (
"556 366 OFFCURVE",
"558 364 OFFCURVE",
"558 359 CURVE SMOOTH",
"558 9 LINE SMOOTH",
"558 2 OFFCURVE",
"561 0 OFFCURVE",
"568 0 CURVE SMOOTH",
"595 0 LINE SMOOTH",
"601 0 OFFCURVE",
"604 3 OFFCURVE",
"604 10 CURVE SMOOTH",
"604 732 LINE SMOOTH",
"604 740 OFFCURVE",
"602 742 OFFCURVE",
"595 742 CURVE SMOOTH",
"566 742 LINE SMOOTH",
"560 742 OFFCURVE",
"558 739 OFFCURVE",
"558 733 CURVE SMOOTH",
"558 414 LINE SMOOTH",
"558 408 OFFCURVE",
"556 406 OFFCURVE",
"550 406 CURVE SMOOTH",
"162 406 LINE SMOOTH",
"155 406 OFFCURVE",
"153 407 OFFCURVE",
"153 415 CURVE SMOOTH",
"153 732 LINE SMOOTH",
"153 740 OFFCURVE",
"151 742 OFFCURVE",
"144 742 CURVE SMOOTH",
"116 742 LINE SMOOTH",
"109 742 OFFCURVE",
"107 740 OFFCURVE",
"107 732 CURVE SMOOTH",
"107 10 LINE SMOOTH",
"107 3 OFFCURVE",
"109 0 OFFCURVE",
"116 0 CURVE SMOOTH",
"143 0 LINE SMOOTH",
"150 0 OFFCURVE",
"153 3 OFFCURVE",
"153 9 CURVE SMOOTH",
"153 360 LINE SMOOTH",
"153 363 OFFCURVE",
"155 366 OFFCURVE",
"159 366 CURVE SMOOTH",
"551 366 LINE SMOOTH"
);
}
);
};
layerId = "91AB5BCA-6A50-42DA-B2F7-8181BF189245";
paths = (
{
closed = 1;
nodes = (
"545 0 LINE",
"584 0 LINE",
"584 723 LINE",
"545 723 LINE",
"545 397 LINE",
"146 397 LINE",
"146 723 LINE",
"107 723 LINE",
"107 0 LINE",
"146 0 LINE",
"146 356 LINE",
"545 356 LINE"
);
}
);
width = 686;
}
);
leftKerningGroup = N;
leftMetricsKey = N;
rightKerningGroup = N;
rightMetricsKey = N;
unicode = 0048;
},
{
glyphname = Hbar;
lastChange = "2019-04-14 22:15:24 +0000";
layers = (
{
background = {
components = (
{
name = H;
transform = "{1, 0, 0, 1, 45, 0}";
}
);
paths = (
{
closed = 1;
nodes = (
"788 635 OFFCURVE",
"782 642 OFFCURVE",
"772 642 CURVE SMOOTH",
"24 642 LINE SMOOTH",
"15 642 OFFCURVE",
"9 635 OFFCURVE",
"9 622 CURVE SMOOTH",
"9 563 LINE SMOOTH",
"9 548 OFFCURVE",
"14 541 OFFCURVE",
"30 541 CURVE SMOOTH",
"760 541 LINE SMOOTH",
"779 541 OFFCURVE",
"788 548 OFFCURVE",
"788 565 CURVE SMOOTH",
"788 624 LINE SMOOTH"
);
}
);
};
components = (
{
name = H;
transform = "{1, 0, 0, 1, 45, 0}";
}
);
layerId = "258ED206-D907-4350-8EBA-CBDDA1C16BF7";
paths = (
{
closed = 1;
nodes = (
"20 642 LINE",
"20 541 LINE",
"799 541 LINE",
"799 642 LINE"
);
}
);
width = 819;
},
{
background = {
components = (
{
name = H;
}
);
paths = (
{
closed = 1;
nodes = (
"688 600 OFFCURVE",
"686 603 OFFCURVE",
"682 603 CURVE SMOOTH",
"16 603 LINE SMOOTH",
"11 603 OFFCURVE",
"9 600 OFFCURVE",
"9 594 CURVE SMOOTH",
"9 573 LINE SMOOTH",
"9 566 OFFCURVE",
"11 564 OFFCURVE",
"19 564 CURVE SMOOTH",
"676 564 LINE SMOOTH",
"685 564 OFFCURVE",
"688 566 OFFCURVE",
"688 574 CURVE SMOOTH",
"688 595 LINE SMOOTH"
);
}
);
};
components = (
{
name = H;
}
);
layerId = "91AB5BCA-6A50-42DA-B2F7-8181BF189245";
paths = (
{
closed = 1;
nodes = (
"9 603 LINE",
"9 564 LINE",
"688 564 LINE",
"688 603 LINE"
);
}
);
width = 697;
}
);
leftKerningGroup = N;
rightKerningGroup = N;
unicode = 0126;
},
{
glyphname = I;
lastChange = "2019-04-12 19:20:33 +0000";
layers = (
{
anchors = (
{
name = bottom;
position = "{177, 0}";
},
{
name = ogonek;
position = "{240, 3}";
},
{
name = top;
position = "{167, 723}";
}
);
background = {
anchors = (
{
name = bottom;
position = "{173, 0}";
},
{
name = ogonek;
position = "{255, 10}";
},
{
name = top;
position = "{174, 742}";
}
);
paths = (
{
closed = 1;
nodes = (
"68 742 OFFCURVE",
"60 734 OFFCURVE",
"60 719 CURVE SMOOTH",
"60 25 LINE SMOOTH",
"60 8 OFFCURVE",
"66 0 OFFCURVE",
"87 0 CURVE SMOOTH",
"254 0 LINE SMOOTH",
"277 0 OFFCURVE",
"287 8 OFFCURVE",
"287 29 CURVE SMOOTH",
"287 721 LINE SMOOTH",
"287 734 OFFCURVE",
"281 742 OFFCURVE",
"269 742 CURVE SMOOTH",
"79 742 LINE SMOOTH"
);
}
);
};
layerId = "258ED206-D907-4350-8EBA-CBDDA1C16BF7";
paths = (
{
closed = 1;
nodes = (
"69 0 LINE",
"264 0 LINE",
"264 723 LINE",
"69 723 LINE"
);
}
);
width = 333;
},
{
anchors = (
{
name = bottom;
position = "{128, 0}";
},
{
name = ogonek;
position = "{141, 10}";
},
{
name = top;
position = "{127, 723}";
}
);
background = {
anchors = (
{
name = bottom;
position = "{132, 0}";
},
{
name = ogonek;
position = "{144, 10}";
},
{
name = top;
position = "{135, 742}";
}
);
paths = (
{
closed = 1;
nodes = (
"111 742 OFFCURVE",
"109 740 OFFCURVE",
"109 732 CURVE SMOOTH",
"109 10 LINE SMOOTH",
"109 2 OFFCURVE",
"111 0 OFFCURVE",
"120 0 CURVE SMOOTH",
"143 0 LINE SMOOTH",
"153 0 OFFCURVE",
"155 2 OFFCURVE",
"155 12 CURVE SMOOTH",
"155 732 LINE SMOOTH",
"155 740 OFFCURVE",
"153 742 OFFCURVE",
"146 742 CURVE SMOOTH",
"118 742 LINE SMOOTH"
);
}
);
};
layerId = "91AB5BCA-6A50-42DA-B2F7-8181BF189245";
paths = (
{
closed = 1;
nodes = (
"107 0 LINE",
"146 0 LINE",
"146 723 LINE",
"107 723 LINE"
);
}
);
width = 248;
}
);
leftKerningGroup = N;
leftMetricsKey = N;
rightKerningGroup = N;
rightMetricsKey = N;
unicode = 0049;
},
{
glyphname = J;
lastChange = "2019-04-14 20:32:30 +0000";
layers = (
{
anchors = (
{
name = top;
position = "{268, 723}";
}
);
background = {
anchors = (
{
name = top;
position = "{218, 742}";
}
);
paths = (
{
closed = 1;
nodes = (
"395 721 LINE SMOOTH",
"395 734 OFFCURVE",
"389 742 OFFCURVE",
"377 742 CURVE SMOOTH",
"188 742 LINE SMOOTH",
"176 742 OFFCURVE",
"168 734 OFFCURVE",
"168 719 CURVE SMOOTH",
"168 268 LINE SMOOTH",
"168 200 OFFCURVE",
"139 175 OFFCURVE",
"90 175 CURVE SMOOTH",
"68 175 OFFCURVE",
"51 180 OFFCURVE",
"35 182 CURVE SMOOTH",
"19 184 OFFCURVE",
"12 174 OFFCURVE",
"11 159 CURVE SMOOTH",
"2 45 LINE SMOOTH",
"0 17 OFFCURVE",
"10 6 OFFCURVE",
"33 2 CURVE SMOOTH",
"78 -6 OFFCURVE",
"116 -10 OFFCURVE",
"157 -10 CURVE SMOOTH",
"313 -10 OFFCURVE",
"395 48 OFFCURVE",
"395 212 CURVE SMOOTH"
);
}
);
};
layerId = "258ED206-D907-4350-8EBA-CBDDA1C16BF7";
paths = (
{
closed = 1;
nodes = (
"370 723 LINE",
"175 723 LINE",
"175 279 LINE SMOOTH",
"175 204 OFFCURVE",
"158 170 OFFCURVE",
"89 170 CURVE SMOOTH",
"68 170 OFFCURVE",
"43 173 OFFCURVE",
"25 175 CURVE",
"25 0 LINE",
"55 -6 OFFCURVE",
"115 -10 OFFCURVE",
"156 -10 CURVE SMOOTH",
"331 -10 OFFCURVE",
"370 69 OFFCURVE",
"370 229 CURVE SMOOTH"
);
}
);
width = 425;
},
{
anchors = (
{
name = top;
position = "{235, 723}";
}
);
background = {
anchors = (
{
name = top;
position = "{245, 742}";
}
);
paths = (
{
closed = 1;
nodes = (
"268 732 LINE SMOOTH",
"268 739 OFFCURVE",
"266 742 OFFCURVE",
"260 742 CURVE SMOOTH",
"230 742 LINE SMOOTH",
"224 742 OFFCURVE",
"222 739 OFFCURVE",
"222 733 CURVE SMOOTH",
"222 154 LINE SMOOTH",
"222 61 OFFCURVE",
"200 34 OFFCURVE",
"135 34 CURVE SMOOTH",
"86 34 OFFCURVE",
"64 49 OFFCURVE",
"43 59 CURVE SMOOTH",
"39 61 OFFCURVE",
"36 60 OFFCURVE",
"35 55 CURVE SMOOTH",
"26 24 LINE SMOOTH",
"25 20 OFFCURVE",
"27 17 OFFCURVE",
"30 15 CURVE SMOOTH",
"37 10 OFFCURVE",
"82 -10 OFFCURVE",
"137 -10 CURVE SMOOTH",
"234 -10 OFFCURVE",
"268 49 OFFCURVE",
"268 144 CURVE SMOOTH"
);
}
);
};
layerId = "91AB5BCA-6A50-42DA-B2F7-8181BF189245";
paths = (
{
closed = 1;
nodes = (
"255 723 LINE",
"216 723 LINE",
"216 154 LINE SMOOTH",
"216 63 OFFCURVE",
"194 31 OFFCURVE",
"131 31 CURVE SMOOTH",
"80 31 OFFCURVE",
"55 52 OFFCURVE",
"33 62 CURVE",
"23 19 LINE",
"30 13 OFFCURVE",
"76 -10 OFFCURVE",
"133 -10 CURVE SMOOTH",
"227 -10 OFFCURVE",
"255 48 OFFCURVE",
"255 140 CURVE SMOOTH"
);
}
);
width = 362;
}
);
leftKerningGroup = J;
rightKerningGroup = N;
rightMetricsKey = U;
unicode = 004A;
},
{
glyphname = K;
lastChange = "2019-04-12 19:25:50 +0000";
layers = (
{
anchors = (
{
name = bottom;
position = "{361, 0}";
},
{
name = top;
position = "{374, 723}";
}
);
background = {
anchors = (
{
name = bottom;
position = "{359, 0}";
},
{
name = top;
position = "{359, 742}";
}
);
paths = (
{
closed = 1;
nodes = (
"515 480 LINE SMOOTH",
"509 494 OFFCURVE",
"510 501 OFFCURVE",
"518 512 CURVE SMOOTH",
"682 713 LINE SMOOTH",
"695 728 OFFCURVE",
"683 742 OFFCURVE",
"661 742 CURVE SMOOTH",
"509 742 LINE SMOOTH",
"485 742 OFFCURVE",
"477 736 OFFCURVE",
"466 721 CURVE SMOOTH",
"282 463 LINE",
"274 453 OFFCURVE",
"267 452 OFFCURVE",
"267 468 CURVE SMOOTH",
"267 721 LINE SMOOTH",
"267 734 OFFCURVE",
"261 742 OFFCURVE",
"249 742 CURVE SMOOTH",
"59 742 LINE SMOOTH",
"48 742 OFFCURVE",
"40 734 OFFCURVE",
"40 719 CURVE SMOOTH",
"40 25 LINE SMOOTH",
"40 8 OFFCURVE",
"46 0 OFFCURVE",
"67 0 CURVE SMOOTH",
"234 0 LINE SMOOTH",
"257 0 OFFCURVE",
"267 8 OFFCURVE",
"267 29 CURVE SMOOTH",
"267 180 LINE SMOOTH",
"267 190 OFFCURVE",
"268 196 OFFCURVE",
"273 202 CURVE SMOOTH",
"344 293 LINE SMOOTH",
"354 306 OFFCURVE",
"360 308 OFFCURVE",
"366 298 CURVE SMOOTH",
"488 20 LINE SMOOTH",
"495 5 OFFCURVE",
"507 0 OFFCURVE",
"524 0 CURVE SMOOTH",
"719 0 LINE SMOOTH",
"739 0 OFFCURVE",
"741 15 OFFCURVE",
"733 31 CURVE SMOOTH"
);
}
);
};
guideLines = (
{
angle = 54.4985;
position = "{673, 670}";
},
{
angle = -62.8805;
position = "{360, 283}";
}
);
hints = (
{
horizontal = 1;
origin = "{0, 6}";
target = up;
type = BottomGhost;
},
{
horizontal = 1;
origin = "{0, 5}";
target = down;
type = TopGhost;
},
{
place = "{82, 221}";
type = Stem;
}
);
layerId = "258ED206-D907-4350-8EBA-CBDDA1C16BF7";
paths = (
{
closed = 1;
nodes = (
"500 447 LINE",
"699 723 LINE",
"480 723 LINE",
"271 431 LINE",
"271 723 LINE",
"69 723 LINE",
"69 0 LINE",
"271 0 LINE",
"271 189 LINE",
"361 305 LINE",
"522 0 LINE",
"731 0 LINE"
);
}
);
width = 752;
},
{
anchors = (
{
name = bottom;
position = "{329, 0}";
},
{
name = top;
position = "{346, 723}";
}
);
background = {
anchors = (
{
name = bottom;
position = "{340, 0}";
},
{
name = top;
position = "{370, 742}";
}
);
paths = (
{
closed = 1;
nodes = (
"340 445 LINE SMOOTH",
"338 449 OFFCURVE",
"338 449 OFFCURVE",
"340 451 CURVE SMOOTH",
"599 734 LINE SMOOTH",
"603 738 OFFCURVE",
"602 742 OFFCURVE",
"596 742 CURVE SMOOTH",
"558 742 LINE SMOOTH",
"552 742 OFFCURVE",
"550 741 OFFCURVE",
"547 738 CURVE SMOOTH",
"164 322 LINE SMOOTH",
"159 317 OFFCURVE",
"157 317 OFFCURVE",
"157 323 CURVE SMOOTH",
"157 734 LINE SMOOTH",
"157 740 OFFCURVE",
"154 742 OFFCURVE",
"149 742 CURVE SMOOTH",
"119 742 LINE SMOOTH",
"113 742 OFFCURVE",
"111 739 OFFCURVE",
"111 734 CURVE SMOOTH",
"111 9 LINE SMOOTH",
"111 2 OFFCURVE",
"114 0 OFFCURVE",
"121 0 CURVE SMOOTH",
"147 0 LINE SMOOTH",
"154 0 OFFCURVE",
"157 3 OFFCURVE",
"157 9 CURVE SMOOTH",
"157 246 LINE SMOOTH",
"157 254 OFFCURVE",
"159 257 OFFCURVE",
"165 263 CURVE SMOOTH",
"297 409 LINE SMOOTH",
"302 414 OFFCURVE",
"305 415 OFFCURVE",
"309 409 CURVE SMOOTH",
"567 5 LINE SMOOTH",
"569 2 OFFCURVE",
"573 0 OFFCURVE",
"578 0 CURVE SMOOTH",
"617 0 LINE SMOOTH",
"621 0 OFFCURVE",
"623 3 OFFCURVE",
"620 7 CURVE SMOOTH"
);
}
);
};
layerId = "91AB5BCA-6A50-42DA-B2F7-8181BF189245";
paths = (
{
closed = 1;
nodes = (
"325 438 LINE",
"586 723 LINE",
"532 723 LINE",
"148 306 LINE",
"148 723 LINE",
"107 723 LINE",
"107 0 LINE",
"148 0 LINE",
"148 248 LINE",
"291 407 LINE",
"551 0 LINE",
"603 0 LINE"
);
}
);
width = 641;
}
);
leftKerningGroup = N;
leftMetricsKey = N;
rightKerningGroup = K;
unicode = 004B;
},
{
glyphname = L;
lastChange = "2019-04-12 19:26:11 +0000";
layers = (
{
anchors = (
{
name = bottom;
position = "{308, 0}";
},
{
name = top;
position = "{162, 723}";
},
{
name = topright;
position = "{490, 723}";
}
);
background = {
anchors = (
{
name = bottom;
position = "{305, 0}";
},
{
name = top;
position = "{159, 742}";
},
{
name = topright;
position = "{501, 742}";
}
);
paths = (
{
closed = 1;
nodes = (
"43 25 LINE SMOOTH",
"43 8 OFFCURVE",
"49 0 OFFCURVE",
"70 0 CURVE SMOOTH",
"581 0 LINE SMOOTH",
"598 0 OFFCURVE",
"606 10 OFFCURVE",
"606 22 CURVE SMOOTH",
"606 145 LINE SMOOTH",
"606 159 OFFCURVE",
"597 164 OFFCURVE",
"583 164 CURVE SMOOTH",
"282 164 LINE SMOOTH",
"273 164 OFFCURVE",
"270 167 OFFCURVE",
"270 178 CURVE SMOOTH",
"270 721 LINE SMOOTH",
"270 734 OFFCURVE",
"264 742 OFFCURVE",
"252 742 CURVE SMOOTH",
"62 742 LINE SMOOTH",
"51 742 OFFCURVE",
"43 734 OFFCURVE",
"43 719 CURVE SMOOTH"
);
}
);
};
layerId = "258ED206-D907-4350-8EBA-CBDDA1C16BF7";
paths = (
{
closed = 1;
nodes = (
"69 0 LINE",
"553 0 LINE",
"553 160 LINE",
"264 160 LINE",
"264 723 LINE",
"69 723 LINE"
);
}
);
width = 578;
},
{
anchors = (
{
name = bottom;
position = "{307, 0}";
},
{
name = top;
position = "{130, 723}";
},
{
name = topright;
position = "{407, 723}";
}
);
background = {
anchors = (
{
name = bottom;
position = "{316, 0}";
},
{
name = top;
position = "{134, 742}";
},
{
name = topright;
position = "{420, 742}";
}
);
paths = (
{
closed = 1;
nodes = (
"111 10 LINE SMOOTH",
"111 3 OFFCURVE",
"113 0 OFFCURVE",
"120 0 CURVE",
"530 0 LINE",
"535 0 OFFCURVE",
"537 2 OFFCURVE",
"537 7 CURVE SMOOTH",
"537 33 LINE SMOOTH",
"537 39 OFFCURVE",
"535 40 OFFCURVE",
"529 40 CURVE SMOOTH",
"166 40 LINE SMOOTH",
"159 40 OFFCURVE",
"157 41 OFFCURVE",
"157 49 CURVE SMOOTH",
"157 732 LINE SMOOTH",
"157 740 OFFCURVE",
"155 742 OFFCURVE",
"148 742 CURVE SMOOTH",
"120 742 LINE SMOOTH",
"113 742 OFFCURVE",
"111 740 OFFCURVE",
"111 732 CURVE SMOOTH"
);
}
);
};
layerId = "91AB5BCA-6A50-42DA-B2F7-8181BF189245";
paths = (
{
closed = 1;
nodes = (
"107 0 LINE",
"519 0 LINE",
"519 43 LINE",
"150 43 LINE",
"150 723 LINE",
"108 723 LINE"
);
}
);
width = 552;
}
);
leftKerningGroup = N;
leftMetricsKey = N;
rightKerningGroup = L;
unicode = 004C;
},
{
glyphname = Lslash;
lastChange = "2019-04-14 22:16:28 +0000";
layers = (
{
background = {
components = (
{
name = L;
transform = "{1, 0, 0, 1, 22, 0}";
}
);
paths = (
{
closed = 1;
nodes = (
"439 536 OFFCURVE",
"432 543 OFFCURVE",
"415 538 CURVE SMOOTH",
"21 433 LINE SMOOTH",
"9 430 OFFCURVE",
"2 425 OFFCURVE",
"2 410 CURVE SMOOTH",
"2 293 LINE SMOOTH",
"2 277 OFFCURVE",
"8 270 OFFCURVE",
"27 276 CURVE SMOOTH",
"419 387 LINE SMOOTH",
"433 391 OFFCURVE",
"439 399 OFFCURVE",
"439 410 CURVE SMOOTH",
"439 521 LINE SMOOTH"
);
}
);
};
components = (
{
name = L;
transform = "{1, 0, 0, 1, 22, 0}";
}
);
layerId = "258ED206-D907-4350-8EBA-CBDDA1C16BF7";
paths = (
{
closed = 1;
nodes = (
"2 428 LINE",
"2 269 LINE",
"439 393 LINE",
"439 544 LINE"
);
}
);
width = 600;
},
{
background = {
components = (
{
name = L;
transform = "{1, 0, 0, 1, -4, 0}";
}
);
paths = (
{
closed = 1;
nodes = (
"318 425 OFFCURVE",
"316 427 OFFCURVE",
"311 426 CURVE SMOOTH",
"36 356 LINE SMOOTH",
"33 355 OFFCURVE",
"31 352 OFFCURVE",
"31 347 CURVE SMOOTH",
"31 324 LINE SMOOTH",
"31 319 OFFCURVE",
"33 318 OFFCURVE",
"38 319 CURVE SMOOTH",
"312 390 LINE SMOOTH",
"316 391 OFFCURVE",
"318 394 OFFCURVE",
"318 398 CURVE SMOOTH",
"318 421 LINE SMOOTH"
);
}
);
};
components = (
{
name = L;
transform = "{1, 0, 0, 1, -4, 0}";
}
);
layerId = "91AB5BCA-6A50-42DA-B2F7-8181BF189245";
paths = (
{
closed = 1;
nodes = (
"31 355 LINE",
"31 317 LINE",
"318 392 LINE",
"318 428 LINE"
);
}
);
width = 548;
}
);
leftKerningGroup = N;
rightKerningGroup = L;
rightMetricsKey = L;
unicode = 0141;
},
{
glyphname = M;
lastChange = "2019-04-14 20:33:05 +0000";
layers = (
{
background = {
paths = (
{
closed = 1;
nodes = (
"214 0 LINE SMOOTH",
"232 0 OFFCURVE",
"236 4 OFFCURVE",
"236 22 CURVE SMOOTH",
"236 464 LINE SMOOTH",
"236 477 OFFCURVE",
"243 481 OFFCURVE",
"248 465 CURVE SMOOTH",
"392 18 LINE SMOOTH",
"396 6 OFFCURVE",
"404 0 OFFCURVE",
"416 0 CURVE SMOOTH",
"521 0 LINE SMOOTH",
"532 0 OFFCURVE",
"541 7 OFFCURVE",
"545 18 CURVE SMOOTH",
"689 473 LINE SMOOTH",
"693 485 OFFCURVE",
"701 485 OFFCURVE",
"701 474 CURVE SMOOTH",
"701 25 LINE SMOOTH",
"701 8 OFFCURVE",
"707 0 OFFCURVE",
"727 0 CURVE SMOOTH",
"896 0 LINE SMOOTH",
"919 0 OFFCURVE",
"928 8 OFFCURVE",
"928 29 CURVE SMOOTH",
"928 721 LINE SMOOTH",
"928 734 OFFCURVE",
"922 742 OFFCURVE",
"910 742 CURVE SMOOTH",
"621 742 LINE SMOOTH",
"607 742 OFFCURVE",
"599 731 OFFCURVE",
"594 713 CURVE SMOOTH",
"501 406 LINE SMOOTH",
"498 397 OFFCURVE",
"492 395 OFFCURVE",
"488 406 CURVE SMOOTH",
"384 724 LINE SMOOTH",
"379 738 OFFCURVE",
"373 742 OFFCURVE",
"356 742 CURVE SMOOTH",
"76 742 LINE SMOOTH",
"61 742 OFFCURVE",
"55 735 OFFCURVE",
"55 719 CURVE SMOOTH",
"55 28 LINE SMOOTH",
"55 11 OFFCURVE",
"65 0 OFFCURVE",
"81 0 CURVE SMOOTH"
);
}
);
};
guideLines = (
{
angle = -105;
position = "{465, 261}";
},
{
angle = 105;
position = "{465, 261}";
}
);
layerId = "258ED206-D907-4350-8EBA-CBDDA1C16BF7";
paths = (
{
closed = 1;
nodes = (
"264 0 LINE",
"264 524 LINE",
"405 0 LINE",
"545 0 LINE",
"686 524 LINE",
"686 0 LINE",
"881 0 LINE",
"881 723 LINE",
"593 723 LINE",
"475 282 LINE",
"358 723 LINE",
"69 723 LINE",
"69 0 LINE"
);
}
);
width = 950;
},
{
background = {
guideLines = (
{
position = "{36, 566}";
showMeasurement = 1;
}
);
paths = (
{
closed = 1;
nodes = (
"141 0 LINE SMOOTH",
"148 0 OFFCURVE",
"151 3 OFFCURVE",
"151 9 CURVE SMOOTH",
"151 622 LINE SMOOTH",
"151 626 OFFCURVE",
"153 625 OFFCURVE",
"154 622 CURVE SMOOTH",
"398 10 LINE SMOOTH",
"401 3 OFFCURVE",
"406 0 OFFCURVE",
"417 0 CURVE SMOOTH",
"444 0 LINE SMOOTH",
"453 0 OFFCURVE",
"457 3 OFFCURVE",
"460 11 CURVE SMOOTH",
"709 627 LINE SMOOTH",
"710 630 OFFCURVE",
"712 632 OFFCURVE",
"712 627 CURVE SMOOTH",
"712 9 LINE SMOOTH",
"712 2 OFFCURVE",
"715 0 OFFCURVE",
"722 0 CURVE SMOOTH",
"749 0 LINE SMOOTH",
"755 0 OFFCURVE",
"758 3 OFFCURVE",
"758 10 CURVE SMOOTH",
"758 732 LINE SMOOTH",
"758 740 OFFCURVE",
"756 742 OFFCURVE",
"749 742 CURVE SMOOTH",
"720 742 LINE SMOOTH",
"714 742 OFFCURVE",
"711 740 OFFCURVE",
"709 735 CURVE SMOOTH",
"438 65 LINE SMOOTH",
"432 51 OFFCURVE",
"427 51 OFFCURVE",
"422 64 CURVE SMOOTH",
"155 734 LINE",
"153 740 OFFCURVE",
"150 742 OFFCURVE",
"142 742 CURVE SMOOTH",
"116 742 LINE SMOOTH",
"109 742 OFFCURVE",
"107 740 OFFCURVE",
"107 732 CURVE SMOOTH",
"107 10 LINE SMOOTH",
"107 3 OFFCURVE",
"109 0 OFFCURVE",
"116 0 CURVE SMOOTH"
);
}
);
};
guideLines = (
{
position = "{107, 525}";
showMeasurement = 1;
},
{
angle = 68.255;
position = "{389, 0}";
}
);
layerId = "91AB5BCA-6A50-42DA-B2F7-8181BF189245";
paths = (
{
closed = 1;
nodes = (
"150 0 LINE",
"150 608 LINE",
"393 0 LINE",
"451 0 LINE",
"697 616 LINE",
"697 0 LINE",
"740 0 LINE",
"740 723 LINE",
"697 723 LINE",
"422 44 LINE",
"151 723 LINE",
"107 723 LINE",
"107 0 LINE"
);
}
);
width = 842;
}
);
leftKerningGroup = N;
leftMetricsKey = N;
rightKerningGroup = N;
rightMetricsKey = N;
unicode = 004D;
},
{
glyphname = N;
lastChange = "2019-04-12 19:27:28 +0000";
layers = (
{
anchors = (
{
name = bottom;
position = "{405, 0}";
},
{
name = top;
position = "{405, 723}";
}
);
background = {
anchors = (
{
name = bottom;
position = "{404, 0}";
},
{
name = top;
position = "{404, 742}";
}
);
paths = (
{
closed = 1;
nodes = (
"557 742 OFFCURVE",
"550 734 OFFCURVE",
"550 721 CURVE SMOOTH",
"550 394 LINE SMOOTH",
"550 378 OFFCURVE",
"543 378 OFFCURVE",
"534 390 CURVE SMOOTH",
"294 724 LINE SMOOTH",
"283 739 OFFCURVE",
"277 742 OFFCURVE",
"260 742 CURVE SMOOTH",
"97 742 LINE SMOOTH",
"82 742 OFFCURVE",
"75 735 OFFCURVE",
"75 719 CURVE SMOOTH",
"75 20 LINE SMOOTH",
"75 5 OFFCURVE",
"85 0 OFFCURVE",
"100 0 CURVE SMOOTH",
"236 0 LINE SMOOTH",
"254 0 OFFCURVE",
"261 6 OFFCURVE",
"260 22 CURVE SMOOTH",
"260 386 LINE SMOOTH",
"260 393 OFFCURVE",
"265 395 OFFCURVE",
"270 388 CURVE SMOOTH",
"545 15 LINE SMOOTH",
"555 2 OFFCURVE",
"561 0 OFFCURVE",
"572 0 CURVE SMOOTH",
"709 0 LINE SMOOTH",
"722 0 OFFCURVE",
"732 7 OFFCURVE",
"732 18 CURVE SMOOTH",
"732 725 LINE SMOOTH",
"732 736 OFFCURVE",
"727 742 OFFCURVE",
"717 742 CURVE SMOOTH",
"572 742 LINE SMOOTH"
);
}
);
};
guideLines = (
{
angle = 125.0467;
position = "{532, 296}";
}
);
layerId = "258ED206-D907-4350-8EBA-CBDDA1C16BF7";
paths = (
{
closed = 1;
nodes = (
"547 320 LINE",
"265 723 LINE",
"69 723 LINE",
"69 0 LINE",
"264 0 LINE",
"264 431 LINE",
"566 0 LINE",
"742 0 LINE",
"742 723 LINE",
"547 723 LINE"
);
}
);
width = 811;
},
{
anchors = (
{
name = bottom;
position = "{336, 0}";
},
{
name = top;
position = "{360, 723}";
}
);
background = {
anchors = (
{
name = bottom;
position = "{352, 0}";
},
{
name = top;
position = "{387, 742}";
}
);
guideLines = (
{
position = "{41, 576}";
showMeasurement = 1;
}
);
paths = (
{
closed = 1;
nodes = (
"592 742 OFFCURVE",
"590 739 OFFCURVE",
"590 733 CURVE SMOOTH",
"590 107 LINE SMOOTH",
"590 101 OFFCURVE",
"583 95 OFFCURVE",
"576 105 CURVE SMOOTH",
"149 735 LINE SMOOTH",
"145 741 OFFCURVE",
"142 742 OFFCURVE",
"134 742 CURVE SMOOTH",
"116 742 LINE",
"109 742 OFFCURVE",
"107 740 OFFCURVE",
"107 732 CURVE SMOOTH",
"107 10 LINE SMOOTH",
"107 3 OFFCURVE",
"109 0 OFFCURVE",
"116 0 CURVE SMOOTH",
"141 0 LINE SMOOTH",
"148 0 OFFCURVE",
"151 3 OFFCURVE",
"151 9 CURVE SMOOTH",
"151 637 LINE SMOOTH",
"151 645 OFFCURVE",
"156 647 OFFCURVE",
"163 637 CURVE SMOOTH",
"591 6 LINE SMOOTH",
"596 -1 OFFCURVE",
"602 0 OFFCURVE",
"610 0 CURVE SMOOTH",
"625 0 LINE SMOOTH",
"631 0 OFFCURVE",
"634 3 OFFCURVE",
"634 10 CURVE SMOOTH",
"634 732 LINE SMOOTH",
"634 740 OFFCURVE",
"632 742 OFFCURVE",
"625 742 CURVE SMOOTH",
"598 742 LINE SMOOTH"
);
}
);
};
guideLines = (
{
position = "{112, 534}";
showMeasurement = 1;
},
{
angle = 123.9688;
position = "{114, 610}";
}
);
layerId = "91AB5BCA-6A50-42DA-B2F7-8181BF189245";
paths = (
{
closed = 1;
nodes = (
"574 78 LINE",
"139 723 LINE",
"107 723 LINE",
"107 0 LINE",
"146 0 LINE",
"146 643 LINE",
"579 0 LINE",
"613 0 LINE",
"613 723 LINE",
"574 723 LINE"
);
}
);
width = 715;
}
);
leftKerningGroup = N;
rightKerningGroup = N;
unicode = 004E;
},
{
glyphname = Eng;
lastChange = "2019-04-14 22:21:21 +0000";
layers = (
{
background = {
paths = (
{
closed = 1;
nodes = (
"557 742 LINE SMOOTH",
"542 742 OFFCURVE",
"535 734 OFFCURVE",
"535 721 CURVE SMOOTH",
"535 434 LINE SMOOTH",
"535 418 OFFCURVE",
"528 418 OFFCURVE",
"519 430 CURVE",
"279 724 LINE SMOOTH",
"267 739 OFFCURVE",
"262 742 OFFCURVE",
"245 742 CURVE SMOOTH",
"82 742 LINE SMOOTH",
"67 742 OFFCURVE",
"60 735 OFFCURVE",
"60 719 CURVE SMOOTH",
"60 20 LINE SMOOTH",
"60 5 OFFCURVE",
"70 0 OFFCURVE",
"85 0 CURVE SMOOTH",
"221 0 LINE SMOOTH",
"239 0 OFFCURVE",
"246 6 OFFCURVE",
"245 22 CURVE",
"245 386 LINE",
"245 393 OFFCURVE",
"249 395 OFFCURVE",
"255 388 CURVE SMOOTH",
"495 97 LINE",
"495 88 LINE SMOOTH",
"492 31 OFFCURVE",
"462 10 OFFCURVE",
"417 10 CURVE SMOOTH",
"395 10 OFFCURVE",
"372 15 OFFCURVE",
"356 17 CURVE SMOOTH",
"340 19 OFFCURVE",
"333 9 OFFCURVE",
"332 -6 CURVE SMOOTH",
"323 -120 LINE SMOOTH",
"321 -148 OFFCURVE",
"331 -159 OFFCURVE",
"354 -163 CURVE SMOOTH",
"399 -171 OFFCURVE",
"443 -175 OFFCURVE",
"484 -175 CURVE SMOOTH",
"636 -175 OFFCURVE",
"717 -114 OFFCURVE",
"717 47 CURVE SMOOTH",
"717 725 LINE SMOOTH",
"717 736 OFFCURVE",
"712 742 OFFCURVE",
"702 742 CURVE SMOOTH"
);
}
);
};
components = (
{
name = N;
},
{
alignment = -1;
name = "_j-hook";
transform = "{1, 0, 0, 1, 372, -230}";
}
);
layerId = "258ED206-D907-4350-8EBA-CBDDA1C16BF7";
width = 814;
},
{
background = {
paths = (
{
closed = 1;
nodes = (
"603 742 LINE SMOOTH",
"597 742 OFFCURVE",
"595 739 OFFCURVE",
"595 733 CURVE SMOOTH",
"595 107 LINE SMOOTH",
"595 101 OFFCURVE",
"588 94 OFFCURVE",
"581 104 CURVE SMOOTH",
"155 735 LINE SMOOTH",
"151 741 OFFCURVE",
"148 742 OFFCURVE",
"141 742 CURVE SMOOTH",
"120 742 LINE SMOOTH",
"113 742 OFFCURVE",
"111 740 OFFCURVE",
"111 732 CURVE SMOOTH",
"111 10 LINE SMOOTH",
"111 3 OFFCURVE",
"113 0 OFFCURVE",
"120 0 CURVE SMOOTH",
"145 0 LINE SMOOTH",
"152 0 OFFCURVE",
"155 3 OFFCURVE",
"155 9 CURVE SMOOTH",
"155 640 LINE SMOOTH",
"155 648 OFFCURVE",
"157 650 OFFCURVE",
"164 640 CURVE SMOOTH",
"592 12 LINE",
"592 -41 LINE SMOOTH",
"592 -112 OFFCURVE",
"561 -135 OFFCURVE",
"507 -135 CURVE SMOOTH",
"477 -135 OFFCURVE",
"453 -128 OFFCURVE",
"437 -122 CURVE SMOOTH",
"432 -120 OFFCURVE",
"430 -121 OFFCURVE",
"429 -126 CURVE",
"426 -151 LINE",
"426 -155 OFFCURVE",
"427 -158 OFFCURVE",
"430 -160 CURVE SMOOTH",
"437 -165 OFFCURVE",
"470 -175 OFFCURVE",
"511 -175 CURVE SMOOTH",
"605 -175 OFFCURVE",
"638 -124 OFFCURVE",
"638 -46 CURVE SMOOTH",
"638 732 LINE SMOOTH",
"638 740 OFFCURVE",
"636 742 OFFCURVE",
"629 742 CURVE SMOOTH"
);
}
);
};
components = (
{
name = N;
},
{
alignment = -1;
name = "_j-hook";
transform = "{1, 0, 0, 1, 358, -230}";
}
);
layerId = "91AB5BCA-6A50-42DA-B2F7-8181BF189245";
width = 715;
}
);
leftKerningGroup = N;
leftMetricsKey = N;
rightKerningGroup = N;
rightMetricsKey = N;
unicode = 014A;
},
{
glyphname = O;
lastChange = "2019-04-12 20:44:11 +0000";
layers = (
{
anchors = (
{
name = bottom;
position = "{397, 0}";
},
{
name = horn;
position = "{640, 547}";
},
{
name = ogonek;
position = "{486, 10}";
},
{
name = top;
position = "{395, 723}";
}
);
background = {
anchors = (
{
name = bottom;
position = "{396, 0}";
},
{
name = ogonek;
position = "{487, 10}";
},
{
name = top;
position = "{394, 742}";
}
);
paths = (
{
closed = 1;
nodes = (
"613 -10 OFFCURVE",
"753 139 OFFCURVE",
"753 369 CURVE SMOOTH",
"753 601 OFFCURVE",
"610 752 OFFCURVE",
"395 752 CURVE SMOOTH",
"178 752 OFFCURVE",
"35 601 OFFCURVE",
"35 369 CURVE SMOOTH",
"35 138 OFFCURVE",
"174 -10 OFFCURVE",
"395 -10 CURVE SMOOTH"
);
},
{
closed = 1;
nodes = (
"306 146 OFFCURVE",
"273 206 OFFCURVE",
"273 366 CURVE SMOOTH",
"273 531 OFFCURVE",
"308 598 OFFCURVE",
"395 598 CURVE SMOOTH",
"480 598 OFFCURVE",
"515 531 OFFCURVE",
"515 366 CURVE SMOOTH",
"515 206 OFFCURVE",
"482 146 OFFCURVE",
"395 146 CURVE SMOOTH"
);
}
);
};
guideLines = (
{
angle = 90;
position = "{-508, 389}";
}
);
layerId = "258ED206-D907-4350-8EBA-CBDDA1C16BF7";
paths = (
{
closed = 1;
nodes = (
"609 -10 OFFCURVE",
"745 136 OFFCURVE",
"745 360 CURVE SMOOTH",
"745 586 OFFCURVE",
"606 733 OFFCURVE",
"396 733 CURVE SMOOTH",
"185 733 OFFCURVE",
"45 586 OFFCURVE",
"45 360 CURVE SMOOTH",
"45 135 OFFCURVE",
"181 -10 OFFCURVE",
"396 -10 CURVE SMOOTH"
);
},
{
closed = 1;
nodes = (
"316 146 OFFCURVE",
"257 201 OFFCURVE",
"257 357 CURVE SMOOTH",
"257 518 OFFCURVE",
"316 577 OFFCURVE",
"396 577 CURVE SMOOTH",
"476 577 OFFCURVE",
"534 518 OFFCURVE",
"534 357 CURVE SMOOTH",
"534 201 OFFCURVE",
"476 146 OFFCURVE",
"396 146 CURVE SMOOTH"
);
}
);
width = 790;
},
{
anchors = (
{
name = bottom;
position = "{365, 0}";
},
{
name = horn;
position = "{553, 606}";
},
{
name = ogonek;
position = "{433, 9}";
},
{
name = top;
position = "{365, 723}";
}
);
background = {
anchors = (
{
name = bottom;
position = "{375, 0}";
},
{
name = ogonek;
position = "{445, 9}";
},
{
name = top;
position = "{375, 742}";
}
);
paths = (
{
closed = 1;
nodes = (
"561 -10 OFFCURVE",
"674 122 OFFCURVE",
"674 369 CURVE SMOOTH",
"674 618 OFFCURVE",
"561 752 OFFCURVE",
"374 752 CURVE SMOOTH",
"186 752 OFFCURVE",
"72 617 OFFCURVE",
"72 367 CURVE SMOOTH",
"72 121 OFFCURVE",
"184 -10 OFFCURVE",
"373 -10 CURVE SMOOTH"
);
},
{
closed = 1;
nodes = (
"209 32 OFFCURVE",
"120 143 OFFCURVE",
"120 369 CURVE SMOOTH",
"120 597 OFFCURVE",
"209 710 OFFCURVE",
"374 710 CURVE SMOOTH",
"538 710 OFFCURVE",
"626 598 OFFCURVE",
"626 369 CURVE SMOOTH",
"626 142 OFFCURVE",
"540 32 OFFCURVE",
"375 32 CURVE SMOOTH"
);
}
);
};
guideLines = (
{
angle = 90;
position = "{-436, 400}";
},
{
angle = 90;
position = "{407, 593}";
}
);
layerId = "91AB5BCA-6A50-42DA-B2F7-8181BF189245";
paths = (
{
closed = 1;
nodes = (
"546 -10 OFFCURVE",
"656 119 OFFCURVE",
"656 360 CURVE SMOOTH",
"656 603 OFFCURVE",
"546 733 OFFCURVE",
"364 733 CURVE SMOOTH",
"180 733 OFFCURVE",
"69 602 OFFCURVE",
"69 358 CURVE SMOOTH",
"69 118 OFFCURVE",
"179 -10 OFFCURVE",
"363 -10 CURVE SMOOTH"
);
},
{
closed = 1;
nodes = (
"203 31 OFFCURVE",
"113 139 OFFCURVE",
"113 360 CURVE SMOOTH",
"113 582 OFFCURVE",
"203 692 OFFCURVE",
"364 692 CURVE SMOOTH",
"524 692 OFFCURVE",
"612 583 OFFCURVE",
"612 360 CURVE SMOOTH",
"612 138 OFFCURVE",
"526 31 OFFCURVE",
"365 31 CURVE SMOOTH"
);
}
);
width = 725;
}
);
leftKerningGroup = O;
rightKerningGroup = O;
unicode = 004F;
},
{
glyphname = Oslash;
lastChange = "2019-04-14 22:26:15 +0000";
layers = (
{
anchors = (
{
name = top;
position = "{394, 723}";
}
);
background = {
anchors = (
{
name = top;
position = "{394, 723}";
}
);
paths = (
{
closed = 1;
nodes = (
"715 723 LINE SMOOTH",
"707 731 OFFCURVE",
"695 729 OFFCURVE",
"685 719 CURVE SMOOTH",
"621 657 LINE",
"563 706 OFFCURVE",
"486 733 OFFCURVE",
"395 733 CURVE SMOOTH",
"183 733 OFFCURVE",
"44 586 OFFCURVE",
"44 360 CURVE SMOOTH",
"44 276 OFFCURVE",
"63 204 OFFCURVE",
"97 146 CURVE",
"31 82 LINE SMOOTH",
"20 70 OFFCURVE",
"21 60 OFFCURVE",
"35 46 CURVE SMOOTH",
"73 7 LINE SMOOTH",
"89 -9 OFFCURVE",
"101 -8 OFFCURVE",
"115 7 CURVE SMOOTH",
"171 61 LINE",
"229 16 OFFCURVE",
"305 -10 OFFCURVE",
"395 -10 CURVE SMOOTH",
"608 -10 OFFCURVE",
"744 136 OFFCURVE",
"744 360 CURVE SMOOTH",
"744 442 OFFCURVE",
"726 513 OFFCURVE",
"692 570 CURVE",
"766 643 LINE",
"776 651 OFFCURVE",
"775 661 OFFCURVE",
"767 669 CURVE SMOOTH"
);
},
{
closed = 1;
nodes = (
"276 518 OFFCURVE",
"310 583 OFFCURVE",
"395 583 CURVE SMOOTH",
"438 583 OFFCURVE",
"468 566 OFFCURVE",
"487 526 CURVE",
"277 321 LINE",
"276 333 OFFCURVE",
"276 345 OFFCURVE",
"276 357 CURVE"
);
},
{
closed = 1;
nodes = (
"512 201 OFFCURVE",
"480 142 OFFCURVE",
"395 142 CURVE SMOOTH",
"352 142 OFFCURVE",
"322 157 OFFCURVE",
"303 190 CURVE",
"511 394 LINE",
"512 381 OFFCURVE",
"512 370 OFFCURVE",
"512 357 CURVE SMOOTH"
);
}
);
};
layerId = "258ED206-D907-4350-8EBA-CBDDA1C16BF7";
paths = (
{
closed = 1;
nodes = (
"171 61 LINE",
"229 16 OFFCURVE",
"305 -10 OFFCURVE",
"395 -10 CURVE SMOOTH",
"608 -10 OFFCURVE",
"744 136 OFFCURVE",
"744 360 CURVE SMOOTH",
"744 442 OFFCURVE",
"726 513 OFFCURVE",
"692 570 CURVE",
"779 656 LINE",
"703 736 LINE",
"621 657 LINE",
"563 706 OFFCURVE",
"486 733 OFFCURVE",
"395 733 CURVE SMOOTH",
"183 733 OFFCURVE",
"44 586 OFFCURVE",
"44 360 CURVE SMOOTH",
"44 276 OFFCURVE",
"63 204 OFFCURVE",
"97 146 CURVE",
"15 67 LINE",
"93 -14 LINE"
);
},
{
closed = 1;
nodes = (
"352 142 OFFCURVE",
"322 157 OFFCURVE",
"303 190 CURVE",
"512 395 LINE",
"512 335 OFFCURVE",
"509 288 OFFCURVE",
"501 251 CURVE SMOOTH",
"486 174 OFFCURVE",
"452 142 OFFCURVE",
"395 142 CURVE SMOOTH"
);
},
{
closed = 1;
nodes = (
"276 370 OFFCURVE",
"278 412 OFFCURVE",
"284 447 CURVE SMOOTH",
"298 542 OFFCURVE",
"333 583 OFFCURVE",
"395 583 CURVE SMOOTH",
"438 583 OFFCURVE",
"468 566 OFFCURVE",
"487 526 CURVE",
"276 320 LINE"
);
}
);
width = 798;
},
{
anchors = (
{
name = top;
position = "{365, 723}";
}
);
background = {
anchors = (
{
name = top;
position = "{365, 723}";
}
);
paths = (
{
closed = 1;
nodes = (
"661 730 LINE",
"657 734 OFFCURVE",
"653 732 OFFCURVE",
"649 727 CURVE",
"576 643 LINE",
"525 702 OFFCURVE",
"454 733 OFFCURVE",
"365 733 CURVE SMOOTH",
"182 733 OFFCURVE",
"71 602 OFFCURVE",
"71 358 CURVE SMOOTH",
"71 259 OFFCURVE",
"89 179 OFFCURVE",
"124 120 CURVE",
"42 25 LINE",
"38 20 OFFCURVE",
"39 18 OFFCURVE",
"46 11 CURVE SMOOTH",
"63 -5 LINE",
"71 -11 OFFCURVE",
"76 -11 OFFCURVE",
"81 -3 CURVE",
"153 79 LINE",
"202 20 OFFCURVE",
"274 -10 OFFCURVE",
"364 -10 CURVE SMOOTH",
"547 -10 OFFCURVE",
"658 119 OFFCURVE",
"658 360 CURVE SMOOTH",
"658 460 OFFCURVE",
"639 541 OFFCURVE",
"604 602 CURVE",
"687 698 LINE",
"690 702 OFFCURVE",
"689 706 OFFCURVE",
"686 709 CURVE"
);
},
{
closed = 1;
nodes = (
"120 582 OFFCURVE",
"204 691 OFFCURVE",
"365 691 CURVE SMOOTH",
"445 691 OFFCURVE",
"505 664 OFFCURVE",
"546 609 CURVE",
"156 157 LINE",
"132 209 OFFCURVE",
"120 276 OFFCURVE",
"120 360 CURVE SMOOTH"
);
},
{
closed = 1;
nodes = (
"608 138 OFFCURVE",
"527 32 OFFCURVE",
"366 32 CURVE SMOOTH",
"285 32 OFFCURVE",
"224 59 OFFCURVE",
"182 114 CURVE",
"572 566 LINE",
"596 513 OFFCURVE",
"608 445 OFFCURVE",
"608 360 CURVE SMOOTH"
);
}
);
};
layerId = "91AB5BCA-6A50-42DA-B2F7-8181BF189245";
paths = (
{
closed = 1;
nodes = (
"153 79 LINE",
"202 20 OFFCURVE",
"274 -10 OFFCURVE",
"364 -10 CURVE SMOOTH",
"547 -10 OFFCURVE",
"658 119 OFFCURVE",
"658 360 CURVE SMOOTH",
"658 460 OFFCURVE",
"639 541 OFFCURVE",
"604 602 CURVE",
"692 704 LINE",
"656 735 LINE",
"576 643 LINE",
"525 702 OFFCURVE",
"454 733 OFFCURVE",
"365 733 CURVE SMOOTH",
"182 733 OFFCURVE",
"71 602 OFFCURVE",
"71 358 CURVE SMOOTH",
"71 259 OFFCURVE",
"89 179 OFFCURVE",
"124 120 CURVE",
"37 19 LINE",
"72 -13 LINE"
);
},
{
closed = 1;
nodes = (
"285 32 OFFCURVE",
"224 59 OFFCURVE",
"182 114 CURVE",
"572 566 LINE",
"596 513 OFFCURVE",
"608 445 OFFCURVE",
"608 360 CURVE SMOOTH",
"608 138 OFFCURVE",
"527 32 OFFCURVE",
"366 32 CURVE SMOOTH"
);
},
{
closed = 1;
nodes = (
"132 209 OFFCURVE",
"120 276 OFFCURVE",
"120 360 CURVE SMOOTH",
"120 582 OFFCURVE",
"204 691 OFFCURVE",
"365 691 CURVE SMOOTH",
"445 691 OFFCURVE",
"505 664 OFFCURVE",
"546 609 CURVE",
"156 157 LINE"
);
}
);
width = 729;
}
);
leftKerningGroup = O;
rightKerningGroup = Oslash;
unicode = 00D8;
},
{
glyphname = OE;
lastChange = "2019-04-14 20:07:45 +0000";
layers = (
{
background = {
paths = (
{
closed = 1;
nodes = (
"742 164 LINE",
"742 292 LINE",
"961 292 LINE",
"961 453 LINE",
"742 453 LINE",
"742 578 LINE",
"1091 578 LINE",
"1092 742 LINE",
"610 742 LINE",
"548 742 LINE",
"513 749 OFFCURVE",
"470 752 OFFCURVE",
"419 752 CURVE SMOOTH",
"178 752 OFFCURVE",
"35 601 OFFCURVE",
"35 369 CURVE SMOOTH",
"35 138 OFFCURVE",
"174 -10 OFFCURVE",
"407 -10 CURVE SMOOTH",
"463 -10 OFFCURVE",
"510 -7 OFFCURVE",
"548 0 CURVE",
"598 0 LINE",
"605 0 OFFCURVE",
"612 0 OFFCURVE",
"619 0 CURVE",
"1077 0 LINE SMOOTH",
"1094 0 OFFCURVE",
"1101 10 OFFCURVE",
"1101 22 CURVE SMOOTH",
"1101 145 LINE SMOOTH",
"1101 159 OFFCURVE",
"1093 164 OFFCURVE",
"1079 164 CURVE SMOOTH"
);
},
{
closed = 1;
nodes = (
"306 146 OFFCURVE",
"273 206 OFFCURVE",
"273 366 CURVE SMOOTH",
"273 531 OFFCURVE",
"308 598 OFFCURVE",
"395 598 CURVE SMOOTH",
"480 598 OFFCURVE",
"515 531 OFFCURVE",
"515 366 CURVE SMOOTH",
"515 206 OFFCURVE",
"482 146 OFFCURVE",
"395 146 CURVE SMOOTH"
);
}
);
};
layerId = "258ED206-D907-4350-8EBA-CBDDA1C16BF7";
paths = (
{
closed = 1;
nodes = (
"734 160 LINE",
"734 285 LINE",
"948 285 LINE",
"948 442 LINE",
"734 442 LINE",
"734 564 LINE",
"1075 564 LINE",
"1076 723 LINE",
"606 723 LINE",
"545 723 LINE",
"511 730 OFFCURVE",
"469 733 OFFCURVE",
"419 733 CURVE SMOOTH",
"185 733 OFFCURVE",
"45 586 OFFCURVE",
"45 360 CURVE SMOOTH",
"45 135 OFFCURVE",
"181 -10 OFFCURVE",
"408 -10 CURVE SMOOTH",
"462 -10 OFFCURVE",
"508 -7 OFFCURVE",
"545 0 CURVE",
"594 0 LINE",
"1084 0 LINE",
"1084 160 LINE"
);
},
{
closed = 1;
nodes = (
"309 142 OFFCURVE",
"277 201 OFFCURVE",
"277 357 CURVE SMOOTH",
"277 518 OFFCURVE",
"311 583 OFFCURVE",
"396 583 CURVE SMOOTH",
"479 583 OFFCURVE",
"513 518 OFFCURVE",
"513 357 CURVE SMOOTH",
"513 201 OFFCURVE",
"481 142 OFFCURVE",
"396 142 CURVE SMOOTH"
);
}
);
width = 1138;
},
{
background = {
paths = (
{
closed = 1;
nodes = (
"683 40 LINE SMOOTH",
"676 40 OFFCURVE",
"674 41 OFFCURVE",
"674 49 CURVE SMOOTH",
"674 346 LINE SMOOTH",
"674 354 OFFCURVE",
"676 355 OFFCURVE",
"683 355 CURVE SMOOTH",
"960 355 LINE SMOOTH",
"966 355 OFFCURVE",
"968 356 OFFCURVE",
"968 362 CURVE SMOOTH",
"968 388 LINE SMOOTH",
"968 393 OFFCURVE",
"966 395 OFFCURVE",
"961 395 CURVE SMOOTH",
"683 395 LINE SMOOTH",
"676 395 OFFCURVE",
"674 396 OFFCURVE",
"674 402 CURVE SMOOTH",
"674 693 LINE SMOOTH",
"674 701 OFFCURVE",
"676 702 OFFCURVE",
"683 702 CURVE SMOOTH",
"1041 702 LINE SMOOTH",
"1047 702 OFFCURVE",
"1049 703 OFFCURVE",
"1049 709 CURVE SMOOTH",
"1049 735 LINE SMOOTH",
"1049 740 OFFCURVE",
"1047 742 OFFCURVE",
"1042 742 CURVE SMOOTH",
"637 742 LINE SMOOTH",
"630 742 OFFCURVE",
"628 740 OFFCURVE",
"628 732 CURVE SMOOTH",
"628 600 LINE",
"578 700 OFFCURVE",
"491 752 OFFCURVE",
"374 752 CURVE SMOOTH",
"186 752 OFFCURVE",
"72 617 OFFCURVE",
"72 367 CURVE SMOOTH",
"72 121 OFFCURVE",
"184 -10 OFFCURVE",
"373 -10 CURVE SMOOTH",
"490 -10 OFFCURVE",
"578 41 OFFCURVE",
"628 140 CURVE",
"628 10 LINE SMOOTH",
"628 2 OFFCURVE",
"630 0 OFFCURVE",
"637 0 CURVE SMOOTH",
"1057 0 LINE SMOOTH",
"1062 0 OFFCURVE",
"1064 2 OFFCURVE",
"1064 7 CURVE SMOOTH",
"1064 33 LINE SMOOTH",
"1064 39 OFFCURVE",
"1062 40 OFFCURVE",
"1056 40 CURVE SMOOTH"
);
},
{
closed = 1;
nodes = (
"209 32 OFFCURVE",
"120 143 OFFCURVE",
"120 369 CURVE SMOOTH",
"120 597 OFFCURVE",
"209 710 OFFCURVE",
"374 710 CURVE SMOOTH",
"538 710 OFFCURVE",
"623 598 OFFCURVE",
"623 369 CURVE SMOOTH",
"623 142 OFFCURVE",
"540 32 OFFCURVE",
"375 32 CURVE SMOOTH"
);
}
);
};
layerId = "91AB5BCA-6A50-42DA-B2F7-8181BF189245";
paths = (
{
closed = 1;
nodes = (
"656 39 LINE",
"656 346 LINE",
"943 346 LINE",
"943 385 LINE",
"656 385 LINE",
"656 684 LINE",
"1022 684 LINE",
"1022 723 LINE",
"611 723 LINE",
"611 585 LINE",
"563 683 OFFCURVE",
"478 733 OFFCURVE",
"364 733 CURVE SMOOTH",
"181 733 OFFCURVE",
"69 602 OFFCURVE",
"69 358 CURVE SMOOTH",
"69 118 OFFCURVE",
"179 -10 OFFCURVE",
"363 -10 CURVE SMOOTH",
"477 -10 OFFCURVE",
"563 40 OFFCURVE",
"611 137 CURVE",
"611 0 LINE",
"1037 0 LINE",
"1037 39 LINE"
);
},
{
closed = 1;
nodes = (
"203 31 OFFCURVE",
"116 139 OFFCURVE",
"116 360 CURVE SMOOTH",
"116 582 OFFCURVE",
"203 692 OFFCURVE",
"364 692 CURVE SMOOTH",
"524 692 OFFCURVE",
"607 583 OFFCURVE",
"607 360 CURVE SMOOTH",
"607 138 OFFCURVE",
"526 31 OFFCURVE",
"365 31 CURVE SMOOTH"
);
}
);
width = 1107;
}
);
leftKerningGroup = O;
leftMetricsKey = O;
rightKerningGroup = E;
rightMetricsKey = E;
unicode = 0152;
},
{
glyphname = P;
lastChange = "2018-10-31 20:52:58 +0000";
layers = (
{
background = {
paths = (
{
closed = 1;
nodes = (
"694 662 OFFCURVE",
"557 742 OFFCURVE",
"393 742 CURVE SMOOTH",
"62 742 LINE SMOOTH",
"50 742 OFFCURVE",
"43 734 OFFCURVE",
"43 719 CURVE SMOOTH",
"43 25 LINE SMOOTH",
"43 8 OFFCURVE",
"49 0 OFFCURVE",
"69 0 CURVE SMOOTH",
"237 0 LINE SMOOTH",
"260 0 OFFCURVE",
"270 8 OFFCURVE",
"270 29 CURVE SMOOTH",
"270 255 LINE SMOOTH",
"270 262 OFFCURVE",
"273 266 OFFCURVE",
"282 266 CURVE SMOOTH",
"419 266 LINE SMOOTH",
"582 266 OFFCURVE",
"694 355 OFFCURVE",
"694 501 CURVE SMOOTH"
);
},
{
closed = 1;
nodes = (
"462 461 OFFCURVE",
"433 426 OFFCURVE",
"385 426 CURVE SMOOTH",
"287 426 LINE SMOOTH",
"274 426 OFFCURVE",
"270 433 OFFCURVE",
"270 448 CURVE SMOOTH",
"270 561 LINE SMOOTH",
"270 576 OFFCURVE",
"276 582 OFFCURVE",
"293 582 CURVE SMOOTH",
"379 582 LINE SMOOTH",
"425 582 OFFCURVE",
"462 552 OFFCURVE",
"462 504 CURVE SMOOTH"
);
}
);
};
layerId = "258ED206-D907-4350-8EBA-CBDDA1C16BF7";
paths = (
{
closed = 1;
nodes = (
"264 0 LINE",
"264 249 LINE",
"380 249 LINE SMOOTH",
"539 249 OFFCURVE",
"639 335 OFFCURVE",
"639 478 CURVE SMOOTH",
"639 635 OFFCURVE",
"515 723 OFFCURVE",
"355 723 CURVE SMOOTH",
"69 723 LINE",
"69 0 LINE"
);
},
{
closed = 1;
nodes = (
"262 579 LINE",
"374 579 LINE SMOOTH",
"417 579 OFFCURVE",
"460 538 OFFCURVE",
"460 488 CURVE SMOOTH",
"460 441 OFFCURVE",
"423 394 OFFCURVE",
"374 394 CURVE SMOOTH",
"262 394 LINE"
);
}
);
width = 669;
},
{
background = {
paths = (
{
closed = 1;
nodes = (
"608 684 OFFCURVE",
"497 742 OFFCURVE",
"342 742 CURVE SMOOTH",
"120 742 LINE SMOOTH",
"113 742 OFFCURVE",
"111 740 OFFCURVE",
"111 732 CURVE SMOOTH",
"111 8 LINE SMOOTH",
"111 3 OFFCURVE",
"114 0 OFFCURVE",
"119 0 CURVE SMOOTH",
"149 0 LINE SMOOTH",
"154 0 OFFCURVE",
"157 3 OFFCURVE",
"157 9 CURVE SMOOTH",
"157 318 LINE SMOOTH",
"157 324 OFFCURVE",
"159 327 OFFCURVE",
"165 327 CURVE SMOOTH",
"348 327 LINE SMOOTH",
"499 327 OFFCURVE",
"608 387 OFFCURVE",
"608 535 CURVE SMOOTH"
);
},
{
closed = 1;
nodes = (
"560 415 OFFCURVE",
"476 367 OFFCURVE",
"348 367 CURVE SMOOTH",
"164 367 LINE SMOOTH",
"159 367 OFFCURVE",
"157 370 OFFCURVE",
"157 377 CURVE SMOOTH",
"157 694 LINE SMOOTH",
"157 700 OFFCURVE",
"160 702 OFFCURVE",
"166 702 CURVE SMOOTH",
"341 702 LINE SMOOTH",
"476 702 OFFCURVE",
"560 662 OFFCURVE",
"560 538 CURVE SMOOTH"
);
}
);
};
layerId = "91AB5BCA-6A50-42DA-B2F7-8181BF189245";
paths = (
{
closed = 1;
nodes = (
"150 0 LINE",
"150 277 LINE",
"336 277 LINE SMOOTH",
"484 277 OFFCURVE",
"590 358 OFFCURVE",
"590 503 CURVE SMOOTH",
"590 648 OFFCURVE",
"482 723 OFFCURVE",
"330 723 CURVE SMOOTH",
"107 723 LINE",
"107 0 LINE"
);
},
{
closed = 1;
nodes = (
"150 681 LINE",
"329 681 LINE SMOOTH",
"461 681 OFFCURVE",
"546 626 OFFCURVE",
"546 506 CURVE SMOOTH",
"546 386 OFFCURVE",
"461 320 OFFCURVE",
"336 320 CURVE SMOOTH",
"150 320 LINE"
);
}
);
width = 623;
}
);
leftKerningGroup = N;
leftMetricsKey = N;
rightKerningGroup = P;
unicode = 0050;
},
{
glyphname = Thorn;
lastChange = "2019-04-14 20:07:52 +0000";
layers = (
{
background = {
paths = (
{
closed = 1;
nodes = (
"724 530 OFFCURVE",
"587 608 OFFCURVE",
"423 608 CURVE SMOOTH",
"297 608 LINE SMOOTH",
"290 608 OFFCURVE",
"287 612 OFFCURVE",
"287 620 CURVE SMOOTH",
"287 721 LINE SMOOTH",
"287 734 OFFCURVE",
"281 742 OFFCURVE",
"269 742 CURVE SMOOTH",
"79 742 LINE SMOOTH",
"68 742 OFFCURVE",
"60 734 OFFCURVE",
"60 719 CURVE SMOOTH",
"60 25 LINE SMOOTH",
"60 8 OFFCURVE",
"66 0 OFFCURVE",
"86 0 CURVE SMOOTH",
"254 0 LINE SMOOTH",
"277 0 OFFCURVE",
"287 8 OFFCURVE",
"287 29 CURVE SMOOTH",
"287 131 LINE SMOOTH",
"287 138 OFFCURVE",
"290 142 OFFCURVE",
"299 142 CURVE SMOOTH",
"449 142 LINE SMOOTH",
"612 142 OFFCURVE",
"724 229 OFFCURVE",
"724 372 CURVE SMOOTH"
);
},
{
closed = 1;
nodes = (
"492 335 OFFCURVE",
"463 302 OFFCURVE",
"415 302 CURVE SMOOTH",
"304 302 LINE SMOOTH",
"291 302 OFFCURVE",
"287 309 OFFCURVE",
"287 324 CURVE SMOOTH",
"287 427 LINE SMOOTH",
"287 442 OFFCURVE",
"293 448 OFFCURVE",
"310 448 CURVE SMOOTH",
"409 448 LINE SMOOTH",
"455 448 OFFCURVE",
"492 420 OFFCURVE",
"492 375 CURVE SMOOTH"
);
}
);
};
layerId = "258ED206-D907-4350-8EBA-CBDDA1C16BF7";
paths = (
{
closed = 1;
nodes = (
"717 517 OFFCURVE",
"583 593 OFFCURVE",
"423 593 CURVE SMOOTH",
"291 593 LINE",
"291 723 LINE",
"69 723 LINE",
"69 0 LINE",
"291 0 LINE",
"291 138 LINE",
"449 138 LINE SMOOTH",
"608 138 OFFCURVE",
"717 223 OFFCURVE",
"717 363 CURVE SMOOTH"
);
},
{
closed = 1;
nodes = (
"491 327 OFFCURVE",
"462 294 OFFCURVE",
"415 294 CURVE SMOOTH",
"291 294 LINE",
"291 437 LINE",
"410 437 LINE SMOOTH",
"454 437 OFFCURVE",
"491 410 OFFCURVE",
"491 366 CURVE SMOOTH"
);
}
);
width = 747;
},
{
background = {
paths = (
{
closed = 1;
nodes = (
"608 522 OFFCURVE",
"498 579 OFFCURVE",
"342 579 CURVE SMOOTH",
"163 579 LINE SMOOTH",
"159 579 OFFCURVE",
"157 581 OFFCURVE",
"157 584 CURVE SMOOTH",
"157 732 LINE SMOOTH",
"157 740 OFFCURVE",
"155 742 OFFCURVE",
"148 742 CURVE SMOOTH",
"120 742 LINE SMOOTH",
"113 742 OFFCURVE",
"111 740 OFFCURVE",
"111 732 CURVE SMOOTH",
"111 8 LINE SMOOTH",
"111 3 OFFCURVE",
"114 0 OFFCURVE",
"119 0 CURVE SMOOTH",
"149 0 LINE SMOOTH",
"154 0 OFFCURVE",
"157 3 OFFCURVE",
"157 9 CURVE SMOOTH",
"157 173 LINE SMOOTH",
"157 179 OFFCURVE",
"159 182 OFFCURVE",
"165 182 CURVE SMOOTH",
"348 182 LINE SMOOTH",
"498 182 OFFCURVE",
"608 239 OFFCURVE",
"608 390 CURVE SMOOTH"
);
},
{
closed = 1;
nodes = (
"560 268 OFFCURVE",
"476 222 OFFCURVE",
"348 222 CURVE SMOOTH",
"164 222 LINE SMOOTH",
"159 222 OFFCURVE",
"157 225 OFFCURVE",
"157 232 CURVE SMOOTH",
"157 531 LINE SMOOTH",
"157 537 OFFCURVE",
"160 539 OFFCURVE",
"166 539 CURVE SMOOTH",
"341 539 LINE SMOOTH",
"476 539 OFFCURVE",
"560 501 OFFCURVE",
"560 390 CURVE SMOOTH"
);
}
);
};
layerId = "91AB5BCA-6A50-42DA-B2F7-8181BF189245";
paths = (
{
closed = 1;
nodes = (
"592 509 OFFCURVE",
"485 565 OFFCURVE",
"332 565 CURVE SMOOTH",
"152 565 LINE",
"152 723 LINE",
"107 723 LINE",
"107 0 LINE",
"152 0 LINE",
"152 177 LINE",
"338 177 LINE SMOOTH",
"485 177 OFFCURVE",
"592 233 OFFCURVE",
"592 380 CURVE SMOOTH"
);
},
{
closed = 1;
nodes = (
"545 261 OFFCURVE",
"463 216 OFFCURVE",
"338 216 CURVE SMOOTH",
"152 216 LINE",
"152 526 LINE",
"331 526 LINE SMOOTH",
"463 526 OFFCURVE",
"545 488 OFFCURVE",
"545 380 CURVE SMOOTH"
);
}
);
width = 625;
}
);
leftKerningGroup = N;
leftMetricsKey = P;
rightKerningGroup = P;
rightMetricsKey = P;
unicode = 00DE;
},
{
glyphname = Q;
lastChange = "2018-10-31 20:52:58 +0000";
layers = (
{
background = {
paths = (
{
closed = 1;
nodes = (
"20 138 OFFCURVE",
"159 -10 OFFCURVE",
"380 -10 CURVE SMOOTH",
"406 -10 OFFCURVE",
"427 -9 OFFCURVE",
"451 -6 CURVE SMOOTH",
"458 -5 OFFCURVE",
"463 -6 OFFCURVE",
"466 -10 CURVE SMOOTH",
"523 -84 OFFCURVE",
"595 -128 OFFCURVE",
"695 -128 CURVE SMOOTH",
"727 -128 OFFCURVE",
"739 -122 OFFCURVE",
"739 -97 CURVE SMOOTH",
"739 13 LINE SMOOTH",
"739 20 OFFCURVE",
"736 28 OFFCURVE",
"722 30 CURVE SMOOTH",
"679 36 OFFCURVE",
"632 61 OFFCURVE",
"632 78 CURVE SMOOTH",
"632 82 OFFCURVE",
"632 84 OFFCURVE",
"634 86 CURVE",
"701 152 OFFCURVE",
"739 249 OFFCURVE",
"739 369 CURVE SMOOTH",
"739 601 OFFCURVE",
"596 752 OFFCURVE",
"380 752 CURVE SMOOTH",
"163 752 OFFCURVE",
"20 601 OFFCURVE",
"20 369 CURVE SMOOTH"
);
},
{
closed = 1;
nodes = (
"258 532 OFFCURVE",
"293 598 OFFCURVE",
"380 598 CURVE SMOOTH",
"466 598 OFFCURVE",
"501 532 OFFCURVE",
"501 367 CURVE SMOOTH",
"501 206 OFFCURVE",
"468 146 OFFCURVE",
"380 146 CURVE SMOOTH",
"291 146 OFFCURVE",
"258 206 OFFCURVE",
"258 367 CURVE SMOOTH"
);
}
);
};
layerId = "258ED206-D907-4350-8EBA-CBDDA1C16BF7";
paths = (
{
closed = 1;
nodes = (
"30 135 OFFCURVE",
"166 -10 OFFCURVE",
"381 -10 CURVE SMOOTH",
"406 -10 OFFCURVE",
"426 -9 OFFCURVE",
"461 -5 CURVE",
"547 -113 OFFCURVE",
"615 -125 OFFCURVE",
"731 -125 CURVE",
"731 27 LINE",
"682 27 OFFCURVE",
"637 52 OFFCURVE",
"629 80 CURVE",
"694 150 OFFCURVE",
"731 243 OFFCURVE",
"731 360 CURVE SMOOTH",
"731 586 OFFCURVE",
"592 733 OFFCURVE",
"381 733 CURVE SMOOTH",
"170 733 OFFCURVE",
"30 586 OFFCURVE",
"30 360 CURVE SMOOTH"
);
},
{
closed = 1;
nodes = (
"243 519 OFFCURVE",
"297 577 OFFCURVE",
"381 577 CURVE SMOOTH",
"465 577 OFFCURVE",
"519 519 OFFCURVE",
"519 358 CURVE SMOOTH",
"519 201 OFFCURVE",
"467 146 OFFCURVE",
"381 146 CURVE SMOOTH",
"295 146 OFFCURVE",
"243 201 OFFCURVE",
"243 358 CURVE SMOOTH"
);
}
);
width = 786;
},
{
background = {
paths = (
{
closed = 1;
nodes = (
"60 116 OFFCURVE",
"177 -10 OFFCURVE",
"361 -10 CURVE SMOOTH",
"387 -10 OFFCURVE",
"417 -7 OFFCURVE",
"442 -1 CURVE SMOOTH",
"449 1 OFFCURVE",
"454 -1 OFFCURVE",
"457 -5 CURVE SMOOTH",
"522 -96 OFFCURVE",
"588 -122 OFFCURVE",
"632 -122 CURVE SMOOTH",
"646 -122 OFFCURVE",
"652 -120 OFFCURVE",
"652 -109 CURVE SMOOTH",
"652 -87 LINE SMOOTH",
"652 -84 OFFCURVE",
"651 -81 OFFCURVE",
"645 -80 CURVE SMOOTH",
"570 -70 OFFCURVE",
"503 -11 OFFCURVE",
"503 16 CURVE SMOOTH",
"503 20 OFFCURVE",
"504 22 OFFCURVE",
"509 25 CURVE SMOOTH",
"606 83 OFFCURVE",
"662 189 OFFCURVE",
"662 369 CURVE SMOOTH",
"662 620 OFFCURVE",
"549 752 OFFCURVE",
"361 752 CURVE SMOOTH",
"173 752 OFFCURVE",
"60 620 OFFCURVE",
"60 369 CURVE SMOOTH"
);
},
{
closed = 1;
nodes = (
"108 592 OFFCURVE",
"194 710 OFFCURVE",
"361 710 CURVE SMOOTH",
"528 710 OFFCURVE",
"614 592 OFFCURVE",
"614 369 CURVE SMOOTH",
"614 141 OFFCURVE",
"525 32 OFFCURVE",
"361 32 CURVE SMOOTH",
"197 32 OFFCURVE",
"108 141 OFFCURVE",
"108 367 CURVE SMOOTH"
);
}
);
};
layerId = "91AB5BCA-6A50-42DA-B2F7-8181BF189245";
paths = (
{
closed = 1;
nodes = (
"57 113 OFFCURVE",
"172 -10 OFFCURVE",
"351 -10 CURVE SMOOTH",
"379 -10 OFFCURVE",
"407 -6 OFFCURVE",
"439 1 CURVE",
"490 -98 OFFCURVE",
"587 -119 OFFCURVE",
"635 -119 CURVE",
"635 -79 LINE",
"571 -76 OFFCURVE",
"515 -50 OFFCURVE",
"482 18 CURVE",
"599 79 OFFCURVE",
"644 194 OFFCURVE",
"644 360 CURVE SMOOTH",
"644 605 OFFCURVE",
"534 733 OFFCURVE",
"351 733 CURVE SMOOTH",
"168 733 OFFCURVE",
"57 605 OFFCURVE",
"57 360 CURVE SMOOTH"
);
},
{
closed = 1;
nodes = (
"101 577 OFFCURVE",
"188 692 OFFCURVE",
"351 692 CURVE SMOOTH",
"514 692 OFFCURVE",
"601 577 OFFCURVE",
"601 360 CURVE SMOOTH",
"601 137 OFFCURVE",
"511 31 OFFCURVE",
"351 31 CURVE SMOOTH",
"191 31 OFFCURVE",
"101 137 OFFCURVE",
"101 358 CURVE SMOOTH"
);
}
);
width = 709;
}
);
leftKerningGroup = O;
rightKerningGroup = O;
unicode = 0051;
},
{
glyphname = R;
lastChange = "2018-10-31 20:52:58 +0000";
layers = (
{
anchors = (
{
name = bottom;
position = "{361, 0}";
},
{
name = top;
position = "{351, 723}";
}
);
background = {
anchors = (
{
name = bottom;
position = "{359, 0}";
},
{
name = top;
position = "{349, 742}";
}
);
paths = (
{
closed = 1;
nodes = (
"566 312 LINE SMOOTH",
"563 320 OFFCURVE",
"563 328 OFFCURVE",
"570 331 CURVE SMOOTH",
"646 360 OFFCURVE",
"701 436 OFFCURVE",
"701 530 CURVE SMOOTH",
"701 664 OFFCURVE",
"589 742 OFFCURVE",
"396 742 CURVE SMOOTH",
"62 742 LINE SMOOTH",
"50 742 OFFCURVE",
"43 734 OFFCURVE",
"43 719 CURVE SMOOTH",
"43 25 LINE SMOOTH",
"43 8 OFFCURVE",
"49 0 OFFCURVE",
"69 0 CURVE SMOOTH",
"237 0 LINE SMOOTH",
"260 0 OFFCURVE",
"270 8 OFFCURVE",
"270 29 CURVE SMOOTH",
"270 284 LINE SMOOTH",
"270 287 OFFCURVE",
"273 295 OFFCURVE",
"282 295 CURVE SMOOTH",
"328 295 LINE SMOOTH",
"347 295 OFFCURVE",
"355 290 OFFCURVE",
"359 279 CURVE SMOOTH",
"453 21 LINE SMOOTH",
"457 7 OFFCURVE",
"466 0 OFFCURVE",
"480 0 CURVE SMOOTH",
"674 0 LINE SMOOTH",
"690 0 OFFCURVE",
"699 15 OFFCURVE",
"692 32 CURVE SMOOTH"
);
},
{
closed = 1;
nodes = (
"287 444 LINE SMOOTH",
"274 444 OFFCURVE",
"270 450 OFFCURVE",
"270 465 CURVE SMOOTH",
"270 574 LINE SMOOTH",
"270 589 OFFCURVE",
"276 594 OFFCURVE",
"293 594 CURVE SMOOTH",
"381 594 LINE SMOOTH",
"426 594 OFFCURVE",
"466 567 OFFCURVE",
"466 516 CURVE SMOOTH",
"466 473 OFFCURVE",
"438 444 OFFCURVE",
"387 444 CURVE SMOOTH"
);
}
);
};
layerId = "258ED206-D907-4350-8EBA-CBDDA1C16BF7";
paths = (
{
closed = 1;
nodes = (
"543 280 LINE",
"610 321 OFFCURVE",
"658 379 OFFCURVE",
"658 490 CURVE SMOOTH",
"658 621 OFFCURVE",
"585 723 OFFCURVE",
"397 723 CURVE SMOOTH",
"69 723 LINE",
"69 0 LINE",
"264 0 LINE",
"264 249 LINE",
"366 249 LINE",
"471 0 LINE",
"670 0 LINE"
);
},
{
closed = 1;
nodes = (
"264 394 LINE",
"264 579 LINE",
"375 579 LINE SMOOTH",
"419 579 OFFCURVE",
"462 538 OFFCURVE",
"462 488 CURVE SMOOTH",
"462 441 OFFCURVE",
"425 394 OFFCURVE",
"375 394 CURVE SMOOTH"
);
}
);
width = 717;
},
{
anchors = (
{
name = bottom;
position = "{323, 0}";
},
{
name = top;
position = "{316, 723}";
}
);
background = {
anchors = (
{
name = bottom;
position = "{332, 0}";
},
{
name = top;
position = "{325, 742}";
}
);
paths = (
{
closed = 1;
nodes = (
"444 359 LINE",
"443 362 OFFCURVE",
"444 365 OFFCURVE",
"448 366 CURVE SMOOTH",
"517 384 OFFCURVE",
"600 435 OFFCURVE",
"600 558 CURVE SMOOTH",
"600 680 OFFCURVE",
"516 742 OFFCURVE",
"372 742 CURVE SMOOTH",
"114 742 LINE SMOOTH",
"107 742 OFFCURVE",
"105 740 OFFCURVE",
"105 732 CURVE SMOOTH",
"105 9 LINE SMOOTH",
"105 3 OFFCURVE",
"107 0 OFFCURVE",
"115 0 CURVE SMOOTH",
"141 0 LINE SMOOTH",
"149 0 OFFCURVE",
"151 3 OFFCURVE",
"151 11 CURVE SMOOTH",
"151 344 LINE SMOOTH",
"151 351 OFFCURVE",
"154 355 OFFCURVE",
"163 355 CURVE SMOOTH",
"379 355 LINE SMOOTH",
"392 355 OFFCURVE",
"397 352 OFFCURVE",
"400 345 CURVE SMOOTH",
"542 9 LINE SMOOTH",
"545 3 OFFCURVE",
"547 0 OFFCURVE",
"554 0 CURVE SMOOTH",
"582 0 LINE SMOOTH",
"589 0 OFFCURVE",
"593 7 OFFCURVE",
"590 14 CURVE SMOOTH"
);
},
{
closed = 1;
nodes = (
"158 395 LINE SMOOTH",
"153 395 OFFCURVE",
"151 398 OFFCURVE",
"151 404 CURVE SMOOTH",
"151 694 LINE SMOOTH",
"151 700 OFFCURVE",
"154 702 OFFCURVE",
"162 702 CURVE SMOOTH",
"371 702 LINE SMOOTH",
"492 702 OFFCURVE",
"552 653 OFFCURVE",
"552 551 CURVE SMOOTH",
"552 439 OFFCURVE",
"480 395 OFFCURVE",
"337 395 CURVE SMOOTH"
);
}
);
};
layerId = "91AB5BCA-6A50-42DA-B2F7-8181BF189245";
paths = (
{
closed = 1;
nodes = (
"430 353 LINE",
"500 371 OFFCURVE",
"584 423 OFFCURVE",
"584 544 CURVE SMOOTH",
"584 663 OFFCURVE",
"502 723 OFFCURVE",
"362 723 CURVE SMOOTH",
"107 723 LINE",
"107 0 LINE",
"146 0 LINE",
"146 344 LINE",
"389 344 LINE",
"535 0 LINE",
"580 0 LINE"
);
},
{
closed = 1;
nodes = (
"146 385 LINE",
"146 683 LINE",
"361 683 LINE SMOOTH",
"479 683 OFFCURVE",
"542 640 OFFCURVE",
"542 537 CURVE SMOOTH",
"542 428 OFFCURVE",
"467 385 OFFCURVE",
"328 385 CURVE SMOOTH"
);
}
);
width = 658;
}
);
leftKerningGroup = N;
leftMetricsKey = N;
rightKerningGroup = R;
unicode = 0052;
},
{
glyphname = S;
lastChange = "2018-10-31 20:52:58 +0000";
layers = (
{
anchors = (
{
name = bottom;
position = "{364, 0}";
},
{
name = top;
position = "{364, 723}";
}
);
background = {
anchors = (
{
name = bottom;
position = "{362, 0}";
},
{
name = top;
position = "{362, 742}";
}
);
paths = (
{
closed = 1;
nodes = (
"515 529 OFFCURVE",
"521 528 OFFCURVE",
"531 535 CURVE SMOOTH",
"640 614 LINE SMOOTH",
"653 624 OFFCURVE",
"646 635 OFFCURVE",
"640 644 CURVE SMOOTH",
"594 709 OFFCURVE",
"481 752 OFFCURVE",
"362 752 CURVE SMOOTH",
"173 752 OFFCURVE",
"54 645 OFFCURVE",
"54 515 CURVE SMOOTH",
"54 410 OFFCURVE",
"130 323 OFFCURVE",
"250 293 CURVE SMOOTH",
"402 256 LINE SMOOTH",
"445 246 OFFCURVE",
"465 226 OFFCURVE",
"465 202 CURVE SMOOTH",
"465 165 OFFCURVE",
"417 144 OFFCURVE",
"344 144 CURVE SMOOTH",
"265 144 OFFCURVE",
"226 167 OFFCURVE",
"182 224 CURVE SMOOTH",
"174 234 OFFCURVE",
"162 238 OFFCURVE",
"144 226 CURVE SMOOTH",
"41 155 LINE SMOOTH",
"27 144 OFFCURVE",
"27 136 OFFCURVE",
"35 122 CURVE SMOOTH",
"82 43 OFFCURVE",
"215 -10 OFFCURVE",
"361 -10 CURVE SMOOTH",
"558 -10 OFFCURVE",
"681 86 OFFCURVE",
"681 234 CURVE SMOOTH",
"681 337 OFFCURVE",
"623 421 OFFCURVE",
"498 452 CURVE SMOOTH",
"332 495 LINE SMOOTH",
"282 507 OFFCURVE",
"268 528 OFFCURVE",
"268 546 CURVE SMOOTH",
"268 571 OFFCURVE",
"295 597 OFFCURVE",
"370 597 CURVE SMOOTH",
"448 597 OFFCURVE",
"477 569 OFFCURVE",
"501 543 CURVE SMOOTH"
);
}
);
};
guideLines = (
{
angle = 214.3236;
position = "{665, 302}";
}
);
layerId = "258ED206-D907-4350-8EBA-CBDDA1C16BF7";
paths = (
{
closed = 1;
nodes = (
"548 -10 OFFCURVE",
"684 82 OFFCURVE",
"684 205 CURVE SMOOTH",
"684 277 OFFCURVE",
"671 407 OFFCURVE",
"461 443 CURVE SMOOTH",
"348 462 LINE SMOOTH",
"285 473 OFFCURVE",
"269 492 OFFCURVE",
"269 525 CURVE SMOOTH",
"269 551 OFFCURVE",
"292 582 OFFCURVE",
"368 582 CURVE SMOOTH",
"436 582 OFFCURVE",
"476 560 OFFCURVE",
"482 504 CURVE",
"679 504 LINE",
"666 623 OFFCURVE",
"541 732 OFFCURVE",
"364 732 CURVE SMOOTH",
"197 732 OFFCURVE",
"59 647 OFFCURVE",
"61 501 CURVE SMOOTH",
"63 378 OFFCURVE",
"138 306 OFFCURVE",
"251 288 CURVE SMOOTH",
"364 269 LINE SMOOTH",
"425 259 OFFCURVE",
"485 249 OFFCURVE",
"485 205 CURVE SMOOTH",
"485 154 OFFCURVE",
"427 139 OFFCURVE",
"366 139 CURVE SMOOTH",
"298 139 OFFCURVE",
"253 169 OFFCURVE",
"242 220 CURVE",
"40 220 LINE",
"53 59 OFFCURVE",
"215 -10 OFFCURVE",
"367 -10 CURVE SMOOTH"
);
}
);
width = 724;
},
{
anchors = (
{
name = bottom;
position = "{326, 0}";
},
{
name = top;
position = "{332, 723}";
}
);
background = {
anchors = (
{
name = bottom;
position = "{345, 0}";
},
{
name = top;
position = "{341, 742}";
}
);
paths = (
{
closed = 1;
nodes = (
"528 620 OFFCURVE",
"530 618 OFFCURVE",
"535 622 CURVE SMOOTH",
"557 642 LINE SMOOTH",
"563 647 OFFCURVE",
"561 652 OFFCURVE",
"557 656 CURVE SMOOTH",
"500 716 OFFCURVE",
"433 752 OFFCURVE",
"340 752 CURVE SMOOTH",
"203 752 OFFCURVE",
"108 681 OFFCURVE",
"108 556 CURVE SMOOTH",
"108 492 OFFCURVE",
"138 421 OFFCURVE",
"246 380 CURVE SMOOTH",
"397 322 LINE SMOOTH",
"506 280 OFFCURVE",
"529 239 OFFCURVE",
"529 180 CURVE SMOOTH",
"529 73 OFFCURVE",
"450 32 OFFCURVE",
"331 32 CURVE SMOOTH",
"224 32 OFFCURVE",
"176 69 OFFCURVE",
"120 141 CURVE SMOOTH",
"115 147 OFFCURVE",
"110 148 OFFCURVE",
"100 141 CURVE SMOOTH",
"89 133 LINE SMOOTH",
"79 126 OFFCURVE",
"78 120 OFFCURVE",
"83 113 CURVE SMOOTH",
"142 29 OFFCURVE",
"220 -10 OFFCURVE",
"331 -10 CURVE SMOOTH",
"482 -10 OFFCURVE",
"575 60 OFFCURVE",
"575 182 CURVE SMOOTH",
"575 266 OFFCURVE",
"532 326 OFFCURVE",
"414 369 CURVE SMOOTH",
"276 419 LINE SMOOTH",
"169 458 OFFCURVE",
"154 518 OFFCURVE",
"154 557 CURVE SMOOTH",
"154 656 OFFCURVE",
"228 710 OFFCURVE",
"337 710 CURVE SMOOTH",
"421 710 OFFCURVE",
"482 674 OFFCURVE",
"522 627 CURVE SMOOTH"
);
}
);
};
layerId = "91AB5BCA-6A50-42DA-B2F7-8181BF189245";
paths = (
{
closed = 1;
nodes = (
"509 -10 OFFCURVE",
"595 75 OFFCURVE",
"595 177 CURVE SMOOTH",
"595 259 OFFCURVE",
"554 334 OFFCURVE",
"440 364 CURVE SMOOTH",
"286 404 LINE SMOOTH",
"172 434 OFFCURVE",
"135 471 OFFCURVE",
"135 533 CURVE SMOOTH",
"135 643 OFFCURVE",
"246 691 OFFCURVE",
"332 691 CURVE SMOOTH",
"430 691 OFFCURVE",
"521 650 OFFCURVE",
"541 532 CURVE",
"581 540 LINE",
"571 640 OFFCURVE",
"498 732 OFFCURVE",
"334 732 CURVE SMOOTH",
"188 732 OFFCURVE",
"92 646 OFFCURVE",
"92 532 CURVE SMOOTH",
"92 446 OFFCURVE",
"152 399 OFFCURVE",
"259 372 CURVE SMOOTH",
"420 332 LINE SMOOTH",
"513 309 OFFCURVE",
"552 252 OFFCURVE",
"552 175 CURVE SMOOTH",
"552 90 OFFCURVE",
"464 29 OFFCURVE",
"338 29 CURVE SMOOTH",
"232 29 OFFCURVE",
"133 78 OFFCURVE",
"111 176 CURVE",
"69 167 LINE",
"91 55 OFFCURVE",
"206 -10 OFFCURVE",
"338 -10 CURVE SMOOTH"
);
}
);
width = 674;
}
);
leftKerningGroup = S;
rightKerningGroup = S;
unicode = 0053;
},
{
glyphname = Schwa;
lastChange = "2019-04-14 20:08:12 +0000";
layers = (
{
background = {
paths = (
{
closed = 1;
nodes = (
"511 431 OFFCURVE",
"504 425 OFFCURVE",
"491 425 CURVE SMOOTH",
"58 425 LINE SMOOTH",
"36 425 OFFCURVE",
"35 414 OFFCURVE",
"35 392 CURVE SMOOTH",
"35 136 OFFCURVE",
"156 -10 OFFCURVE",
"389 -10 CURVE SMOOTH",
"582 -10 OFFCURVE",
"751 158 OFFCURVE",
"751 380 CURVE SMOOTH",
"751 599 OFFCURVE",
"614 752 OFFCURVE",
"392 752 CURVE SMOOTH",
"246 752 OFFCURVE",
"140 689 OFFCURVE",
"78 567 CURVE SMOOTH",
"70 551 OFFCURVE",
"71 542 OFFCURVE",
"83 536 CURVE SMOOTH",
"221 468 LINE SMOOTH",
"238 459 OFFCURVE",
"244 462 OFFCURVE",
"248 469 CURVE SMOOTH",
"294 544 OFFCURVE",
"332 578 OFFCURVE",
"394 578 CURVE SMOOTH",
"492 578 OFFCURVE",
"511 506 OFFCURVE",
"511 447 CURVE SMOOTH"
);
},
{
closed = 1;
nodes = (
"497 192 OFFCURVE",
"468 146 OFFCURVE",
"387 146 CURVE SMOOTH",
"319 146 OFFCURVE",
"278 201 OFFCURVE",
"278 267 CURVE SMOOTH",
"278 282 OFFCURVE",
"283 285 OFFCURVE",
"300 285 CURVE SMOOTH",
"509 284 LINE"
);
}
);
};
layerId = "258ED206-D907-4350-8EBA-CBDDA1C16BF7";
paths = (
{
closed = 1;
nodes = (
"509 420 OFFCURVE",
"502 414 OFFCURVE",
"490 414 CURVE SMOOTH",
"68 414 LINE SMOOTH",
"46 414 OFFCURVE",
"45 404 OFFCURVE",
"45 382 CURVE SMOOTH",
"45 133 OFFCURVE",
"163 -10 OFFCURVE",
"390 -10 CURVE SMOOTH",
"578 -10 OFFCURVE",
"743 154 OFFCURVE",
"743 371 CURVE SMOOTH",
"743 584 OFFCURVE",
"610 733 OFFCURVE",
"393 733 CURVE SMOOTH",
"251 733 OFFCURVE",
"147 672 OFFCURVE",
"87 553 CURVE SMOOTH",
"79 537 OFFCURVE",
"80 528 OFFCURVE",
"92 523 CURVE SMOOTH",
"226 456 LINE SMOOTH",
"243 448 OFFCURVE",
"249 450 OFFCURVE",
"253 457 CURVE SMOOTH",
"298 530 OFFCURVE",
"335 564 OFFCURVE",
"395 564 CURVE SMOOTH",
"491 564 OFFCURVE",
"509 493 OFFCURVE",
"509 436 CURVE SMOOTH"
);
},
{
closed = 1;
nodes = (
"496 187 OFFCURVE",
"467 142 OFFCURVE",
"388 142 CURVE SMOOTH",
"322 142 OFFCURVE",
"282 196 OFFCURVE",
"282 260 CURVE SMOOTH",
"282 275 OFFCURVE",
"287 278 OFFCURVE",
"303 278 CURVE SMOOTH",
"507 277 LINE"
);
}
);
width = 788;
},
{
background = {
paths = (
{
closed = 1;
nodes = (
"621 381 OFFCURVE",
"620 380 OFFCURVE",
"615 380 CURVE SMOOTH",
"80 380 LINE SMOOTH",
"72 380 OFFCURVE",
"72 375 OFFCURVE",
"72 369 CURVE SMOOTH",
"72 174 OFFCURVE",
"138 -10 OFFCURVE",
"373 -10 CURVE SMOOTH",
"602 -10 OFFCURVE",
"673 180 OFFCURVE",
"673 366 CURVE SMOOTH",
"673 531 OFFCURVE",
"623 752 OFFCURVE",
"373 752 CURVE SMOOTH",
"145 752 OFFCURVE",
"101 560 OFFCURVE",
"86 522 CURVE SMOOTH",
"84 517 OFFCURVE",
"83 514 OFFCURVE",
"87 513 CURVE SMOOTH",
"125 500 LINE SMOOTH",
"129 499 OFFCURVE",
"131 498 OFFCURVE",
"132 500 CURVE SMOOTH",
"146 531 OFFCURVE",
"164 709 OFFCURVE",
"373 709 CURVE SMOOTH",
"591 709 OFFCURVE",
"621 504 OFFCURVE",
"621 386 CURVE SMOOTH"
);
},
{
closed = 1;
nodes = (
"618 191 OFFCURVE",
"569 33 OFFCURVE",
"373 33 CURVE SMOOTH",
"176 33 OFFCURVE",
"124 192 OFFCURVE",
"124 332 CURVE SMOOTH",
"124 336 OFFCURVE",
"126 338 OFFCURVE",
"132 338 CURVE SMOOTH",
"621 338 LINE"
);
}
);
};
layerId = "91AB5BCA-6A50-42DA-B2F7-8181BF189245";
paths = (
{
closed = 1;
nodes = (
"605 371 OFFCURVE",
"604 371 OFFCURVE",
"599 371 CURVE SMOOTH",
"77 371 LINE SMOOTH",
"69 371 OFFCURVE",
"69 366 OFFCURVE",
"69 360 CURVE SMOOTH",
"69 170 OFFCURVE",
"134 -10 OFFCURVE",
"363 -10 CURVE SMOOTH",
"586 -10 OFFCURVE",
"655 176 OFFCURVE",
"655 357 CURVE SMOOTH",
"655 518 OFFCURVE",
"607 733 OFFCURVE",
"363 733 CURVE SMOOTH",
"141 733 OFFCURVE",
"98 546 OFFCURVE",
"83 509 CURVE SMOOTH",
"81 504 OFFCURVE",
"80 501 OFFCURVE",
"84 500 CURVE SMOOTH",
"121 488 LINE SMOOTH",
"125 487 OFFCURVE",
"127 486 OFFCURVE",
"128 488 CURVE SMOOTH",
"142 518 OFFCURVE",
"159 691 OFFCURVE",
"363 691 CURVE SMOOTH",
"575 691 OFFCURVE",
"605 491 OFFCURVE",
"605 376 CURVE SMOOTH"
);
},
{
closed = 1;
nodes = (
"602 186 OFFCURVE",
"554 32 OFFCURVE",
"363 32 CURVE SMOOTH",
"171 32 OFFCURVE",
"120 187 OFFCURVE",
"120 324 CURVE SMOOTH",
"120 328 OFFCURVE",
"122 330 OFFCURVE",
"128 330 CURVE SMOOTH",
"605 330 LINE"
);
}
);
width = 724;
}
);
leftKerningGroup = e;
leftMetricsKey = O;
rightKerningGroup = e;
rightMetricsKey = O;
unicode = 018F;
},
{
glyphname = T;
lastChange = "2019-04-14 21:01:37 +0000";
layers = (
{
anchors = (
{
name = bottom;
position = "{328, 0}";
},
{
name = top;
position = "{328, 723}";
}
);
background = {
anchors = (
{
name = bottom;
position = "{329, 0}";
},
{
name = top;
position = "{329, 742}";
}
);
paths = (
{
closed = 1;
nodes = (
"5 586 OFFCURVE",
"14 581 OFFCURVE",
"28 581 CURVE SMOOTH",
"204 581 LINE SMOOTH",
"212 581 OFFCURVE",
"215 577 OFFCURVE",
"215 567 CURVE SMOOTH",
"215 20 LINE SMOOTH",
"215 7 OFFCURVE",
"222 0 OFFCURVE",
"233 0 CURVE SMOOTH",
"423 0 LINE SMOOTH",
"434 0 OFFCURVE",
"442 7 OFFCURVE",
"442 22 CURVE SMOOTH",
"442 571 LINE SMOOTH",
"442 578 OFFCURVE",
"446 581 OFFCURVE",
"454 581 CURVE SMOOTH",
"631 581 LINE SMOOTH",
"644 581 OFFCURVE",
"653 586 OFFCURVE",
"653 600 CURVE SMOOTH",
"653 719 LINE SMOOTH",
"653 732 OFFCURVE",
"645 742 OFFCURVE",
"628 742 CURVE SMOOTH",
"30 742 LINE SMOOTH",
"13 742 OFFCURVE",
"5 732 OFFCURVE",
"5 719 CURVE SMOOTH",
"5 600 LINE SMOOTH"
);
}
);
};
layerId = "258ED206-D907-4350-8EBA-CBDDA1C16BF7";
paths = (
{
closed = 1;
nodes = (
"221 552 LINE",
"221 0 LINE",
"416 0 LINE",
"416 552 LINE",
"623 552 LINE",
"623 723 LINE",
"16 723 LINE",
"16 552 LINE"
);
}
);
width = 639;
},
{
anchors = (
{
name = bottom;
position = "{283, 2}";
},
{
name = top;
position = "{283, 723}";
}
);
background = {
anchors = (
{
name = bottom;
position = "{291, 0}";
},
{
name = top;
position = "{291, 742}";
}
);
paths = (
{
closed = 1;
nodes = (
"15 703 OFFCURVE",
"17 702 OFFCURVE",
"23 702 CURVE SMOOTH",
"257 702 LINE SMOOTH",
"265 702 OFFCURVE",
"267 701 OFFCURVE",
"267 693 CURVE SMOOTH",
"267 10 LINE SMOOTH",
"267 2 OFFCURVE",
"269 0 OFFCURVE",
"277 0 CURVE SMOOTH",
"304 0 LINE SMOOTH",
"311 0 OFFCURVE",
"313 2 OFFCURVE",
"313 10 CURVE SMOOTH",
"313 693 LINE SMOOTH",
"313 701 OFFCURVE",
"315 702 OFFCURVE",
"323 702 CURVE SMOOTH",
"536 702 LINE SMOOTH",
"542 702 OFFCURVE",
"544 703 OFFCURVE",
"544 709 CURVE SMOOTH",
"544 735 LINE SMOOTH",
"544 740 OFFCURVE",
"542 742 OFFCURVE",
"537 742 CURVE SMOOTH",
"22 742 LINE SMOOTH",
"17 742 OFFCURVE",
"15 740 OFFCURVE",
"15 735 CURVE SMOOTH",
"15 709 LINE SMOOTH"
);
}
);
};
layerId = "91AB5BCA-6A50-42DA-B2F7-8181BF189245";
paths = (
{
closed = 1;
nodes = (
"262 683 LINE",
"262 0 LINE",
"301 0 LINE",
"301 683 LINE",
"529 683 LINE",
"529 723 LINE",
"14 723 LINE",
"14 683 LINE"
);
}
);
width = 543;
}
);
leftKerningGroup = T;
rightKerningGroup = T;
unicode = 0054;
},
{
glyphname = Tbar;
lastChange = "2019-04-14 20:08:20 +0000";
layers = (
{
background = {
components = (
{
name = T;
transform = "{1, 0, 0, 1, -22, 0}";
}
);
paths = (
{
closed = 1;
nodes = (
"532 414 OFFCURVE",
"525 422 OFFCURVE",
"514 422 CURVE SMOOTH",
"113 422 LINE SMOOTH",
"101 422 OFFCURVE",
"94 414 OFFCURVE",
"94 399 CURVE SMOOTH",
"94 306 LINE SMOOTH",
"94 289 OFFCURVE",
"100 281 OFFCURVE",
"120 281 CURVE SMOOTH",
"499 281 LINE SMOOTH",
"522 281 OFFCURVE",
"532 289 OFFCURVE",
"532 309 CURVE SMOOTH",
"532 402 LINE SMOOTH"
);
}
);
};
components = (
{
name = T;
}
);
layerId = "258ED206-D907-4350-8EBA-CBDDA1C16BF7";
paths = (
{
closed = 1;
nodes = (
"102 411 LINE",
"102 274 LINE",
"529 274 LINE",
"529 411 LINE"
);
}
);
width = 639;
},
{
background = {
components = (
{
name = T;
transform = "{1, 0, 0, 1, 4, 0}";
}
);
guideLines = (
{
angle = 90;
position = "{179, 188}";
showMeasurement = 1;
}
);
paths = (
{
closed = 1;
nodes = (
"508 399 OFFCURVE",
"506 402 OFFCURVE",
"501 402 CURVE SMOOTH",
"149 402 LINE SMOOTH",
"144 402 OFFCURVE",
"142 399 OFFCURVE",
"142 393 CURVE SMOOTH",
"142 370 LINE SMOOTH",
"142 363 OFFCURVE",
"144 360 OFFCURVE",
"152 360 CURVE SMOOTH",
"495 360 LINE SMOOTH",
"504 360 OFFCURVE",
"508 363 OFFCURVE",
"508 371 CURVE SMOOTH",
"508 394 LINE SMOOTH"
);
}
);
};
components = (
{
name = T;
}
);
guideLines = (
{
angle = 90;
position = "{233, 175}";
showMeasurement = 1;
}
);
layerId = "91AB5BCA-6A50-42DA-B2F7-8181BF189245";
paths = (
{
closed = 1;
nodes = (
"137 392 LINE",
"137 351 LINE",
"494 351 LINE",
"494 392 LINE"
);
}
);
width = 543;
}
);
leftKerningGroup = T;
leftMetricsKey = T;
rightKerningGroup = T;
rightMetricsKey = T;
unicode = 0166;
},
{
glyphname = U;
lastChange = "2019-04-14 21:05:24 +0000";
layers = (
{
anchors = (
{
name = bottom;
position = "{381, 0}";
},
{
name = horn;
position = "{659, 547}";
},
{
name = ogonek;
position = "{460, 12}";
},
{
name = top;
position = "{381, 723}";
}
);
background = {
anchors = (
{
name = ogonek;
position = "{476, 10}";
},
{
name = top;
position = "{381, 742}";
}
);
paths = (
{
closed = 1;
nodes = (
"684 721 LINE SMOOTH",
"684 734 OFFCURVE",
"678 742 OFFCURVE",
"666 742 CURVE SMOOTH",
"516 742 LINE SMOOTH",
"504 742 OFFCURVE",
"497 734 OFFCURVE",
"497 719 CURVE SMOOTH",
"497 292 LINE SMOOTH",
"497 181 OFFCURVE",
"443 149 OFFCURVE",
"381 149 CURVE SMOOTH",
"313 149 OFFCURVE",
"271 187 OFFCURVE",
"271 289 CURVE SMOOTH",
"271 721 LINE SMOOTH",
"271 734 OFFCURVE",
"265 742 OFFCURVE",
"253 742 CURVE SMOOTH",
"63 742 LINE SMOOTH",
"52 742 OFFCURVE",
"44 734 OFFCURVE",
"44 719 CURVE SMOOTH",
"44 313 LINE SMOOTH",
"44 104 OFFCURVE",
"125 -10 OFFCURVE",
"364 -10 CURVE SMOOTH",
"555 -10 OFFCURVE",
"684 62 OFFCURVE",
"684 293 CURVE SMOOTH"
);
}
);
};
layerId = "258ED206-D907-4350-8EBA-CBDDA1C16BF7";
paths = (
{
closed = 1;
nodes = (
"693 723 LINE",
"496 723 LINE",
"496 291 LINE SMOOTH",
"496 191 OFFCURVE",
"441 153 OFFCURVE",
"381 153 CURVE SMOOTH",
"320 153 OFFCURVE",
"266 191 OFFCURVE",
"266 291 CURVE SMOOTH",
"266 723 LINE",
"69 723 LINE",
"69 299 LINE SMOOTH",
"69 115 OFFCURVE",
"148 -10 OFFCURVE",
"381 -10 CURVE SMOOTH",
"614 -10 OFFCURVE",
"693 115 OFFCURVE",
"693 299 CURVE SMOOTH"
);
}
);
width = 748;
},
{
anchors = (
{
name = bottom;
position = "{345, 2}";
},
{
name = horn;
position = "{571, 606}";
},
{
name = ogonek;
position = "{416, 9}";
},
{
name = top;
position = "{348, 723}";
}
);
background = {
anchors = (
{
name = ogonek;
position = "{427, 9}";
},
{
name = top;
position = "{359, 742}";
}
);
paths = (
{
closed = 1;
nodes = (
"602 733 LINE SMOOTH",
"602 739 OFFCURVE",
"600 742 OFFCURVE",
"594 742 CURVE SMOOTH",
"570 742 LINE SMOOTH",
"564 742 OFFCURVE",
"562 739 OFFCURVE",
"562 733 CURVE SMOOTH",
"562 229 LINE SMOOTH",
"562 97 OFFCURVE",
"495 32 OFFCURVE",
"357 32 CURVE SMOOTH",
"221 32 OFFCURVE",
"154 96 OFFCURVE",
"154 226 CURVE SMOOTH",
"154 732 LINE SMOOTH",
"154 740 OFFCURVE",
"152 742 OFFCURVE",
"144 742 CURVE SMOOTH",
"116 742 LINE SMOOTH",
"110 742 OFFCURVE",
"108 739 OFFCURVE",
"108 731 CURVE SMOOTH",
"108 245 LINE SMOOTH",
"108 71 OFFCURVE",
"187 -10 OFFCURVE",
"355 -10 CURVE SMOOTH",
"521 -10 OFFCURVE",
"602 69 OFFCURVE",
"602 230 CURVE SMOOTH"
);
}
);
};
layerId = "91AB5BCA-6A50-42DA-B2F7-8181BF189245";
paths = (
{
closed = 1;
nodes = (
"586 723 LINE",
"547 723 LINE",
"547 222 LINE SMOOTH",
"547 94 OFFCURVE",
"480 28 OFFCURVE",
"346 28 CURVE SMOOTH",
"213 28 OFFCURVE",
"150 96 OFFCURVE",
"150 222 CURVE SMOOTH",
"150 723 LINE",
"107 723 LINE",
"107 239 LINE SMOOTH",
"107 69 OFFCURVE",
"182 -10 OFFCURVE",
"346 -10 CURVE SMOOTH",
"507 -10 OFFCURVE",
"586 67 OFFCURVE",
"586 224 CURVE SMOOTH"
);
}
);
width = 693;
}
);
leftKerningGroup = U;
rightKerningGroup = U;
unicode = 0055;
},
{
glyphname = V;
lastChange = "2019-04-14 21:05:43 +0000";
layers = (
{
background = {
paths = (
{
closed = 1;
nodes = (
"542 742 LINE SMOOTH",
"530 742 OFFCURVE",
"519 734 OFFCURVE",
"516 721 CURVE SMOOTH",
"391 283 LINE SMOOTH",
"388 273 OFFCURVE",
"384 273 OFFCURVE",
"381 282 CURVE SMOOTH",
"247 721 LINE SMOOTH",
"243 734 OFFCURVE",
"234 742 OFFCURVE",
"222 742 CURVE SMOOTH",
"29 742 LINE SMOOTH",
"13 742 OFFCURVE",
"4 728 OFFCURVE",
"10 713 CURVE SMOOTH",
"242 25 LINE SMOOTH",
"247 8 OFFCURVE",
"259 0 OFFCURVE",
"279 0 CURVE SMOOTH",
"441 0 LINE SMOOTH",
"461 0 OFFCURVE",
"473 8 OFFCURVE",
"478 25 CURVE SMOOTH",
"710 713 LINE SMOOTH",
"715 728 OFFCURVE",
"707 742 OFFCURVE",
"691 742 CURVE SMOOTH"
);
}
);
};
guideLines = (
{
angle = -108.62;
position = "{361, 211}";
}
);
layerId = "258ED206-D907-4350-8EBA-CBDDA1C16BF7";
paths = (
{
closed = 1;
nodes = (
"529 723 LINE",
"362 228 LINE",
"194 723 LINE",
"11 723 LINE",
"255 0 LINE",
"469 0 LINE",
"713 723 LINE"
);
}
);
width = 724;
},
{
background = {
paths = (
{
closed = 1;
nodes = (
"571 742 LINE SMOOTH",
"565 742 OFFCURVE",
"562 740 OFFCURVE",
"560 735 CURVE SMOOTH",
"316 65 LINE SMOOTH",
"311 51 OFFCURVE",
"305 51 OFFCURVE",
"300 64 CURVE SMOOTH",
"63 734 LINE SMOOTH",
"61 740 OFFCURVE",
"58 742 OFFCURVE",
"50 742 CURVE SMOOTH",
"27 742 LINE SMOOTH",
"20 742 OFFCURVE",
"17 738 OFFCURVE",
"19 732 CURVE SMOOTH",
"274 10 LINE SMOOTH",
"276 3 OFFCURVE",
"282 0 OFFCURVE",
"293 0 CURVE SMOOTH",
"325 0 LINE SMOOTH",
"334 0 OFFCURVE",
"338 3 OFFCURVE",
"341 11 CURVE SMOOTH",
"603 733 LINE SMOOTH",
"605 738 OFFCURVE",
"602 742 OFFCURVE",
"596 742 CURVE SMOOTH"
);
}
);
};
layerId = "91AB5BCA-6A50-42DA-B2F7-8181BF189245";
paths = (
{
closed = 1;
nodes = (
"548 723 LINE",
"299 41 LINE",
"57 723 LINE",
"14 723 LINE",
"270 0 LINE",
"328 0 LINE",
"590 723 LINE"
);
}
);
width = 603;
}
);
leftKerningGroup = V;
rightKerningGroup = V;
unicode = 0056;
},
{
glyphname = W;
lastChange = "2019-04-14 21:05:52 +0000";
layers = (
{
anchors = (
{
name = top;
position = "{492, 723}";
}
);
background = {
anchors = (
{
name = top;
position = "{516, 742}";
}
);
paths = (
{
closed = 1;
nodes = (
"896 742 LINE SMOOTH",
"875 742 OFFCURVE",
"867 734 OFFCURVE",
"864 721 CURVE SMOOTH",
"762 339 LINE SMOOTH",
"760 331 OFFCURVE",
"753 333 OFFCURVE",
"751 341 CURVE SMOOTH",
"641 721 LINE SMOOTH",
"637 734 OFFCURVE",
"630 742 OFFCURVE",
"609 742 CURVE SMOOTH",
"469 742 LINE SMOOTH",
"448 742 OFFCURVE",
"440 734 OFFCURVE",
"437 721 CURVE SMOOTH",
"332 346 LINE SMOOTH",
"329 335 OFFCURVE",
"324 335 OFFCURVE",
"320 350 CURVE SMOOTH",
"214 721 LINE SMOOTH",
"210 734 OFFCURVE",
"203 742 OFFCURVE",
"182 742 CURVE SMOOTH",
"17 742 LINE SMOOTH",
"-9 742 OFFCURVE",
"-19 725 OFFCURVE",
"-13 702 CURVE SMOOTH",
"191 25 LINE SMOOTH",
"197 8 OFFCURVE",
"207 0 OFFCURVE",
"227 0 CURVE SMOOTH",
"370 0 LINE SMOOTH",
"391 0 OFFCURVE",
"401 8 OFFCURVE",
"406 25 CURVE SMOOTH",
"509 375 LINE SMOOTH",
"516 395 OFFCURVE",
"521 393 OFFCURVE",
"525 377 CURVE SMOOTH",
"629 25 LINE SMOOTH",
"634 8 OFFCURVE",
"645 0 OFFCURVE",
"665 0 CURVE SMOOTH",
"803 0 LINE SMOOTH",
"823 0 OFFCURVE",
"833 8 OFFCURVE",
"839 25 CURVE SMOOTH",
"1042 702 LINE SMOOTH",
"1048 725 OFFCURVE",
"1038 742 OFFCURVE",
"1012 742 CURVE SMOOTH"
);
}
);
};
guideLines = (
{
angle = -73.94;
position = "{215, 670}";
},
{
angle = 74.3834;
position = "{418, 670}";
}
);
layerId = "258ED206-D907-4350-8EBA-CBDDA1C16BF7";
paths = (
{
closed = 1;
nodes = (
"780 723 LINE",
"672 335 LINE",
"560 723 LINE",
"424 723 LINE",
"316 335 LINE",
"204 723 LINE",
"16 723 LINE",
"234 0 LINE",
"377 0 LINE",
"492 393 LINE",
"607 0 LINE",
"752 0 LINE",
"968 723 LINE"
);
}
);
width = 984;
},
{
anchors = (
{
name = top;
position = "{469, 723}";
}
);
background = {
anchors = (
{
name = top;
position = "{488, 742}";
}
);
guideLines = (
{
position = "{22, 125}";
showMeasurement = 1;
}
);
paths = (
{
closed = 1;
nodes = (
"910 742 LINE SMOOTH",
"904 742 OFFCURVE",
"899 740 OFFCURVE",
"898 735 CURVE SMOOTH",
"709 72 LINE SMOOTH",
"705 58 OFFCURVE",
"701 58 OFFCURVE",
"697 71 CURVE SMOOTH",
"512 734 LINE SMOOTH",
"510 740 OFFCURVE",
"508 742 OFFCURVE",
"500 742 CURVE SMOOTH",
"475 742 LINE SMOOTH",
"466 742 OFFCURVE",
"463 738 OFFCURVE",
"462 735 CURVE SMOOTH",
"273 72 LINE SMOOTH",
"269 58 OFFCURVE",
"265 58 OFFCURVE",
"261 71 CURVE SMOOTH",
"76 734 LINE SMOOTH",
"74 740 OFFCURVE",
"72 742 OFFCURVE",
"64 742 CURVE SMOOTH",
"39 742 LINE SMOOTH",
"32 742 OFFCURVE",
"29 738 OFFCURVE",
"31 732 CURVE SMOOTH",
"233 10 LINE SMOOTH",
"235 3 OFFCURVE",
"241 0 OFFCURVE",
"251 0 CURVE SMOOTH",
"283 0 LINE SMOOTH",
"293 0 OFFCURVE",
"297 3 OFFCURVE",
"299 11 CURVE SMOOTH",
"484 658 LINE SMOOTH",
"485 662 OFFCURVE",
"487 662 OFFCURVE",
"488 658 CURVE SMOOTH",
"669 10 LINE SMOOTH",
"671 3 OFFCURVE",
"677 0 OFFCURVE",
"687 0 CURVE SMOOTH",
"719 0 LINE SMOOTH",
"729 0 OFFCURVE",
"733 3 OFFCURVE",
"735 11 CURVE SMOOTH",
"942 733 LINE SMOOTH",
"943 738 OFFCURVE",
"941 742 OFFCURVE",
"935 742 CURVE SMOOTH"
);
}
);
};
guideLines = (
{
position = "{95, 116}";
showMeasurement = 1;
}
);
layerId = "91AB5BCA-6A50-42DA-B2F7-8181BF189245";
paths = (
{
closed = 1;
nodes = (
"869 723 LINE",
"677 49 LINE",
"488 723 LINE",
"449 723 LINE",
"257 49 LINE",
"72 723 LINE",
"28 723 LINE",
"231 0 LINE",
"283 0 LINE",
"468 648 LINE",
"649 0 LINE",
"704 0 LINE",
"912 723 LINE"
);
}
);
width = 940;
}
);
leftKerningGroup = W;
rightKerningGroup = W;
unicode = 0057;
},
{
glyphname = X;
lastChange = "2018-10-31 20:52:58 +0000";
layers = (
{
background = {
paths = (
{
closed = 1;
nodes = (
"489 403 LINE",
"711 742 LINE",
"494 742 LINE",
"380 541 LINE",
"266 742 LINE",
"11 742 LINE",
"247 374 LINE",
"38 51 LINE SMOOTH",
"12 11 OFFCURVE",
"23 0 OFFCURVE",
"51 0 CURVE SMOOTH",
"225 0 LINE",
"358 233 LINE",
"494 0 LINE",
"704 0 LINE SMOOTH",
"732 0 OFFCURVE",
"743 12 OFFCURVE",
"718 51 CURVE SMOOTH"
);
}
);
};
layerId = "258ED206-D907-4350-8EBA-CBDDA1C16BF7";
paths = (
{
closed = 1;
nodes = (
"474 393 LINE",
"690 723 LINE",
"486 723 LINE",
"375 527 LINE",
"263 723 LINE",
"22 723 LINE",
"252 365 LINE",
"16 0 LINE",
"223 0 LINE",
"353 227 LINE",
"486 0 LINE",
"729 0 LINE"
);
}
);
width = 745;
},
{
background = {
guideLines = (
{
angle = 90;
position = "{42, 437}";
},
{
angle = 90;
position = "{553, 372}";
},
{
position = "{8, 716}";
showMeasurement = 1;
},
{
position = "{2, 32}";
showMeasurement = 1;
},
{
position = "{72, 454}";
showMeasurement = 1;
},
{
position = "{70, 290}";
showMeasurement = 1;
},
{
angle = 236.602;
position = "{285, 374}";
},
{
angle = 123.344;
position = "{342, 374}";
},
{
angle = 56.5817;
position = "{330, 370}";
},
{
angle = 123.4;
position = "{295, 370}";
}
);
paths = (
{
closed = 1;
nodes = (
"344 374 LINE SMOOTH",
"340 380 OFFCURVE",
"341 384 OFFCURVE",
"345 390 CURVE SMOOTH",
"579 736 LINE SMOOTH",
"581 739 OFFCURVE",
"581 742 OFFCURVE",
"577 742 CURVE SMOOTH",
"536 742 LINE SMOOTH",
"532 742 OFFCURVE",
"530 741 OFFCURVE",
"528 738 CURVE SMOOTH",
"321 431 LINE SMOOTH",
"314 421 OFFCURVE",
"310 422 OFFCURVE",
"304 430 CURVE SMOOTH",
"97 738 LINE SMOOTH",
"95 741 OFFCURVE",
"94 742 OFFCURVE",
"88 742 CURVE SMOOTH",
"49 742 LINE SMOOTH",
"45 742 OFFCURVE",
"44 737 OFFCURVE",
"46 734 CURVE SMOOTH",
"278 391 LINE SMOOTH",
"283 383 OFFCURVE",
"284 377 OFFCURVE",
"279 370 CURVE SMOOTH",
"37 10 LINE SMOOTH",
"32 2 OFFCURVE",
"34 0 OFFCURVE",
"40 0 CURVE SMOOTH",
"76 0 LINE SMOOTH",
"79 0 OFFCURVE",
"82 1 OFFCURVE",
"84 4 CURVE SMOOTH",
"301 324 LINE SMOOTH",
"311 339 OFFCURVE",
"315 338 OFFCURVE",
"322 327 CURVE SMOOTH",
"542 4 LINE SMOOTH",
"544 1 OFFCURVE",
"545 0 OFFCURVE",
"549 0 CURVE SMOOTH",
"585 0 LINE SMOOTH",
"591 0 OFFCURVE",
"595 2 OFFCURVE",
"589 10 CURVE SMOOTH"
);
}
);
};
guideLines = (
{
angle = 90;
position = "{113, 405}";
},
{
angle = 90;
position = "{563, 345}";
},
{
position = "{83, 664}";
showMeasurement = 1;
},
{
position = "{78, 29}";
showMeasurement = 1;
},
{
position = "{139, 421}";
showMeasurement = 1;
},
{
position = "{137, 269}";
showMeasurement = 1;
},
{
angle = 236.602;
position = "{327, 347}";
},
{
angle = 123.344;
position = "{376, 347}";
},
{
angle = 56.5817;
position = "{367, 343}";
},
{
angle = 123.4;
position = "{335, 343}";
}
);
layerId = "91AB5BCA-6A50-42DA-B2F7-8181BF189245";
paths = (
{
closed = 1;
nodes = (
"329 371 LINE",
"567 723 LINE",
"517 723 LINE",
"303 408 LINE",
"91 723 LINE",
"39 723 LINE",
"278 371 LINE",
"28 0 LINE",
"78 0 LINE",
"304 332 LINE",
"530 0 LINE",
"580 0 LINE"
);
}
);
width = 608;
}
);
leftKerningGroup = X;
rightKerningGroup = X;
unicode = 0058;
},
{
glyphname = Y;
lastChange = "2019-04-12 22:06:18 +0000";
layers = (
{
anchors = (
{
name = bottom;
position = "{358, 0}";
},
{
name = top;
position = "{383, 723}";
}
);
background = {
anchors = (
{
name = top;
position = "{382, 742}";
}
);
paths = (
{
closed = 1;
nodes = (
"555 742 LINE SMOOTH",
"536 742 OFFCURVE",
"529 738 OFFCURVE",
"521 721 CURVE SMOOTH",
"400 498 LINE SMOOTH",
"393 486 OFFCURVE",
"389 487 OFFCURVE",
"383 499 CURVE SMOOTH",
"260 721 LINE SMOOTH",
"251 737 OFFCURVE",
"246 742 OFFCURVE",
"226 742 CURVE SMOOTH",
"25 742 LINE SMOOTH",
"4 742 OFFCURVE",
"-3 730 OFFCURVE",
"7 714 CURVE SMOOTH",
"241 332 LINE SMOOTH",
"250 317 OFFCURVE",
"255 309 OFFCURVE",
"255 288 CURVE SMOOTH",
"255 25 LINE SMOOTH",
"255 8 OFFCURVE",
"261 0 OFFCURVE",
"281 0 CURVE SMOOTH",
"449 0 LINE SMOOTH",
"472 0 OFFCURVE",
"482 8 OFFCURVE",
"482 29 CURVE SMOOTH",
"482 275 LINE SMOOTH",
"482 317 OFFCURVE",
"483 327 OFFCURVE",
"492 341 CURVE SMOOTH",
"726 719 LINE SMOOTH",
"734 732 OFFCURVE",
"729 742 OFFCURVE",
"712 742 CURVE SMOOTH"
);
}
);
};
guideLines = (
{
angle = 58.823;
position = "{488, 670}";
}
);
layerId = "258ED206-D907-4350-8EBA-CBDDA1C16BF7";
paths = (
{
closed = 1;
nodes = (
"500 723 LINE",
"358 466 LINE",
"215 723 LINE",
"5 723 LINE",
"260 301 LINE",
"260 0 LINE",
"455 0 LINE",
"455 301 LINE",
"712 723 LINE"
);
}
);
width = 718;
},
{
anchors = (
{
name = bottom;
position = "{271, 0}";
},
{
name = top;
position = "{269, 725}";
}
);
background = {
anchors = (
{
name = top;
position = "{273, 742}";
}
);
paths = (
{
closed = 1;
nodes = (
"515 742 LINE SMOOTH",
"506 742 OFFCURVE",
"504 741 OFFCURVE",
"499 733 CURVE SMOOTH",
"290 374 LINE SMOOTH",
"282 361 OFFCURVE",
"275 360 OFFCURVE",
"266 376 CURVE SMOOTH",
"56 733 LINE SMOOTH",
"52 740 OFFCURVE",
"49 742 OFFCURVE",
"40 742 CURVE SMOOTH",
"17 742 LINE SMOOTH",
"7 742 OFFCURVE",
"5 737 OFFCURVE",
"9 730 CURVE SMOOTH",
"253 315 LINE SMOOTH",
"257 308 OFFCURVE",
"258 305 OFFCURVE",
"258 295 CURVE SMOOTH",
"258 11 LINE SMOOTH",
"258 4 OFFCURVE",
"261 0 OFFCURVE",
"270 0 CURVE SMOOTH",
"289 0 LINE SMOOTH",
"300 0 OFFCURVE",
"304 4 OFFCURVE",
"304 13 CURVE SMOOTH",
"304 306 LINE SMOOTH",
"304 316 OFFCURVE",
"304 320 OFFCURVE",
"308 326 CURVE SMOOTH",
"547 731 LINE SMOOTH",
"551 737 OFFCURVE",
"548 742 OFFCURVE",
"541 742 CURVE SMOOTH"
);
}
);
};
guideLines = (
{
angle = 239.8907;
position = "{228, 335}";
},
{
angle = -59.5603;
position = "{193, 328}";
}
);
layerId = "91AB5BCA-6A50-42DA-B2F7-8181BF189245";
paths = (
{
closed = 1;
nodes = (
"485 723 LINE",
"271 351 LINE",
"53 723 LINE",
"9 723 LINE",
"251 312 LINE",
"251 0 LINE",
"290 0 LINE",
"290 311 LINE",
"528 723 LINE"
);
}
);
width = 537;
}
);
leftKerningGroup = Y;
rightKerningGroup = Y;
unicode = 0059;
},
{
glyphname = Z;
lastChange = "2019-04-14 21:06:02 +0000";
layers = (
{
anchors = (
{
name = bottom;
position = "{358, 0}";
},
{
name = top;
position = "{381, 723}";
}
);
background = {
anchors = (
{
name = bottom;
position = "{356, 0}";
},
{
name = top;
position = "{380, 742}";
}
);
paths = (
{
closed = 1;
nodes = (
"686 0 LINE",
"686 166 LINE",
"345 166 LINE",
"692 654 LINE",
"692 742 LINE",
"68 742 LINE",
"68 577 LINE",
"375 577 LINE",
"35 91 LINE",
"35 0 LINE"
);
}
);
};
layerId = "258ED206-D907-4350-8EBA-CBDDA1C16BF7";
paths = (
{
closed = 1;
nodes = (
"660 0 LINE",
"660 162 LINE",
"318 162 LINE",
"666 638 LINE",
"666 723 LINE",
"77 723 LINE",
"77 563 LINE",
"386 563 LINE",
"45 89 LINE",
"45 0 LINE"
);
}
);
width = 706;
},
{
anchors = (
{
name = bottom;
position = "{305, 0}";
},
{
name = top;
position = "{298, 723}";
}
);
background = {
anchors = (
{
name = bottom;
position = "{314, 0}";
},
{
name = top;
position = "{307, 742}";
}
);
paths = (
{
closed = 1;
nodes = (
"546 0 LINE",
"546 40 LINE",
"112 40 LINE",
"546 715 LINE",
"546 742 LINE",
"67 742 LINE",
"67 702 LINE",
"488 702 LINE",
"57 28 LINE",
"57 0 LINE"
);
}
);
};
guideLines = (
{
angle = 237.1304;
position = "{462, 659}";
}
);
layerId = "91AB5BCA-6A50-42DA-B2F7-8181BF189245";
paths = (
{
closed = 1;
nodes = (
"531 0 LINE",
"531 39 LINE",
"104 39 LINE",
"531 693 LINE",
"531 723 LINE",
"64 723 LINE",
"64 684 LINE",
"480 684 LINE",
"55 31 LINE",
"55 0 LINE"
);
}
);
width = 586;
}
);
leftKerningGroup = Z;
rightKerningGroup = Z;
unicode = 005A;
},
{
glyphname = a;
lastChange = "2019-04-13 20:38:58 +0000";
layers = (
{
anchors = (
{
name = bottom;
position = "{293, 0}";
},
{
name = ogonek;
position = "{500, 10}";
},
{
name = top;
position = "{294, 517}";
}
);
background = {
anchors = (
{
name = ogonek;
position = "{494, 10}";
},
{
name = top;
position = "{282, 530}";
}
);
guideLines = (
{
angle = 90;
position = "{332, 102}";
}
);
paths = (
{
closed = 1;
nodes = (
"325 56 OFFCURVE",
"333 55 OFFCURVE",
"335 42 CURVE SMOOTH",
"336 35 LINE SMOOTH",
"339 16 OFFCURVE",
"344 0 OFFCURVE",
"362 0 CURVE SMOOTH",
"499 0 LINE SMOOTH",
"518 0 OFFCURVE",
"522 7 OFFCURVE",
"522 27 CURVE SMOOTH",
"522 375 LINE SMOOTH",
"522 473 OFFCURVE",
"467 540 OFFCURVE",
"282 540 CURVE SMOOTH",
"151 540 OFFCURVE",
"60 506 OFFCURVE",
"30 421 CURVE SMOOTH",
"21 396 OFFCURVE",
"27 391 OFFCURVE",
"37 389 CURVE SMOOTH",
"168 363 LINE SMOOTH",
"186 360 OFFCURVE",
"190 363 OFFCURVE",
"195 374 CURVE SMOOTH",
"212 411 OFFCURVE",
"245 421 OFFCURVE",
"273 421 CURVE SMOOTH",
"313 421 OFFCURVE",
"332 400 OFFCURVE",
"332 363 CURVE SMOOTH",
"332 346 LINE SMOOTH",
"332 334 OFFCURVE",
"322 332 OFFCURVE",
"317 332 CURVE SMOOTH",
"310 332 LINE SMOOTH",
"121 332 OFFCURVE",
"3 253 OFFCURVE",
"3 136 CURVE SMOOTH",
"3 53 OFFCURVE",
"63 -10 OFFCURVE",
"163 -10 CURVE SMOOTH",
"225 -10 OFFCURVE",
"272 12 OFFCURVE",
"308 42 CURVE SMOOTH"
);
},
{
closed = 1;
nodes = (
"332 171 LINE SMOOTH",
"332 156 OFFCURVE",
"321 145 OFFCURVE",
"309 135 CURVE SMOOTH",
"298 126 OFFCURVE",
"280 116 OFFCURVE",
"254 116 CURVE SMOOTH",
"218 116 OFFCURVE",
"197 135 OFFCURVE",
"197 163 CURVE SMOOTH",
"197 219 OFFCURVE",
"281 242 OFFCURVE",
"313 242 CURVE SMOOTH",
"317 242 LINE SMOOTH",
"329 242 OFFCURVE",
"332 236 OFFCURVE",
"332 224 CURVE SMOOTH"
);
}
);
};
guideLines = (
{
angle = 270;
position = "{329, 93}";
},
{
angle = 270;
position = "{294, 516}";
}
);
layerId = "258ED206-D907-4350-8EBA-CBDDA1C16BF7";
paths = (
{
closed = 1;
nodes = (
"276 -10 OFFCURVE",
"319 12 OFFCURVE",
"350 82 CURVE",
"367 0 LINE",
"528 0 LINE",
"528 366 LINE SMOOTH",
"528 461 OFFCURVE",
"474 527 OFFCURVE",
"294 527 CURVE SMOOTH",
"161 527 OFFCURVE",
"53 478 OFFCURVE",
"47 356 CURVE",
"205 356 LINE",
"221 391 OFFCURVE",
"258 400 OFFCURVE",
"285 401 CURVE SMOOTH",
"324 402 OFFCURVE",
"342 387 OFFCURVE",
"342 354 CURVE SMOOTH",
"342 332 LINE",
"302 332 LINE SMOOTH",
"114 332 OFFCURVE",
"27 267 OFFCURVE",
"27 155 CURVE SMOOTH",
"27 48 OFFCURVE",
"108 -10 OFFCURVE",
"206 -10 CURVE SMOOTH"
);
},
{
closed = 1;
nodes = (
"241 113 OFFCURVE",
"210 136 OFFCURVE",
"210 175 CURVE SMOOTH",
"210 226 OFFCURVE",
"280 240 OFFCURVE",
"311 240 CURVE SMOOTH",
"342 240 LINE",
"342 175 LINE",
"341 142 OFFCURVE",
"312 113 OFFCURVE",
"274 113 CURVE SMOOTH"
);
}
);
width = 574;
},
{
anchors = (
{
name = bottom;
position = "{270, 0}";
},
{
name = ogonek;
position = "{450, 14}";
},
{
name = top;
position = "{270, 517}";
}
);
background = {
anchors = (
{
name = ogonek;
position = "{463, 14}";
},
{
name = top;
position = "{278, 530}";
}
);
paths = (
{
closed = 1;
nodes = (
"425 78 OFFCURVE",
"429 77 OFFCURVE",
"430 70 CURVE SMOOTH",
"432 9 LINE SMOOTH",
"432 2 OFFCURVE",
"435 0 OFFCURVE",
"441 0 CURVE SMOOTH",
"459 0 LINE SMOOTH",
"465 0 OFFCURVE",
"469 2 OFFCURVE",
"469 10 CURVE SMOOTH",
"469 367 LINE SMOOTH",
"469 475 OFFCURVE",
"395 540 OFFCURVE",
"282 540 CURVE SMOOTH",
"187 540 OFFCURVE",
"120 493 OFFCURVE",
"78 431 CURVE SMOOTH",
"74 426 OFFCURVE",
"75 423 OFFCURVE",
"78 421 CURVE SMOOTH",
"102 406 LINE SMOOTH",
"106 403 OFFCURVE",
"108 405 OFFCURVE",
"112 410 CURVE SMOOTH",
"157 470 OFFCURVE",
"211 502 OFFCURVE",
"280 502 CURVE SMOOTH",
"370 502 OFFCURVE",
"429 448 OFFCURVE",
"429 363 CURVE SMOOTH",
"429 332 LINE SMOOTH",
"429 323 OFFCURVE",
"423 318 OFFCURVE",
"412 317 CURVE SMOOTH",
"307 308 LINE SMOOTH",
"143 294 OFFCURVE",
"60 236 OFFCURVE",
"60 135 CURVE SMOOTH",
"60 45 OFFCURVE",
"125 -10 OFFCURVE",
"230 -10 CURVE SMOOTH",
"304 -10 OFFCURVE",
"365 17 OFFCURVE",
"420 72 CURVE SMOOTH"
);
},
{
closed = 1;
nodes = (
"429 171 LINE SMOOTH",
"429 141 OFFCURVE",
"409 107 OFFCURVE",
"372 77 CURVE SMOOTH",
"334 47 OFFCURVE",
"285 28 OFFCURVE",
"236 28 CURVE SMOOTH",
"155 28 OFFCURVE",
"102 69 OFFCURVE",
"102 138 CURVE SMOOTH",
"102 215 OFFCURVE",
"169 261 OFFCURVE",
"326 273 CURVE SMOOTH",
"415 280 LINE SMOOTH",
"424 281 OFFCURVE",
"429 277 OFFCURVE",
"429 266 CURVE SMOOTH"
);
}
);
};
guideLines = (
{
position = "{370, 208}";
showMeasurement = 1;
}
);
hints = (
{
horizontal = 1;
place = "{3831, 181}";
type = Stem;
}
);
layerId = "91AB5BCA-6A50-42DA-B2F7-8181BF189245";
paths = (
{
closed = 1;
nodes = (
"299 -10 OFFCURVE",
"373 14 OFFCURVE",
"418 100 CURVE",
"420 0 LINE",
"456 0 LINE",
"456 358 LINE SMOOTH",
"456 463 OFFCURVE",
"379 527 OFFCURVE",
"269 527 CURVE SMOOTH",
"149 527 OFFCURVE",
"83 452 OFFCURVE",
"78 379 CURVE",
"120 379 LINE",
"131 450 OFFCURVE",
"192 489 OFFCURVE",
"267 489 CURVE SMOOTH",
"355 489 OFFCURVE",
"417 440 OFFCURVE",
"417 357 CURVE SMOOTH",
"417 307 LINE",
"298 303 LINE SMOOTH",
"126 297 OFFCURVE",
"57 248 OFFCURVE",
"57 132 CURVE SMOOTH",
"57 44 OFFCURVE",
"121 -10 OFFCURVE",
"223 -10 CURVE SMOOTH"
);
},
{
closed = 1;
nodes = (
"150 27 OFFCURVE",
"98 67 OFFCURVE",
"98 135 CURVE SMOOTH",
"98 225 OFFCURVE",
"152 263 OFFCURVE",
"317 266 CURVE SMOOTH",
"417 268 LINE",
"417 167 LINE SMOOTH",
"417 97 OFFCURVE",
"315 27 OFFCURVE",
"229 27 CURVE SMOOTH"
);
}
);
width = 538;
}
);
leftKerningGroup = a;
rightKerningGroup = n;
unicode = 0061;
},
{
glyphname = ae;
lastChange = "2019-04-14 20:09:09 +0000";
layers = (
{
anchors = (
{
name = top;
position = "{454, 517}";
}
);
background = {
anchors = (
{
name = top;
position = "{447, 530}";
}
);
paths = (
{
closed = 1;
nodes = (
"869 229 LINE SMOOTH",
"886 230 OFFCURVE",
"887 237 OFFCURVE",
"887 254 CURVE SMOOTH",
"887 435 OFFCURVE",
"772 540 OFFCURVE",
"615 540 CURVE SMOOTH",
"563 540 OFFCURVE",
"513 526 OFFCURVE",
"470 500 CURVE",
"432 525 OFFCURVE",
"373 539 OFFCURVE",
"284 540 CURVE SMOOTH",
"131 540 OFFCURVE",
"74 499 OFFCURVE",
"36 421 CURVE SMOOTH",
"31 410 OFFCURVE",
"34 391 OFFCURVE",
"43 389 CURVE SMOOTH",
"174 363 LINE SMOOTH",
"192 360 OFFCURVE",
"196 361 OFFCURVE",
"201 374 CURVE",
"218 411 OFFCURVE",
"251 421 OFFCURVE",
"279 421 CURVE SMOOTH",
"319 421 OFFCURVE",
"338 400 OFFCURVE",
"338 363 CURVE SMOOTH",
"338 346 LINE SMOOTH",
"338 334 OFFCURVE",
"328 332 OFFCURVE",
"320 332 CURVE",
"297 331 LINE SMOOTH",
"105 322 OFFCURVE",
"9 250 OFFCURVE",
"9 143 CURVE SMOOTH",
"9 52 OFFCURVE",
"69 -10 OFFCURVE",
"182 -10 CURVE SMOOTH",
"274 -10 OFFCURVE",
"339 12 OFFCURVE",
"400 71 CURVE SMOOTH",
"404 75 OFFCURVE",
"407 75 OFFCURVE",
"411 71 CURVE SMOOTH",
"461 20 OFFCURVE",
"535 -10 OFFCURVE",
"619 -10 CURVE SMOOTH",
"731 -10 OFFCURVE",
"799 17 OFFCURVE",
"871 118 CURVE",
"880 129 OFFCURVE",
"877 138 OFFCURVE",
"867 142 CURVE SMOOTH",
"776 179 LINE SMOOTH",
"763 184 OFFCURVE",
"760 183 OFFCURVE",
"755 178 CURVE SMOOTH",
"711 135 OFFCURVE",
"680 122 OFFCURVE",
"646 122 CURVE SMOOTH",
"588 122 OFFCURVE",
"543 151 OFFCURVE",
"543 212 CURVE SMOOTH",
"543 224 OFFCURVE",
"548 229 OFFCURVE",
"558 229 CURVE SMOOTH"
);
},
{
closed = 1;
nodes = (
"674 423 OFFCURVE",
"693 372 OFFCURVE",
"693 346 CURVE SMOOTH",
"693 334 OFFCURVE",
"689 332 OFFCURVE",
"676 332 CURVE SMOOTH",
"546 333 LINE",
"545 395 OFFCURVE",
"583 423 OFFCURVE",
"624 423 CURVE SMOOTH"
);
},
{
closed = 1;
nodes = (
"338 160 LINE SMOOTH",
"338 127 OFFCURVE",
"301 108 OFFCURVE",
"263 108 CURVE SMOOTH",
"224 108 OFFCURVE",
"203 127 OFFCURVE",
"203 156 CURVE SMOOTH",
"203 205 OFFCURVE",
"268 230 OFFCURVE",
"306 233 CURVE SMOOTH",
"320 234 LINE SMOOTH",
"332 234 OFFCURVE",
"338 228 OFFCURVE",
"338 216 CURVE SMOOTH"
);
}
);
};
layerId = "258ED206-D907-4350-8EBA-CBDDA1C16BF7";
paths = (
{
closed = 1;
nodes = (
"883 223 LINE",
"883 415 OFFCURVE",
"771 527 OFFCURVE",
"618 527 CURVE SMOOTH",
"568 527 OFFCURVE",
"519 513 OFFCURVE",
"477 488 CURVE",
"440 512 OFFCURVE",
"382 526 OFFCURVE",
"295 527 CURVE SMOOTH",
"139 527 OFFCURVE",
"79 477 OFFCURVE",
"40 383 CURVE",
"208 350 LINE",
"226 398 OFFCURVE",
"261 410 OFFCURVE",
"291 410 CURVE SMOOTH",
"330 410 OFFCURVE",
"348 390 OFFCURVE",
"348 354 CURVE SMOOTH",
"348 325 LINE",
"308 323 LINE SMOOTH",
"121 314 OFFCURVE",
"27 244 OFFCURVE",
"27 139 CURVE SMOOTH",
"27 51 OFFCURVE",
"86 -10 OFFCURVE",
"196 -10 CURVE SMOOTH",
"286 -10 OFFCURVE",
"349 12 OFFCURVE",
"409 69 CURVE SMOOTH",
"412 73 OFFCURVE",
"415 73 OFFCURVE",
"419 69 CURVE SMOOTH",
"468 20 OFFCURVE",
"540 -10 OFFCURVE",
"622 -10 CURVE SMOOTH",
"736 -10 OFFCURVE",
"806 20 OFFCURVE",
"880 132 CURVE",
"762 180 LINE",
"716 134 OFFCURVE",
"684 119 OFFCURVE",
"648 119 CURVE SMOOTH",
"592 119 OFFCURVE",
"548 152 OFFCURVE",
"548 223 CURVE"
);
},
{
closed = 1;
nodes = (
"676 412 OFFCURVE",
"694 354 OFFCURVE",
"694 324 CURVE",
"551 325 LINE",
"550 385 OFFCURVE",
"587 412 OFFCURVE",
"627 412 CURVE SMOOTH"
);
},
{
closed = 1;
nodes = (
"348 156 LINE SMOOTH",
"348 124 OFFCURVE",
"312 105 OFFCURVE",
"275 105 CURVE SMOOTH",
"237 105 OFFCURVE",
"217 124 OFFCURVE",
"217 152 CURVE SMOOTH",
"217 200 OFFCURVE",
"280 224 OFFCURVE",
"317 227 CURVE SMOOTH",
"348 229 LINE"
);
}
);
width = 910;
},
{
anchors = (
{
name = top;
position = "{452, 517}";
}
);
background = {
anchors = (
{
name = top;
position = "{465, 530}";
}
);
paths = (
{
closed = 1;
nodes = (
"875 254 LINE SMOOTH",
"889 254 OFFCURVE",
"893 261 OFFCURVE",
"893 274 CURVE SMOOTH",
"893 444 OFFCURVE",
"801 540 OFFCURVE",
"664 540 CURVE SMOOTH",
"570 540 OFFCURVE",
"498 500 OFFCURVE",
"458 421 CURVE",
"438 501 OFFCURVE",
"382 540 OFFCURVE",
"283 540 CURVE SMOOTH",
"198 540 OFFCURVE",
"121 500 OFFCURVE",
"78 431 CURVE SMOOTH",
"75 426 OFFCURVE",
"75 423 OFFCURVE",
"78 421 CURVE SMOOTH",
"100 406 LINE SMOOTH",
"104 403 OFFCURVE",
"106 404 OFFCURVE",
"111 410 CURVE SMOOTH",
"157 470 OFFCURVE",
"211 502 OFFCURVE",
"275 502 CURVE SMOOTH",
"375 502 OFFCURVE",
"429 448 OFFCURVE",
"429 363 CURVE SMOOTH",
"429 332 LINE SMOOTH",
"429 323 OFFCURVE",
"423 318 OFFCURVE",
"411 317 CURVE SMOOTH",
"299 308 LINE SMOOTH",
"136 294 OFFCURVE",
"60 234 OFFCURVE",
"60 136 CURVE SMOOTH",
"60 45 OFFCURVE",
"122 -10 OFFCURVE",
"226 -10 CURVE SMOOTH",
"357 -10 OFFCURVE",
"415 62 OFFCURVE",
"451 108 CURVE SMOOTH",
"453 111 OFFCURVE",
"454 111 OFFCURVE",
"456 108 CURVE SMOOTH",
"485 65 OFFCURVE",
"539 -10 OFFCURVE",
"661 -10 CURVE SMOOTH",
"758 -10 OFFCURVE",
"839 37 OFFCURVE",
"873 100 CURVE SMOOTH",
"876 106 OFFCURVE",
"875 108 OFFCURVE",
"872 110 CURVE SMOOTH",
"850 125 LINE SMOOTH",
"845 128 OFFCURVE",
"844 127 OFFCURVE",
"839 121 CURVE SMOOTH",
"810 81 OFFCURVE",
"767 28 OFFCURVE",
"663 28 CURVE SMOOTH",
"551 28 OFFCURVE",
"463 134 OFFCURVE",
"463 228 CURVE SMOOTH",
"463 249 OFFCURVE",
"466 253 OFFCURVE",
"483 253 CURVE SMOOTH"
);
},
{
closed = 1;
nodes = (
"771 502 OFFCURVE",
"850 414 OFFCURVE",
"850 306 CURVE SMOOTH",
"850 294 OFFCURVE",
"849 290 OFFCURVE",
"833 290 CURVE SMOOTH",
"465 291 LINE",
"466 418 OFFCURVE",
"551 502 OFFCURVE",
"661 502 CURVE SMOOTH"
);
},
{
closed = 1;
nodes = (
"429 177 LINE",
"429 99 OFFCURVE",
"343 34 OFFCURVE",
"236 29 CURVE SMOOTH",
"152 25 OFFCURVE",
"103 71 OFFCURVE",
"103 138 CURVE SMOOTH",
"103 215 OFFCURVE",
"169 260 OFFCURVE",
"319 272 CURVE SMOOTH",
"414 279 LINE SMOOTH",
"427 280 OFFCURVE",
"429 275 OFFCURVE",
"429 265 CURVE SMOOTH"
);
}
);
};
hints = (
{
horizontal = 1;
place = "{3831, 181}";
type = Stem;
}
);
layerId = "91AB5BCA-6A50-42DA-B2F7-8181BF189245";
paths = (
{
closed = 1;
nodes = (
"870 248 LINE",
"870 426 OFFCURVE",
"780 527 OFFCURVE",
"646 527 CURVE SMOOTH",
"555 527 OFFCURVE",
"485 488 OFFCURVE",
"446 410 CURVE",
"426 488 OFFCURVE",
"371 527 OFFCURVE",
"275 527 CURVE SMOOTH",
"190 527 OFFCURVE",
"114 485 OFFCURVE",
"71 413 CURVE",
"101 392 LINE",
"148 455 OFFCURVE",
"203 489 OFFCURVE",
"267 489 CURVE SMOOTH",
"365 489 OFFCURVE",
"417 437 OFFCURVE",
"417 354 CURVE SMOOTH",
"417 310 LINE",
"290 300 LINE SMOOTH",
"132 287 OFFCURVE",
"57 228 OFFCURVE",
"57 133 CURVE SMOOTH",
"57 44 OFFCURVE",
"118 -10 OFFCURVE",
"219 -10 CURVE SMOOTH",
"347 -10 OFFCURVE",
"404 60 OFFCURVE",
"439 105 CURVE SMOOTH",
"441 108 OFFCURVE",
"442 108 OFFCURVE",
"444 105 CURVE SMOOTH",
"472 63 OFFCURVE",
"524 -10 OFFCURVE",
"643 -10 CURVE SMOOTH",
"740 -10 OFFCURVE",
"820 39 OFFCURVE",
"854 104 CURVE",
"823 126 LINE",
"794 83 OFFCURVE",
"750 27 OFFCURVE",
"645 27 CURVE SMOOTH",
"536 27 OFFCURVE",
"450 143 OFFCURVE",
"450 247 CURVE"
);
},
{
closed = 1;
nodes = (
"751 489 OFFCURVE",
"828 397 OFFCURVE",
"828 283 CURVE",
"452 284 LINE",
"453 408 OFFCURVE",
"536 489 OFFCURVE",
"643 489 CURVE SMOOTH"
);
},
{
closed = 1;
nodes = (
"417 173 LINE",
"417 97 OFFCURVE",
"333 33 OFFCURVE",
"229 28 CURVE SMOOTH",
"147 24 OFFCURVE",
"99 69 OFFCURVE",
"99 135 CURVE SMOOTH",
"99 210 OFFCURVE",
"164 254 OFFCURVE",
"310 265 CURVE SMOOTH",
"417 273 LINE"
);
}
);
width = 925;
}
);
leftKerningGroup = a;
leftMetricsKey = a;
rightKerningGroup = e;
rightMetricsKey = e;
unicode = 00E6;
},
{
glyphname = b;
lastChange = "2019-04-14 21:55:07 +0000";
layers = (
{
background = {
paths = (
{
closed = 1;
nodes = (
"159 0 OFFCURVE",
"167 7 OFFCURVE",
"172 23 CURVE SMOOTH",
"188 70 LINE SMOOTH",
"191 78 OFFCURVE",
"195 79 OFFCURVE",
"201 73 CURVE SMOOTH",
"240 22 OFFCURVE",
"294 -10 OFFCURVE",
"357 -10 CURVE SMOOTH",
"503 -10 OFFCURVE",
"584 99 OFFCURVE",
"584 269 CURVE SMOOTH",
"584 436 OFFCURVE",
"508 540 OFFCURVE",
"378 540 CURVE SMOOTH",
"333 540 OFFCURVE",
"292 527 OFFCURVE",
"251 488 CURVE SMOOTH",
"241 480 OFFCURVE",
"232 480 OFFCURVE",
"232 496 CURVE SMOOTH",
"232 721 LINE SMOOTH",
"232 734 OFFCURVE",
"226 742 OFFCURVE",
"214 742 CURVE SMOOTH",
"51 742 LINE SMOOTH",
"40 742 OFFCURVE",
"32 734 OFFCURVE",
"32 719 CURVE SMOOTH",
"32 25 LINE SMOOTH",
"32 8 OFFCURVE",
"38 0 OFFCURVE",
"59 0 CURVE SMOOTH",
"146 0 LINE SMOOTH"
);
},
{
closed = 1;
nodes = (
"252 403 OFFCURVE",
"275 418 OFFCURVE",
"306 418 CURVE SMOOTH",
"355 418 OFFCURVE",
"382 381 OFFCURVE",
"382 265 CURVE SMOOTH",
"382 148 OFFCURVE",
"355 107 OFFCURVE",
"303 107 CURVE SMOOTH",
"261 107 OFFCURVE",
"232 135 OFFCURVE",
"232 185 CURVE SMOOTH",
"232 378 LINE"
);
}
);
};
layerId = "258ED206-D907-4350-8EBA-CBDDA1C16BF7";
paths = (
{
closed = 1;
nodes = (
"509 -10 OFFCURVE",
"588 97 OFFCURVE",
"588 262 CURVE SMOOTH",
"588 425 OFFCURVE",
"514 527 OFFCURVE",
"387 527 CURVE SMOOTH",
"336 527 OFFCURVE",
"280 502 OFFCURVE",
"245 439 CURVE",
"245 743 LINE",
"50 743 LINE",
"50 0 LINE",
"187 0 LINE",
"207 72 LINE",
"235 16 OFFCURVE",
"302 -10 OFFCURVE",
"366 -10 CURVE SMOOTH"
);
},
{
closed = 1;
nodes = (
"271 126 OFFCURVE",
"245 168 OFFCURVE",
"245 264 CURVE",
"245 264 LINE",
"245 353 OFFCURVE",
"273 390 OFFCURVE",
"317 390 CURVE SMOOTH",
"357 390 OFFCURVE",
"391 368 OFFCURVE",
"391 264 CURVE SMOOTH",
"391 160 OFFCURVE",
"360 126 OFFCURVE",
"314 126 CURVE"
);
}
);
width = 615;
},
{
background = {
paths = (
{
closed = 1;
nodes = (
"132 0 OFFCURVE",
"135 3 OFFCURVE",
"135 13 CURVE SMOOTH",
"137 64 LINE SMOOTH",
"137 73 OFFCURVE",
"142 74 OFFCURVE",
"147 67 CURVE SMOOTH",
"159 50 OFFCURVE",
"209 -10 OFFCURVE",
"312 -10 CURVE SMOOTH",
"456 -10 OFFCURVE",
"540 96 OFFCURVE",
"540 267 CURVE SMOOTH",
"540 416 OFFCURVE",
"476 540 OFFCURVE",
"323 540 CURVE SMOOTH",
"217 540 OFFCURVE",
"161 482 OFFCURVE",
"151 473 CURVE SMOOTH",
"142 465 OFFCURVE",
"138 465 OFFCURVE",
"138 478 CURVE SMOOTH",
"138 731 LINE SMOOTH",
"138 739 OFFCURVE",
"136 742 OFFCURVE",
"130 742 CURVE SMOOTH",
"107 742 LINE SMOOTH",
"101 742 OFFCURVE",
"98 739 OFFCURVE",
"98 732 CURVE SMOOTH",
"98 13 LINE SMOOTH",
"98 3 OFFCURVE",
"101 0 OFFCURVE",
"109 0 CURVE SMOOTH",
"120 0 LINE SMOOTH"
);
},
{
closed = 1;
nodes = (
"178 463 OFFCURVE",
"242 502 OFFCURVE",
"316 502 CURVE SMOOTH",
"434 502 OFFCURVE",
"497 409 OFFCURVE",
"497 267 CURVE SMOOTH",
"497 103 OFFCURVE",
"412 28 OFFCURVE",
"308 28 CURVE SMOOTH",
"224 28 OFFCURVE",
"138 96 OFFCURVE",
"138 177 CURVE SMOOTH",
"138 415 LINE"
);
}
);
};
layerId = "91AB5BCA-6A50-42DA-B2F7-8181BF189245";
paths = (
{
closed = 1;
nodes = (
"455 -10 OFFCURVE",
"526 94 OFFCURVE",
"526 260 CURVE SMOOTH",
"526 406 OFFCURVE",
"463 527 OFFCURVE",
"314 527 CURVE SMOOTH",
"184 527 OFFCURVE",
"144 442 OFFCURVE",
"134 420 CURVE",
"134 743 LINE",
"95 743 LINE",
"95 0 LINE",
"130 0 LINE",
"133 106 LINE",
"141 82 OFFCURVE",
"176 -10 OFFCURVE",
"314 -10 CURVE SMOOTH"
);
},
{
closed = 1;
nodes = (
"206 27 OFFCURVE",
"136 104 OFFCURVE",
"134 178 CURVE",
"134 339 LINE",
"138 361 OFFCURVE",
"153 489 OFFCURVE",
"310 489 CURVE SMOOTH",
"427 489 OFFCURVE",
"484 399 OFFCURVE",
"484 260 CURVE SMOOTH",
"484 100 OFFCURVE",
"415 27 OFFCURVE",
"313 27 CURVE SMOOTH"
);
}
);
width = 581;
}
);
leftKerningGroup = h;
leftMetricsKey = n;
rightKerningGroup = o;
rightMetricsKey = o;
unicode = 0062;
},
{
glyphname = c;
lastChange = "2019-04-13 20:26:28 +0000";
layers = (
{
anchors = (
{
name = bottom;
position = "{285, 0}";
},
{
name = top;
position = "{286, 517}";
}
);
background = {
anchors = (
{
name = bottom;
position = "{273, 0}";
},
{
name = top;
position = "{274, 530}";
}
);
paths = (
{
closed = 1;
nodes = (
"116 540 OFFCURVE",
"-3 428 OFFCURVE",
"-3 263 CURVE SMOOTH",
"-3 101 OFFCURVE",
"114 -10 OFFCURVE",
"274 -10 CURVE SMOOTH",
"436 -10 OFFCURVE",
"502 105 OFFCURVE",
"512 157 CURVE SMOOTH",
"516 172 OFFCURVE",
"514 178 OFFCURVE",
"503 180 CURVE SMOOTH",
"409 198 LINE SMOOTH",
"396 200 OFFCURVE",
"392 198 OFFCURVE",
"389 193 CURVE SMOOTH",
"364 148 OFFCURVE",
"345 114 OFFCURVE",
"290 114 CURVE SMOOTH",
"233 114 OFFCURVE",
"199 154 OFFCURVE",
"199 265 CURVE SMOOTH",
"199 372 OFFCURVE",
"230 414 OFFCURVE",
"279 414 CURVE SMOOTH",
"327 414 OFFCURVE",
"336 376 OFFCURVE",
"340 351 CURVE SMOOTH",
"342 340 OFFCURVE",
"346 336 OFFCURVE",
"357 337 CURVE SMOOTH",
"494 344 LINE SMOOTH",
"511 345 OFFCURVE",
"517 353 OFFCURVE",
"512 370 CURVE SMOOTH",
"496 447 OFFCURVE",
"417 540 OFFCURVE",
"274 540 CURVE SMOOTH"
);
}
);
};
guideLines = (
{
angle = -0.5577;
position = "{-480, 167}";
},
{
position = "{524, 123}";
},
{
angle = 3.769;
position = "{419, 307}";
}
);
layerId = "258ED206-D907-4350-8EBA-CBDDA1C16BF7";
paths = (
{
closed = 1;
nodes = (
"136 527 OFFCURVE",
"25 416 OFFCURVE",
"25 256 CURVE SMOOTH",
"25 98 OFFCURVE",
"138 -10 OFFCURVE",
"286 -10 CURVE SMOOTH",
"427 -10 OFFCURVE",
"510 90 OFFCURVE",
"510 200 CURVE",
"357 200 LINE",
"354 179 OFFCURVE",
"340 124 OFFCURVE",
"291 124 CURVE SMOOTH",
"241 124 OFFCURVE",
"204 173 OFFCURVE",
"204 258 CURVE SMOOTH",
"204 341 OFFCURVE",
"237 383 OFFCURVE",
"287 383 CURVE SMOOTH",
"337 383 OFFCURVE",
"351 335 OFFCURVE",
"355 306 CURVE",
"513 306 LINE",
"510 422 OFFCURVE",
"432 527 OFFCURVE",
"286 527 CURVE SMOOTH"
);
}
);
width = 540;
},
{
anchors = (
{
name = bottom;
position = "{280, 0}";
},
{
name = top;
position = "{278, 517}";
}
);
background = {
anchors = (
{
name = bottom;
position = "{288, 0}";
},
{
name = top;
position = "{286, 530}";
}
);
paths = (
{
closed = 1;
nodes = (
"146 540 OFFCURVE",
"47 425 OFFCURVE",
"47 263 CURVE SMOOTH",
"47 100 OFFCURVE",
"144 -10 OFFCURVE",
"287 -10 CURVE SMOOTH",
"372 -10 OFFCURVE",
"444 29 OFFCURVE",
"492 107 CURVE SMOOTH",
"494 111 OFFCURVE",
"493 115 OFFCURVE",
"490 117 CURVE SMOOTH",
"467 132 LINE SMOOTH",
"463 135 OFFCURVE",
"461 134 OFFCURVE",
"457 128 CURVE SMOOTH",
"413 60 OFFCURVE",
"359 28 OFFCURVE",
"291 28 CURVE SMOOTH",
"169 28 OFFCURVE",
"89 123 OFFCURVE",
"89 265 CURVE SMOOTH",
"89 407 OFFCURVE",
"169 502 OFFCURVE",
"292 502 CURVE SMOOTH",
"348 502 OFFCURVE",
"393 478 OFFCURVE",
"448 411 CURVE SMOOTH",
"452 406 OFFCURVE",
"456 405 OFFCURVE",
"459 407 CURVE SMOOTH",
"483 423 LINE SMOOTH",
"486 425 OFFCURVE",
"487 427 OFFCURVE",
"483 433 CURVE SMOOTH",
"437 499 OFFCURVE",
"376 540 OFFCURVE",
"287 540 CURVE SMOOTH"
);
}
);
};
layerId = "91AB5BCA-6A50-42DA-B2F7-8181BF189245";
paths = (
{
closed = 1;
nodes = (
"139 527 OFFCURVE",
"55 415 OFFCURVE",
"55 256 CURVE SMOOTH",
"55 98 OFFCURVE",
"139 -10 OFFCURVE",
"279 -10 CURVE SMOOTH",
"364 -10 OFFCURVE",
"451 28 OFFCURVE",
"475 138 CURVE",
"433 138 LINE",
"416 61 OFFCURVE",
"353 27 OFFCURVE",
"283 27 CURVE SMOOTH",
"166 27 OFFCURVE",
"96 119 OFFCURVE",
"96 258 CURVE SMOOTH",
"96 396 OFFCURVE",
"168 489 OFFCURVE",
"284 489 CURVE SMOOTH",
"349 489 OFFCURVE",
"410 459 OFFCURVE",
"433 377 CURVE",
"475 379 LINE",
"454 483 OFFCURVE",
"366 527 OFFCURVE",
"279 527 CURVE SMOOTH"
);
}
);
width = 529;
}
);
leftKerningGroup = o;
leftMetricsKey = e;
rightKerningGroup = o;
unicode = 0063;
},
{
glyphname = d;
lastChange = "2019-04-14 21:09:08 +0000";
layers = (
{
anchors = (
{
name = bottom;
position = "{298, 0}";
},
{
name = center;
position = "{298, 258}";
},
{
name = topright;
position = "{577, 517}";
}
);
background = {
anchors = (
{
name = bottom;
position = "{287, 0}";
},
{
name = center;
position = "{287, 265}";
},
{
name = topright;
position = "{573, 530}";
}
);
paths = (
{
closed = 1;
nodes = (
"528 0 LINE SMOOTH",
"549 0 OFFCURVE",
"555 8 OFFCURVE",
"555 25 CURVE SMOOTH",
"555 719 LINE SMOOTH",
"555 734 OFFCURVE",
"547 742 OFFCURVE",
"536 742 CURVE SMOOTH",
"374 742 LINE SMOOTH",
"362 742 OFFCURVE",
"356 734 OFFCURVE",
"356 721 CURVE SMOOTH",
"356 496 LINE SMOOTH",
"356 480 OFFCURVE",
"347 480 OFFCURVE",
"337 488 CURVE SMOOTH",
"296 528 OFFCURVE",
"258 540 OFFCURVE",
"213 540 CURVE SMOOTH",
"103 540 OFFCURVE",
"3 431 OFFCURVE",
"3 263 CURVE SMOOTH",
"3 82 OFFCURVE",
"85 -10 OFFCURVE",
"203 -10 CURVE SMOOTH",
"265 -10 OFFCURVE",
"304 10 OFFCURVE",
"343 46 CURVE SMOOTH",
"350 52 OFFCURVE",
"358 51 OFFCURVE",
"358 42 CURVE SMOOTH",
"358 23 LINE SMOOTH",
"358 6 OFFCURVE",
"370 0 OFFCURVE",
"383 0 CURVE SMOOTH"
);
},
{
closed = 1;
nodes = (
"355 176 LINE SMOOTH",
"355 137 OFFCURVE",
"324 110 OFFCURVE",
"285 110 CURVE SMOOTH",
"234 110 OFFCURVE",
"205 149 OFFCURVE",
"205 264 CURVE SMOOTH",
"205 380 OFFCURVE",
"238 416 OFFCURVE",
"285 416 CURVE SMOOTH",
"316 416 OFFCURVE",
"334 403 OFFCURVE",
"355 378 CURVE"
);
}
);
};
layerId = "258ED206-D907-4350-8EBA-CBDDA1C16BF7";
paths = (
{
closed = 1;
nodes = (
"331 -10 OFFCURVE",
"380 34 OFFCURVE",
"403 106 CURVE",
"426 0 LINE",
"564 0 LINE",
"564 743 LINE",
"369 743 LINE",
"369 458 LINE",
"337 511 OFFCURVE",
"277 527 OFFCURVE",
"226 527 CURVE SMOOTH",
"99 527 OFFCURVE",
"25 425 OFFCURVE",
"25 262 CURVE SMOOTH",
"25 97 OFFCURVE",
"104 -10 OFFCURVE",
"247 -10 CURVE SMOOTH"
);
},
{
closed = 1;
nodes = (
"249 126 OFFCURVE",
"213 160 OFFCURVE",
"213 264 CURVE SMOOTH",
"213 368 OFFCURVE",
"252 390 OFFCURVE",
"292 390 CURVE SMOOTH",
"335 390 OFFCURVE",
"369 364 OFFCURVE",
"369 284 CURVE",
"369 239 LINE",
"369 162 OFFCURVE",
"337 126 OFFCURVE",
"294 126 CURVE"
);
}
);
width = 610;
},
{
anchors = (
{
name = bottom;
position = "{282, 0}";
},
{
name = center;
position = "{294, 258}";
},
{
name = topright;
position = "{599, 723}";
}
);
background = {
anchors = (
{
name = bottom;
position = "{290, 0}";
},
{
name = center;
position = "{302, 265}";
},
{
name = topright;
position = "{615, 742}";
}
);
paths = (
{
closed = 1;
nodes = (
"477 0 LINE SMOOTH",
"486 0 OFFCURVE",
"489 3 OFFCURVE",
"489 12 CURVE SMOOTH",
"489 733 LINE SMOOTH",
"489 739 OFFCURVE",
"486 742 OFFCURVE",
"481 742 CURVE SMOOTH",
"458 742 LINE SMOOTH",
"451 742 OFFCURVE",
"449 739 OFFCURVE",
"449 732 CURVE SMOOTH",
"449 493 LINE SMOOTH",
"449 480 OFFCURVE",
"447 476 OFFCURVE",
"435 486 CURVE SMOOTH",
"404 510 OFFCURVE",
"361 540 OFFCURVE",
"288 540 CURVE SMOOTH",
"141 540 OFFCURVE",
"45 425 OFFCURVE",
"45 255 CURVE SMOOTH",
"45 78 OFFCURVE",
"148 -10 OFFCURVE",
"276 -10 CURVE SMOOTH",
"372 -10 OFFCURVE",
"423 49 OFFCURVE",
"439 66 CURVE SMOOTH",
"447 74 OFFCURVE",
"451 73 OFFCURVE",
"451 62 CURVE SMOOTH",
"451 11 LINE SMOOTH",
"451 4 OFFCURVE",
"454 0 OFFCURVE",
"461 0 CURVE SMOOTH"
);
},
{
closed = 1;
nodes = (
"449 170 LINE SMOOTH",
"449 110 OFFCURVE",
"377 28 OFFCURVE",
"281 28 CURVE SMOOTH",
"179 28 OFFCURVE",
"87 100 OFFCURVE",
"87 259 CURVE SMOOTH",
"87 411 OFFCURVE",
"172 502 OFFCURVE",
"289 502 CURVE SMOOTH",
"350 502 OFFCURVE",
"400 474 OFFCURVE",
"449 426 CURVE"
);
}
);
};
layerId = "91AB5BCA-6A50-42DA-B2F7-8181BF189245";
paths = (
{
closed = 1;
nodes = (
"405 -10 OFFCURVE",
"440 82 OFFCURVE",
"448 106 CURVE",
"451 0 LINE",
"486 0 LINE",
"486 743 LINE",
"447 743 LINE",
"447 428 LINE",
"437 450 OFFCURVE",
"388 527 OFFCURVE",
"267 527 CURVE SMOOTH",
"118 527 OFFCURVE",
"55 406 OFFCURVE",
"55 260 CURVE SMOOTH",
"55 94 OFFCURVE",
"126 -10 OFFCURVE",
"267 -10 CURVE SMOOTH"
);
},
{
closed = 1;
nodes = (
"166 27 OFFCURVE",
"97 100 OFFCURVE",
"97 260 CURVE SMOOTH",
"97 399 OFFCURVE",
"154 489 OFFCURVE",
"271 489 CURVE SMOOTH",
"416 489 OFFCURVE",
"443 361 OFFCURVE",
"447 339 CURVE",
"447 178 LINE",
"445 104 OFFCURVE",
"375 27 OFFCURVE",
"268 27 CURVE SMOOTH"
);
}
);
width = 576;
}
);
leftKerningGroup = o;
leftMetricsKey = e;
rightKerningGroup = u;
rightMetricsKey = u;
unicode = 0064;
},
{
glyphname = eth;
lastChange = "2019-04-14 19:56:50 +0000";
layers = (
{
background = {
paths = (
{
closed = 1;
nodes = (
"565 440 OFFCURVE",
"490 582 OFFCURVE",
"366 669 CURVE",
"412 695 LINE SMOOTH",
"418 699 OFFCURVE",
"419 704 OFFCURVE",
"416 709 CURVE SMOOTH",
"395 747 LINE SMOOTH",
"391 752 OFFCURVE",
"384 754 OFFCURVE",
"377 749 CURVE SMOOTH",
"302 707 LINE",
"265 726 OFFCURVE",
"224 740 OFFCURVE",
"181 750 CURVE SMOOTH",
"169 753 OFFCURVE",
"167 752 OFFCURVE",
"160 746 CURVE SMOOTH",
"76 677 LINE SMOOTH",
"69 671 OFFCURVE",
"72 665 OFFCURVE",
"78 663 CURVE SMOOTH",
"108 653 OFFCURVE",
"135 641 OFFCURVE",
"160 628 CURVE",
"89 589 LINE SMOOTH",
"82 586 OFFCURVE",
"79 578 OFFCURVE",
"87 567 CURVE SMOOTH",
"102 543 LINE SMOOTH",
"109 532 OFFCURVE",
"115 530 OFFCURVE",
"126 536 CURVE SMOOTH",
"222 590 LINE",
"250 569 OFFCURVE",
"269 551 OFFCURVE",
"288 525 CURVE SMOOTH",
"290 522 OFFCURVE",
"290 520 OFFCURVE",
"286 520 CURVE SMOOTH",
"128 520 OFFCURVE",
"7 409 OFFCURVE",
"7 252 CURVE SMOOTH",
"7 103 OFFCURVE",
"121 -10 OFFCURVE",
"285 -10 CURVE SMOOTH",
"452 -10 OFFCURVE",
"565 102 OFFCURVE",
"565 282 CURVE SMOOTH"
);
},
{
closed = 1;
nodes = (
"233 118 OFFCURVE",
"209 162 OFFCURVE",
"209 256 CURVE SMOOTH",
"209 351 OFFCURVE",
"233 396 OFFCURVE",
"286 396 CURVE SMOOTH",
"340 396 OFFCURVE",
"363 351 OFFCURVE",
"363 256 CURVE SMOOTH",
"363 163 OFFCURVE",
"340 118 OFFCURVE",
"286 118 CURVE SMOOTH"
);
}
);
};
layerId = "258ED206-D907-4350-8EBA-CBDDA1C16BF7";
paths = (
{
closed = 1;
nodes = (
"569 429 OFFCURVE",
"496 567 OFFCURVE",
"375 652 CURVE",
"429 683 LINE",
"399 737 LINE",
"313 689 LINE",
"273 709 OFFCURVE",
"229 723 OFFCURVE",
"182 734 CURVE",
"82 651 LINE",
"115 640 OFFCURVE",
"146 627 OFFCURVE",
"175 612 CURVE",
"94 568 LINE",
"127 515 LINE",
"235 575 LINE",
"262 555 OFFCURVE",
"281 537 OFFCURVE",
"299 512 CURVE SMOOTH",
"301 509 OFFCURVE",
"301 507 OFFCURVE",
"297 507 CURVE SMOOTH",
"143 507 OFFCURVE",
"25 399 OFFCURVE",
"25 246 CURVE SMOOTH",
"25 100 OFFCURVE",
"137 -10 OFFCURVE",
"296 -10 CURVE SMOOTH",
"459 -10 OFFCURVE",
"569 99 OFFCURVE",
"569 275 CURVE SMOOTH"
);
},
{
closed = 1;
nodes = (
"246 115 OFFCURVE",
"222 158 OFFCURVE",
"222 250 CURVE SMOOTH",
"222 342 OFFCURVE",
"246 386 OFFCURVE",
"297 386 CURVE SMOOTH",
"350 386 OFFCURVE",
"372 342 OFFCURVE",
"372 250 CURVE SMOOTH",
"372 159 OFFCURVE",
"350 115 OFFCURVE",
"297 115 CURVE SMOOTH"
);
}
);
width = 596;
},
{
background = {
paths = (
{
closed = 1;
nodes = (
"543 422 OFFCURVE",
"488 563 OFFCURVE",
"332 669 CURVE",
"422 719 LINE SMOOTH",
"425 721 OFFCURVE",
"425 724 OFFCURVE",
"423 727 CURVE SMOOTH",
"411 749 LINE SMOOTH",
"410 751 OFFCURVE",
"405 752 OFFCURVE",
"402 750 CURVE SMOOTH",
"298 692 LINE",
"263 713 OFFCURVE",
"226 731 OFFCURVE",
"182 749 CURVE SMOOTH",
"173 753 OFFCURVE",
"170 751 OFFCURVE",
"164 747 CURVE SMOOTH",
"146 735 LINE SMOOTH",
"141 731 OFFCURVE",
"142 726 OFFCURVE",
"147 724 CURVE SMOOTH",
"189 707 OFFCURVE",
"226 689 OFFCURVE",
"260 670 CURVE",
"105 583 LINE SMOOTH",
"102 581 OFFCURVE",
"100 578 OFFCURVE",
"104 572 CURVE SMOOTH",
"113 558 LINE SMOOTH",
"117 552 OFFCURVE",
"120 550 OFFCURVE",
"126 553 CURVE SMOOTH",
"294 648 LINE",
"380 590 OFFCURVE",
"433 523 OFFCURVE",
"464 451 CURVE",
"421 494 OFFCURVE",
"362 520 OFFCURVE",
"291 520 CURVE SMOOTH",
"155 520 OFFCURVE",
"57 408 OFFCURVE",
"57 252 CURVE SMOOTH",
"57 98 OFFCURVE",
"154 -10 OFFCURVE",
"298 -10 CURVE SMOOTH",
"452 -10 OFFCURVE",
"543 101 OFFCURVE",
"543 255 CURVE SMOOTH"
);
},
{
closed = 1;
nodes = (
"186 28 OFFCURVE",
"99 128 OFFCURVE",
"99 254 CURVE SMOOTH",
"99 380 OFFCURVE",
"186 482 OFFCURVE",
"301 482 CURVE SMOOTH",
"415 482 OFFCURVE",
"501 381 OFFCURVE",
"501 254 CURVE SMOOTH",
"501 127 OFFCURVE",
"417 28 OFFCURVE",
"302 28 CURVE SMOOTH"
);
}
);
};
layerId = "91AB5BCA-6A50-42DA-B2F7-8181BF189245";
paths = (
{
closed = 1;
nodes = (
"529 411 OFFCURVE",
"475 549 OFFCURVE",
"323 652 CURVE",
"414 703 LINE",
"398 735 LINE",
"290 675 LINE",
"253 696 OFFCURVE",
"214 716 OFFCURVE",
"168 734 CURVE",
"132 710 LINE",
"177 692 OFFCURVE",
"217 674 OFFCURVE",
"253 653 CURVE",
"96 566 LINE",
"115 535 LINE",
"286 632 LINE",
"370 575 OFFCURVE",
"421 510 OFFCURVE",
"451 440 CURVE",
"410 482 OFFCURVE",
"352 507 OFFCURVE",
"283 507 CURVE SMOOTH",
"150 507 OFFCURVE",
"55 398 OFFCURVE",
"55 246 CURVE SMOOTH",
"55 96 OFFCURVE",
"149 -10 OFFCURVE",
"290 -10 CURVE SMOOTH",
"440 -10 OFFCURVE",
"529 98 OFFCURVE",
"529 249 CURVE SMOOTH"
);
},
{
closed = 1;
nodes = (
"180 27 OFFCURVE",
"96 125 OFFCURVE",
"96 248 CURVE SMOOTH",
"96 371 OFFCURVE",
"180 470 OFFCURVE",
"293 470 CURVE SMOOTH",
"404 470 OFFCURVE",
"488 371 OFFCURVE",
"488 248 CURVE SMOOTH",
"488 124 OFFCURVE",
"406 27 OFFCURVE",
"294 27 CURVE SMOOTH"
);
}
);
width = 584;
}
);
leftKerningGroup = o;
leftMetricsKey = o;
rightKerningGroup = o;
rightMetricsKey = o;
unicode = 00F0;
},
{
glyphname = dcroat;
lastChange = "2019-04-14 21:43:06 +0000";
layers = (
{
background = {
components = (
{
name = d;
transform = "{1, 0, 0, 1, -38, 0}";
}
);
paths = (
{
closed = 1;
nodes = (
"575 680 OFFCURVE",
"569 687 OFFCURVE",
"559 687 CURVE SMOOTH",
"220 687 LINE SMOOTH",
"210 687 OFFCURVE",
"204 680 OFFCURVE",
"204 667 CURVE SMOOTH",
"204 602 LINE SMOOTH",
"204 587 OFFCURVE",
"209 580 OFFCURVE",
"226 580 CURVE SMOOTH",
"546 580 LINE SMOOTH",
"566 580 OFFCURVE",
"575 587 OFFCURVE",
"575 604 CURVE SMOOTH",
"575 669 LINE SMOOTH"
);
}
);
};
components = (
{
name = d;
}
);
layerId = "258ED206-D907-4350-8EBA-CBDDA1C16BF7";
paths = (
{
closed = 1;
nodes = (
"267 670 LINE",
"267 566 LINE",
"629 566 LINE",
"629 670 LINE"
);
}
);
width = 666;
},
{
background = {
components = (
{
name = d;
transform = "{1, 0, 0, 1, 4, 0}";
}
);
paths = (
{
closed = 1;
nodes = (
"581 660 OFFCURVE",
"579 662 OFFCURVE",
"576 662 CURVE SMOOTH",
"297 662 LINE SMOOTH",
"294 662 OFFCURVE",
"292 660 OFFCURVE",
"292 655 CURVE SMOOTH",
"292 635 LINE SMOOTH",
"292 629 OFFCURVE",
"293 627 OFFCURVE",
"299 627 CURVE SMOOTH",
"571 627 LINE SMOOTH",
"578 627 OFFCURVE",
"581 629 OFFCURVE",
"581 635 CURVE SMOOTH",
"581 656 LINE SMOOTH"
);
}
);
};
components = (
{
name = d;
}
);
layerId = "91AB5BCA-6A50-42DA-B2F7-8181BF189245";
paths = (
{
closed = 1;
nodes = (
"284 645 LINE",
"284 611 LINE",
"565 611 LINE",
"565 645 LINE"
);
}
);
width = 614;
}
);
leftKerningGroup = o;
leftMetricsKey = d;
rightMetricsKey = t;
unicode = 0111;
},
{
glyphname = e;
lastChange = "2019-04-14 20:15:14 +0000";
layers = (
{
anchors = (
{
name = bottom;
position = "{292, 0}";
},
{
name = ogonek;
position = "{417, 25}";
},
{
name = top;
position = "{289, 517}";
}
);
background = {
anchors = (
{
name = bottom;
position = "{280, 0}";
},
{
name = ogonek;
position = "{409, 26}";
},
{
name = top;
position = "{277, 530}";
}
);
paths = (
{
closed = 1;
nodes = (
"203 224 OFFCURVE",
"208 229 OFFCURVE",
"218 229 CURVE SMOOTH",
"529 229 LINE SMOOTH",
"546 230 OFFCURVE",
"547 237 OFFCURVE",
"547 254 CURVE SMOOTH",
"547 435 OFFCURVE",
"432 540 OFFCURVE",
"275 540 CURVE SMOOTH",
"127 540 OFFCURVE",
"-3 426 OFFCURVE",
"-3 256 CURVE SMOOTH",
"-3 99 OFFCURVE",
"119 -10 OFFCURVE",
"279 -10 CURVE SMOOTH",
"391 -10 OFFCURVE",
"459 17 OFFCURVE",
"531 118 CURVE SMOOTH",
"540 129 OFFCURVE",
"537 138 OFFCURVE",
"527 142 CURVE SMOOTH",
"436 179 LINE SMOOTH",
"423 184 OFFCURVE",
"420 183 OFFCURVE",
"415 178 CURVE SMOOTH",
"371 135 OFFCURVE",
"340 122 OFFCURVE",
"306 122 CURVE SMOOTH",
"248 122 OFFCURVE",
"203 151 OFFCURVE",
"203 212 CURVE SMOOTH"
);
},
{
closed = 1;
nodes = (
"205 395 OFFCURVE",
"243 423 OFFCURVE",
"284 423 CURVE SMOOTH",
"334 423 OFFCURVE",
"353 372 OFFCURVE",
"353 346 CURVE SMOOTH",
"353 334 OFFCURVE",
"349 332 OFFCURVE",
"336 332 CURVE SMOOTH",
"206 333 LINE"
);
}
);
};
layerId = "258ED206-D907-4350-8EBA-CBDDA1C16BF7";
paths = (
{
closed = 1;
nodes = (
"542 214 LINE",
"542 259 LINE",
"542 412 OFFCURVE",
"457 527 OFFCURVE",
"288 527 CURVE SMOOTH",
"122 527 OFFCURVE",
"25 400 OFFCURVE",
"25 252 CURVE SMOOTH",
"25 95 OFFCURVE",
"135 -10 OFFCURVE",
"296 -10 CURVE SMOOTH",
"411 -10 OFFCURVE",
"528 61 OFFCURVE",
"544 176 CURVE",
"372 176 LINE",
"356 136 OFFCURVE",
"327 126 OFFCURVE",
"291 126 CURVE SMOOTH",
"249 126 OFFCURVE",
"215 152 OFFCURVE",
"216 214 CURVE"
);
},
{
closed = 1;
nodes = (
"215 362 OFFCURVE",
"248 396 OFFCURVE",
"288 396 CURVE SMOOTH",
"337 396 OFFCURVE",
"363 362 OFFCURVE",
"363 323 CURVE",
"215 323 LINE"
);
}
);
width = 571;
},
{
anchors = (
{
name = bottom;
position = "{276, 0}";
},
{
name = ogonek;
position = "{370, 18}";
},
{
name = top;
position = "{277, 517}";
}
);
background = {
anchors = (
{
name = bottom;
position = "{288, 0}";
},
{
name = ogonek;
position = "{381, 18}";
},
{
name = top;
position = "{285, 530}";
}
);
paths = (
{
closed = 1;
nodes = (
"86 247 OFFCURVE",
"88 254 OFFCURVE",
"92 254 CURVE SMOOTH",
"503 254 LINE SMOOTH",
"518 254 OFFCURVE",
"516 266 OFFCURVE",
"516 274 CURVE SMOOTH",
"516 442 OFFCURVE",
"428 540 OFFCURVE",
"287 540 CURVE SMOOTH",
"146 540 OFFCURVE",
"44 436 OFFCURVE",
"44 261 CURVE SMOOTH",
"44 100 OFFCURVE",
"143 -10 OFFCURVE",
"287 -10 CURVE SMOOTH",
"381 -10 OFFCURVE",
"451 27 OFFCURVE",
"497 100 CURVE SMOOTH",
"500 104 OFFCURVE",
"499 108 OFFCURVE",
"496 110 CURVE SMOOTH",
"473 125 LINE SMOOTH",
"469 128 OFFCURVE",
"466 127 OFFCURVE",
"462 121 CURVE SMOOTH",
"426 61 OFFCURVE",
"367 28 OFFCURVE",
"287 28 CURVE SMOOTH",
"175 28 OFFCURVE",
"86 127 OFFCURVE",
"86 240 CURVE SMOOTH"
);
},
{
closed = 1;
nodes = (
"86 390 OFFCURVE",
"154 502 OFFCURVE",
"286 502 CURVE SMOOTH",
"402 502 OFFCURVE",
"474 414 OFFCURVE",
"474 304 CURVE SMOOTH",
"474 293 OFFCURVE",
"471 290 OFFCURVE",
"457 290 CURVE SMOOTH",
"87 290 LINE"
);
}
);
};
guideLines = (
{
angle = 88.4926;
position = "{227, 483}";
}
);
layerId = "91AB5BCA-6A50-42DA-B2F7-8181BF189245";
paths = (
{
closed = 1;
nodes = (
"487 248 LINE",
"487 277 LINE",
"487 436 OFFCURVE",
"409 527 OFFCURVE",
"277 527 CURVE SMOOTH",
"136 527 OFFCURVE",
"55 425 OFFCURVE",
"55 254 CURVE SMOOTH",
"55 85 OFFCURVE",
"148 -10 OFFCURVE",
"283 -10 CURVE SMOOTH",
"375 -10 OFFCURVE",
"452 33 OFFCURVE",
"481 138 CURVE",
"439 138 LINE",
"417 69 OFFCURVE",
"364 29 OFFCURVE",
"283 29 CURVE SMOOTH",
"153 29 OFFCURVE",
"97 131 OFFCURVE",
"97 248 CURVE"
);
},
{
closed = 1;
nodes = (
"97 384 OFFCURVE",
"150 488 OFFCURVE",
"276 488 CURVE SMOOTH",
"392 488 OFFCURVE",
"446 402 OFFCURVE",
"446 287 CURVE",
"98 287 LINE"
);
}
);
width = 542;
}
);
leftKerningGroup = o;
rightKerningGroup = o;
unicode = 0065;
},
{
glyphname = f;
lastChange = "2019-04-14 20:28:15 +0000";
layers = (
{
background = {
paths = (
{
closed = 1;
nodes = (
"287 530 LINE SMOOTH",
"279 530 OFFCURVE",
"274 533 OFFCURVE",
"274 543 CURVE SMOOTH",
"274 561 LINE SMOOTH",
"274 589 OFFCURVE",
"296 612 OFFCURVE",
"319 612 CURVE SMOOTH",
"362 612 LINE SMOOTH",
"374 612 OFFCURVE",
"380 621 OFFCURVE",
"380 632 CURVE",
"379 716 LINE",
"379 732 OFFCURVE",
"369 742 OFFCURVE",
"350 742 CURVE SMOOTH",
"237 742 LINE SMOOTH",
"140 742 OFFCURVE",
"79 688 OFFCURVE",
"79 601 CURVE SMOOTH",
"79 548 LINE SMOOTH",
"79 535 OFFCURVE",
"76 530 OFFCURVE",
"65 530 CURVE SMOOTH",
"17 530 LINE SMOOTH",
"0 530 OFFCURVE",
"-7 520 OFFCURVE",
"-7 508 CURVE SMOOTH",
"-7 414 LINE SMOOTH",
"-7 400 OFFCURVE",
"1 395 OFFCURVE",
"15 395 CURVE SMOOTH",
"71 395 LINE SMOOTH",
"77 395 OFFCURVE",
"79 392 OFFCURVE",
"79 385 CURVE SMOOTH",
"79 20 LINE SMOOTH",
"79 7 OFFCURVE",
"86 0 OFFCURVE",
"97 0 CURVE SMOOTH",
"260 0 LINE SMOOTH",
"272 0 OFFCURVE",
"279 7 OFFCURVE",
"279 22 CURVE SMOOTH",
"279 383 LINE SMOOTH",
"279 391 OFFCURVE",
"284 395 OFFCURVE",
"291 395 CURVE SMOOTH",
"353 395 LINE SMOOTH",
"366 395 OFFCURVE",
"375 400 OFFCURVE",
"375 414 CURVE SMOOTH",
"375 508 LINE SMOOTH",
"375 520 OFFCURVE",
"367 530 OFFCURVE",
"350 530 CURVE SMOOTH"
);
}
);
};
layerId = "258ED206-D907-4350-8EBA-CBDDA1C16BF7";
paths = (
{
closed = 1;
nodes = (
"286 517 LINE",
"286 547 LINE SMOOTH",
"286 585 OFFCURVE",
"297 597 OFFCURVE",
"329 597 CURVE SMOOTH",
"389 597 LINE",
"388 723 LINE",
"250 723 LINE SMOOTH",
"155 723 OFFCURVE",
"95 671 OFFCURVE",
"95 586 CURVE SMOOTH",
"95 517 LINE",
"12 517 LINE",
"12 385 LINE",
"95 385 LINE",
"95 0 LINE",
"290 0 LINE",
"290 385 LINE",
"384 385 LINE",
"384 517 LINE"
);
}
);
width = 391;
},
{
background = {
paths = (
{
closed = 1;
nodes = (
"218 530 LINE SMOOTH",
"213 530 OFFCURVE",
"211 532 OFFCURVE",
"211 537 CURVE SMOOTH",
"211 627 LINE SMOOTH",
"211 678 OFFCURVE",
"224 707 OFFCURVE",
"274 707 CURVE SMOOTH",
"354 707 LINE SMOOTH",
"359 707 OFFCURVE",
"362 709 OFFCURVE",
"362 714 CURVE SMOOTH",
"362 735 LINE SMOOTH",
"362 740 OFFCURVE",
"360 742 OFFCURVE",
"356 742 CURVE SMOOTH",
"284 742 LINE SMOOTH",
"204 742 OFFCURVE",
"171 700 OFFCURVE",
"171 618 CURVE SMOOTH",
"171 537 LINE SMOOTH",
"171 532 OFFCURVE",
"169 530 OFFCURVE",
"164 530 CURVE SMOOTH",
"51 530 LINE SMOOTH",
"47 530 OFFCURVE",
"45 528 OFFCURVE",
"45 524 CURVE SMOOTH",
"45 501 LINE SMOOTH",
"45 497 OFFCURVE",
"47 495 OFFCURVE",
"51 495 CURVE SMOOTH",
"165 495 LINE SMOOTH",
"169 495 OFFCURVE",
"171 492 OFFCURVE",
"171 488 CURVE SMOOTH",
"171 10 LINE SMOOTH",
"171 3 OFFCURVE",
"173 0 OFFCURVE",
"179 0 CURVE SMOOTH",
"202 0 LINE SMOOTH",
"208 0 OFFCURVE",
"211 3 OFFCURVE",
"211 11 CURVE SMOOTH",
"211 488 LINE SMOOTH",
"211 493 OFFCURVE",
"213 495 OFFCURVE",
"218 495 CURVE SMOOTH",
"351 495 LINE SMOOTH",
"355 495 OFFCURVE",
"357 497 OFFCURVE",
"357 501 CURVE SMOOTH",
"357 524 LINE SMOOTH",
"357 528 OFFCURVE",
"355 530 OFFCURVE",
"352 530 CURVE SMOOTH"
);
}
);
};
layerId = "91AB5BCA-6A50-42DA-B2F7-8181BF189245";
paths = (
{
closed = 1;
nodes = (
"205 517 LINE",
"205 611 LINE SMOOTH",
"205 661 OFFCURVE",
"218 689 OFFCURVE",
"266 689 CURVE SMOOTH",
"352 689 LINE",
"352 723 LINE",
"276 723 LINE SMOOTH",
"198 723 OFFCURVE",
"166 683 OFFCURVE",
"166 603 CURVE SMOOTH",
"166 517 LINE",
"43 517 LINE",
"43 483 LINE",
"166 483 LINE",
"166 0 LINE",
"205 0 LINE",
"205 483 LINE",
"347 483 LINE",
"347 517 LINE"
);
}
);
width = 395;
}
);
leftKerningGroup = f;
rightKerningGroup = f;
unicode = 0066;
},
{
glyphname = g;
lastChange = "2019-04-14 20:55:46 +0000";
layers = (
{
anchors = (
{
name = top;
position = "{306, 517}";
}
);
background = {
anchors = (
{
name = top;
position = "{295, 530}";
}
);
paths = (
{
closed = 1;
nodes = (
"575 562 OFFCURVE",
"519 534 OFFCURVE",
"492 496 CURVE SMOOTH",
"485 486 OFFCURVE",
"471 485 OFFCURVE",
"461 493 CURVE SMOOTH",
"428 519 OFFCURVE",
"370 538 OFFCURVE",
"294 538 CURVE SMOOTH",
"115 538 OFFCURVE",
"24 469 OFFCURVE",
"24 373 CURVE SMOOTH",
"24 312 OFFCURVE",
"62 265 OFFCURVE",
"128 237 CURVE SMOOTH",
"138 231 OFFCURVE",
"131 228 OFFCURVE",
"125 225 CURVE SMOOTH",
"71 202 OFFCURVE",
"16 169 OFFCURVE",
"16 122 CURVE SMOOTH",
"16 81 OFFCURVE",
"47 56 OFFCURVE",
"82 39 CURVE SMOOTH",
"90 35 OFFCURVE",
"92 31 OFFCURVE",
"82 28 CURVE SMOOTH",
"29 13 OFFCURVE",
"-15 -8 OFFCURVE",
"-15 -53 CURVE SMOOTH",
"-15 -137 OFFCURVE",
"87 -175 OFFCURVE",
"296 -175 CURVE SMOOTH",
"497 -175 OFFCURVE",
"599 -99 OFFCURVE",
"599 3 CURVE SMOOTH",
"599 85 OFFCURVE",
"533 143 OFFCURVE",
"385 152 CURVE SMOOTH",
"233 161 LINE SMOOTH",
"204 163 OFFCURVE",
"189 167 OFFCURVE",
"189 182 CURVE SMOOTH",
"189 198 OFFCURVE",
"216 209 OFFCURVE",
"282 209 CURVE SMOOTH",
"450 209 OFFCURVE",
"539 284 OFFCURVE",
"539 374 CURVE SMOOTH",
"539 384 OFFCURVE",
"537 395 OFFCURVE",
"534 405 CURVE SMOOTH",
"530 419 OFFCURVE",
"535 428 OFFCURVE",
"554 428 CURVE SMOOTH",
"566 428 OFFCURVE",
"585 425 OFFCURVE",
"598 421 CURVE SMOOTH",
"613 416 OFFCURVE",
"624 424 OFFCURVE",
"624 447 CURVE SMOOTH",
"624 537 LINE SMOOTH",
"624 555 OFFCURVE",
"615 562 OFFCURVE",
"604 562 CURVE SMOOTH"
);
},
{
closed = 1;
nodes = (
"230 300 OFFCURVE",
"202 334 OFFCURVE",
"202 370 CURVE SMOOTH",
"202 411 OFFCURVE",
"230 445 OFFCURVE",
"280 445 CURVE SMOOTH",
"336 445 OFFCURVE",
"358 411 OFFCURVE",
"358 370 CURVE SMOOTH",
"358 335 OFFCURVE",
"336 300 OFFCURVE",
"280 300 CURVE SMOOTH"
);
},
{
closed = 1;
nodes = (
"403 0 OFFCURVE",
"426 -16 OFFCURVE",
"426 -35 CURVE SMOOTH",
"426 -64 OFFCURVE",
"384 -86 OFFCURVE",
"306 -86 CURVE SMOOTH",
"181 -86 OFFCURVE",
"146 -64 OFFCURVE",
"146 -27 CURVE SMOOTH",
"146 -6 OFFCURVE",
"172 10 OFFCURVE",
"215 8 CURVE SMOOTH",
"360 2 LINE SMOOTH"
);
}
);
};
layerId = "258ED206-D907-4350-8EBA-CBDDA1C16BF7";
paths = (
{
closed = 1;
nodes = (
"503 -171 OFFCURVE",
"602 -97 OFFCURVE",
"602 3 CURVE SMOOTH",
"602 83 OFFCURVE",
"539 148 OFFCURVE",
"396 158 CURVE SMOOTH",
"352 161 OFFCURVE",
"311 163 OFFCURVE",
"293 164 CURVE SMOOTH",
"242 167 OFFCURVE",
"210 167 OFFCURVE",
"210 181 CURVE",
"210 186 OFFCURVE",
"214 188 OFFCURVE",
"224 190 CURVE",
"241 188 OFFCURVE",
"277 187 OFFCURVE",
"293 187 CURVE SMOOTH",
"457 187 OFFCURVE",
"544 277 OFFCURVE",
"544 365 CURVE SMOOTH",
"544 371 OFFCURVE",
"542 390 OFFCURVE",
"538 405 CURVE",
"626 417 LINE",
"627 555 LINE",
"570 531 OFFCURVE",
"496 503 OFFCURVE",
"457 488 CURVE",
"419 508 OFFCURVE",
"379 525 OFFCURVE",
"305 525 CURVE SMOOTH",
"164 525 OFFCURVE",
"42 468 OFFCURVE",
"42 364 CURVE SMOOTH",
"42 309 OFFCURVE",
"78 243 OFFCURVE",
"153 210 CURVE",
"72 199 OFFCURVE",
"34 160 OFFCURVE",
"34 119 CURVE SMOOTH",
"34 62 OFFCURVE",
"92 40 OFFCURVE",
"107 32 CURVE",
"99 30 OFFCURVE",
"4 15 OFFCURVE",
"4 -52 CURVE SMOOTH",
"4 -118 OFFCURVE",
"103 -171 OFFCURVE",
"307 -171 CURVE SMOOTH"
);
},
{
closed = 1;
nodes = (
"238 -69 OFFCURVE",
"193 -62 OFFCURVE",
"193 -29 CURVE SMOOTH",
"193 -12 OFFCURVE",
"206 11 OFFCURVE",
"260 8 CURVE SMOOTH",
"354 2 LINE SMOOTH",
"394 -1 OFFCURVE",
"418 -15 OFFCURVE",
"418 -37 CURVE SMOOTH",
"418 -56 OFFCURVE",
"405 -69 OFFCURVE",
"337 -69 CURVE SMOOTH"
);
},
{
closed = 1;
nodes = (
"262 289 OFFCURVE",
"237 318 OFFCURVE",
"237 357 CURVE SMOOTH",
"237 396 OFFCURVE",
"262 430 OFFCURVE",
"299 430 CURVE SMOOTH",
"336 430 OFFCURVE",
"361 396 OFFCURVE",
"361 357 CURVE SMOOTH",
"361 318 OFFCURVE",
"336 289 OFFCURVE",
"299 289 CURVE SMOOTH"
);
}
);
width = 631;
},
{
anchors = (
{
name = top;
position = "{292, 517}";
}
);
background = {
anchors = (
{
name = top;
position = "{300, 530}";
}
);
guideLines = (
{
angle = 90;
position = "{296, 374}";
showMeasurement = 1;
}
);
paths = (
{
closed = 1;
nodes = (
"514 530 OFFCURVE",
"484 507 OFFCURVE",
"464 492 CURVE SMOOTH",
"457 487 OFFCURVE",
"453 487 OFFCURVE",
"446 493 CURVE SMOOTH",
"412 522 OFFCURVE",
"369 538 OFFCURVE",
"303 538 CURVE SMOOTH",
"171 538 OFFCURVE",
"93 475 OFFCURVE",
"93 369 CURVE SMOOTH",
"93 307 OFFCURVE",
"117 266 OFFCURVE",
"172 235 CURVE SMOOTH",
"179 231 OFFCURVE",
"181 225 OFFCURVE",
"173 223 CURVE SMOOTH",
"123 207 OFFCURVE",
"106 181 OFFCURVE",
"106 159 CURVE SMOOTH",
"106 137 OFFCURVE",
"117 121 OFFCURVE",
"144 109 CURVE SMOOTH",
"151 106 OFFCURVE",
"151 102 OFFCURVE",
"144 98 CURVE SMOOTH",
"81 63 OFFCURVE",
"52 21 OFFCURVE",
"52 -27 CURVE SMOOTH",
"52 -120 OFFCURVE",
"138 -175 OFFCURVE",
"292 -175 CURVE SMOOTH",
"443 -175 OFFCURVE",
"531 -119 OFFCURVE",
"531 -19 CURVE SMOOTH",
"531 60 OFFCURVE",
"484 110 OFFCURVE",
"377 116 CURVE SMOOTH",
"257 123 LINE SMOOTH",
"180 127 OFFCURVE",
"148 136 OFFCURVE",
"148 160 CURVE SMOOTH",
"148 184 OFFCURVE",
"181 209 OFFCURVE",
"296 209 CURVE SMOOTH",
"437 209 OFFCURVE",
"498 280 OFFCURVE",
"498 369 CURVE SMOOTH",
"498 411 OFFCURVE",
"484 434 OFFCURVE",
"477 451 CURVE SMOOTH",
"474 458 OFFCURVE",
"479 464 OFFCURVE",
"497 474 CURVE SMOOTH",
"513 483 OFFCURVE",
"526 487 OFFCURVE",
"552 488 CURVE SMOOTH",
"566 489 OFFCURVE",
"569 495 OFFCURVE",
"569 504 CURVE SMOOTH",
"569 517 LINE SMOOTH",
"569 526 OFFCURVE",
"565 530 OFFCURVE",
"550 530 CURVE SMOOTH"
);
},
{
closed = 1;
nodes = (
"192 247 OFFCURVE",
"133 290 OFFCURVE",
"133 371 CURVE SMOOTH",
"133 453 OFFCURVE",
"193 500 OFFCURVE",
"297 500 CURVE SMOOTH",
"403 500 OFFCURVE",
"458 454 OFFCURVE",
"458 371 CURVE SMOOTH",
"458 289 OFFCURVE",
"405 247 OFFCURVE",
"297 247 CURVE SMOOTH"
);
},
{
closed = 1;
nodes = (
"460 70 OFFCURVE",
"489 36 OFFCURVE",
"489 -19 CURVE SMOOTH",
"489 -101 OFFCURVE",
"423 -137 OFFCURVE",
"301 -137 CURVE SMOOTH",
"170 -137 OFFCURVE",
"94 -96 OFFCURVE",
"94 -23 CURVE SMOOTH",
"94 43 OFFCURVE",
"168 88 OFFCURVE",
"200 86 CURVE SMOOTH",
"376 75 LINE SMOOTH"
);
}
);
};
guideLines = (
{
angle = 90;
position = "{336, 347}";
showMeasurement = 1;
}
);
layerId = "91AB5BCA-6A50-42DA-B2F7-8181BF189245";
paths = (
{
closed = 1;
nodes = (
"431 -171 OFFCURVE",
"517 -116 OFFCURVE",
"517 -19 CURVE SMOOTH",
"517 59 OFFCURVE",
"471 107 OFFCURVE",
"367 113 CURVE SMOOTH",
"318 116 OFFCURVE",
"280 118 OFFCURVE",
"250 120 CURVE SMOOTH",
"167 126 OFFCURVE",
"143 134 OFFCURVE",
"143 156 CURVE SMOOTH",
"143 178 OFFCURVE",
"174 202 OFFCURVE",
"277 204 CURVE SMOOTH",
"281 204 OFFCURVE",
"284 204 OFFCURVE",
"288 204 CURVE SMOOTH",
"425 204 OFFCURVE",
"485 273 OFFCURVE",
"485 360 CURVE SMOOTH",
"485 386 OFFCURVE",
"473 426 OFFCURVE",
"462 446 CURVE",
"554 466 LINE",
"554 524 LINE",
"541 519 OFFCURVE",
"455 482 OFFCURVE",
"442 476 CURVE",
"402 509 OFFCURVE",
"359 525 OFFCURVE",
"295 525 CURVE SMOOTH",
"166 525 OFFCURVE",
"90 463 OFFCURVE",
"90 360 CURVE SMOOTH",
"90 295 OFFCURVE",
"114 257 OFFCURVE",
"179 222 CURVE",
"129 207 OFFCURVE",
"102 183 OFFCURVE",
"102 155 CURVE SMOOTH",
"102 124 OFFCURVE",
"126 113 OFFCURVE",
"145 101 CURVE",
"130 88 OFFCURVE",
"50 52 OFFCURVE",
"50 -26 CURVE SMOOTH",
"50 -117 OFFCURVE",
"134 -171 OFFCURVE",
"284 -171 CURVE SMOOTH"
);
},
{
closed = 1;
nodes = (
"165 -134 OFFCURVE",
"91 -94 OFFCURVE",
"91 -22 CURVE SMOOTH",
"91 42 OFFCURVE",
"163 86 OFFCURVE",
"194 84 CURVE SMOOTH",
"366 73 LINE SMOOTH",
"448 68 OFFCURVE",
"476 35 OFFCURVE",
"476 -19 CURVE SMOOTH",
"476 -98 OFFCURVE",
"412 -134 OFFCURVE",
"293 -134 CURVE SMOOTH"
);
},
{
closed = 1;
nodes = (
"186 241 OFFCURVE",
"129 283 OFFCURVE",
"129 362 CURVE SMOOTH",
"129 442 OFFCURVE",
"187 488 OFFCURVE",
"289 488 CURVE SMOOTH",
"383 488 OFFCURVE",
"446 448 OFFCURVE",
"446 362 CURVE SMOOTH",
"446 282 OFFCURVE",
"394 241 OFFCURVE",
"289 241 CURVE SMOOTH"
);
}
);
width = 604;
}
);
leftKerningGroup = g;
rightKerningGroup = g;
unicode = 0067;
},
{
glyphname = gcommaaccent;
lastChange = "2019-04-14 19:57:39 +0000";
layers = (
{
anchors = (
{
name = _top;
position = "{277, 536}";
}
);
background = {
anchors = (
{
name = _top;
position = "{265, 550}";
}
);
components = (
{
name = g;
transform = "{1, 0, 0, 1, -38, 0}";
}
);
paths = (
{
closed = 1;
nodes = (
"312 599 LINE SMOOTH",
"322 599 OFFCURVE",
"330 605 OFFCURVE",
"330 619 CURVE SMOOTH",
"330 680 LINE SMOOTH",
"330 696 OFFCURVE",
"324 702 OFFCURVE",
"307 702 CURVE SMOOTH",
"298 702 LINE SMOOTH",
"284 702 OFFCURVE",
"278 717 OFFCURVE",
"289 731 CURVE SMOOTH",
"322 776 LINE SMOOTH",
"328 784 OFFCURVE",
"321 796 OFFCURVE",
"310 796 CURVE SMOOTH",
"292 796 LINE SMOOTH",
"274 796 OFFCURVE",
"267 793 OFFCURVE",
"259 782 CURVE SMOOTH",
"205 715 LINE SMOOTH",
"204 712 OFFCURVE",
"201 707 OFFCURVE",
"201 702 CURVE SMOOTH",
"201 615 LINE SMOOTH",
"201 605 OFFCURVE",
"207 599 OFFCURVE",
"218 599 CURVE SMOOTH"
);
}
);
};
components = (
{
name = g;
}
);
layerId = "258ED206-D907-4350-8EBA-CBDDA1C16BF7";
paths = (
{
closed = 1;
nodes = (
"340 584 LINE",
"340 684 LINE",
"279 684 LINE",
"347 776 LINE",
"281 776 LINE",
"214 692 LINE",
"214 584 LINE"
);
}
);
width = 631;
},
{
anchors = (
{
name = _top;
position = "{279, 536}";
}
);
background = {
anchors = (
{
name = _top;
position = "{287, 550}";
}
);
components = (
{
name = g;
transform = "{1, 0, 0, 1, 4, 0}";
}
);
paths = (
{
closed = 1;
nodes = (
"306 632 LINE SMOOTH",
"310 632 OFFCURVE",
"313 634 OFFCURVE",
"313 640 CURVE SMOOTH",
"313 706 LINE SMOOTH",
"313 713 OFFCURVE",
"311 715 OFFCURVE",
"305 715 CURVE SMOOTH",
"297 715 LINE SMOOTH",
"292 715 OFFCURVE",
"290 718 OFFCURVE",
"293 724 CURVE SMOOTH",
"318 778 LINE SMOOTH",
"320 782 OFFCURVE",
"318 786 OFFCURVE",
"314 786 CURVE SMOOTH",
"301 786 LINE SMOOTH",
"293 786 OFFCURVE",
"290 785 OFFCURVE",
"287 780 CURVE SMOOTH",
"256 721 LINE SMOOTH",
"256 720 OFFCURVE",
"255 717 OFFCURVE",
"255 715 CURVE SMOOTH",
"255 639 LINE SMOOTH",
"255 634 OFFCURVE",
"257 632 OFFCURVE",
"261 632 CURVE SMOOTH"
);
}
);
};
components = (
{
name = g;
}
);
layerId = "91AB5BCA-6A50-42DA-B2F7-8181BF189245";
paths = (
{
closed = 1;
nodes = (
"304 616 LINE",
"304 697 LINE",
"281 697 LINE",
"313 766 LINE",
"282 766 LINE",
"248 701 LINE",
"248 616 LINE"
);
}
);
width = 604;
}
);
leftKerningGroup = g;
leftMetricsKey = g;
rightKerningGroup = g;
rightMetricsKey = g;
unicode = 0123;
},
{
glyphname = h;
lastChange = "2019-04-13 20:28:50 +0000";
layers = (
{
anchors = (
{
name = bottom;
position = "{307, 0}";
},
{
name = top;
position = "{443, 517}";
}
);
background = {
anchors = (
{
name = bottom;
position = "{296, 0}";
},
{
name = top;
position = "{435, 530}";
}
);
paths = (
{
closed = 1;
nodes = (
"199 0 LINE SMOOTH",
"223 0 OFFCURVE",
"232 8 OFFCURVE",
"232 29 CURVE SMOOTH",
"232 349 LINE",
"251 383 OFFCURVE",
"275 399 OFFCURVE",
"306 399 CURVE SMOOTH",
"338 399 OFFCURVE",
"358 381 OFFCURVE",
"358 351 CURVE SMOOTH",
"358 25 LINE SMOOTH",
"358 6 OFFCURVE",
"364 0 OFFCURVE",
"381 0 CURVE SMOOTH",
"528 0 LINE SMOOTH",
"549 0 OFFCURVE",
"558 10 OFFCURVE",
"558 30 CURVE SMOOTH",
"558 375 LINE SMOOTH",
"558 481 OFFCURVE",
"501 540 OFFCURVE",
"402 540 CURVE SMOOTH",
"349 540 OFFCURVE",
"299 523 OFFCURVE",
"242 468 CURVE SMOOTH",
"234 461 OFFCURVE",
"229 464 OFFCURVE",
"229 472 CURVE SMOOTH",
"229 721 LINE SMOOTH",
"229 734 OFFCURVE",
"223 742 OFFCURVE",
"211 742 CURVE SMOOTH",
"51 742 LINE SMOOTH",
"39 742 OFFCURVE",
"32 733 OFFCURVE",
"32 719 CURVE SMOOTH",
"32 25 LINE SMOOTH",
"32 7 OFFCURVE",
"39 0 OFFCURVE",
"58 0 CURVE SMOOTH"
);
}
);
};
layerId = "258ED206-D907-4350-8EBA-CBDDA1C16BF7";
paths = (
{
closed = 1;
nodes = (
"245 0 LINE",
"245 321 LINE",
"245 350 OFFCURVE",
"277 370 OFFCURVE",
"306 370 CURVE SMOOTH",
"335 370 OFFCURVE",
"367 352 OFFCURVE",
"367 323 CURVE SMOOTH",
"367 0 LINE",
"562 0 LINE",
"562 346 LINE SMOOTH",
"562 449 OFFCURVE",
"478 517 OFFCURVE",
"381 517 CURVE SMOOTH",
"300 517 OFFCURVE",
"269 483 OFFCURVE",
"245 453 CURVE",
"245 743 LINE",
"50 743 LINE",
"50 0 LINE"
);
}
);
width = 608;
},
{
anchors = (
{
name = bottom;
position = "{301, 0}";
},
{
name = top;
position = "{323, 517}";
}
);
background = {
anchors = (
{
name = bottom;
position = "{310, 0}";
},
{
name = top;
position = "{332, 530}";
}
);
paths = (
{
closed = 1;
nodes = (
"129 0 LINE SMOOTH",
"135 0 OFFCURVE",
"138 3 OFFCURVE",
"138 9 CURVE SMOOTH",
"138 410 LINE",
"218 471 OFFCURVE",
"265 502 OFFCURVE",
"336 502 CURVE SMOOTH",
"423 502 OFFCURVE",
"459 455 OFFCURVE",
"459 377 CURVE SMOOTH",
"459 9 LINE SMOOTH",
"459 3 OFFCURVE",
"462 0 OFFCURVE",
"468 0 CURVE SMOOTH",
"490 0 LINE SMOOTH",
"496 0 OFFCURVE",
"499 3 OFFCURVE",
"499 10 CURVE SMOOTH",
"499 393 LINE SMOOTH",
"499 480 OFFCURVE",
"444 540 OFFCURVE",
"337 540 CURVE SMOOTH",
"264 540 OFFCURVE",
"219 511 OFFCURVE",
"143 457 CURVE SMOOTH",
"137 452 OFFCURVE",
"135 453 OFFCURVE",
"135 460 CURVE SMOOTH",
"135 734 LINE SMOOTH",
"135 740 OFFCURVE",
"133 742 OFFCURVE",
"127 742 CURVE SMOOTH",
"106 742 LINE SMOOTH",
"100 742 OFFCURVE",
"98 739 OFFCURVE",
"98 733 CURVE SMOOTH",
"98 9 LINE SMOOTH",
"98 3 OFFCURVE",
"101 0 OFFCURVE",
"107 0 CURVE SMOOTH"
);
}
);
};
layerId = "91AB5BCA-6A50-42DA-B2F7-8181BF189245";
paths = (
{
closed = 1;
nodes = (
"134 0 LINE",
"134 360 LINE",
"134 448 OFFCURVE",
"213 489 OFFCURVE",
"305 489 CURVE SMOOTH",
"393 489 OFFCURVE",
"447 444 OFFCURVE",
"447 368 CURVE SMOOTH",
"447 0 LINE",
"486 0 LINE",
"486 383 LINE SMOOTH",
"486 468 OFFCURVE",
"409 527 OFFCURVE",
"306 527 CURVE SMOOTH",
"222 527 OFFCURVE",
"158 489 OFFCURVE",
"131 440 CURVE",
"131 743 LINE",
"95 743 LINE",
"95 0 LINE"
);
}
);
width = 576;
}
);
leftKerningGroup = h;
leftMetricsKey = n;
rightKerningGroup = n;
rightMetricsKey = n;
unicode = 0068;
},
{
glyphname = hbar;
lastChange = "2019-04-14 21:43:27 +0000";
layers = (
{
background = {
components = (
{
name = h;
transform = "{1, 0, 0, 1, 3, 0}";
}
);
paths = (
{
closed = 1;
nodes = (
"374 680 OFFCURVE",
"368 687 OFFCURVE",
"358 687 CURVE SMOOTH",
"19 687 LINE SMOOTH",
"9 687 OFFCURVE",
"3 680 OFFCURVE",
"3 667 CURVE SMOOTH",
"3 602 LINE SMOOTH",
"3 587 OFFCURVE",
"8 580 OFFCURVE",
"25 580 CURVE SMOOTH",
"345 580 LINE SMOOTH",
"365 580 OFFCURVE",
"374 587 OFFCURVE",
"374 604 CURVE SMOOTH",
"374 669 LINE SMOOTH"
);
}
);
};
components = (
{
name = h;
transform = "{1, 0, 0, 1, 41, 0}";
}
);
layerId = "258ED206-D907-4350-8EBA-CBDDA1C16BF7";
paths = (
{
closed = 1;
nodes = (
"22 670 LINE",
"22 566 LINE",
"383 566 LINE",
"383 670 LINE"
);
}
);
width = 649;
},
{
background = {
components = (
{
name = h;
}
);
paths = (
{
closed = 1;
nodes = (
"309 660 OFFCURVE",
"307 662 OFFCURVE",
"304 662 CURVE SMOOTH",
"25 662 LINE SMOOTH",
"22 662 OFFCURVE",
"20 660 OFFCURVE",
"20 655 CURVE SMOOTH",
"20 635 LINE SMOOTH",
"20 629 OFFCURVE",
"21 627 OFFCURVE",
"27 627 CURVE SMOOTH",
"299 627 LINE SMOOTH",
"306 627 OFFCURVE",
"309 629 OFFCURVE",
"309 635 CURVE SMOOTH",
"309 656 LINE SMOOTH"
);
}
);
};
components = (
{
name = h;
transform = "{1, 0, 0, 1, -4, 0}";
}
);
layerId = "91AB5BCA-6A50-42DA-B2F7-8181BF189245";
paths = (
{
closed = 1;
nodes = (
"18 645 LINE",
"18 611 LINE",
"300 611 LINE",
"300 645 LINE"
);
}
);
width = 572;
}
);
leftKerningGroup = h;
rightKerningGroup = n;
rightMetricsKey = h;
unicode = 0127;
},
{
glyphname = i;
lastChange = "2019-04-14 20:54:14 +0000";
layers = (
{
anchors = (
{
name = bottom;
position = "{148, 0}";
}
);
background = {
paths = (
{
closed = 1;
nodes = (
"232 522 OFFCURVE",
"225 530 OFFCURVE",
"214 530 CURVE SMOOTH",
"51 530 LINE SMOOTH",
"39 530 OFFCURVE",
"32 522 OFFCURVE",
"32 507 CURVE SMOOTH",
"32 25 LINE SMOOTH",
"32 8 OFFCURVE",
"38 0 OFFCURVE",
"58 0 CURVE SMOOTH",
"199 0 LINE SMOOTH",
"222 0 OFFCURVE",
"232 8 OFFCURVE",
"232 29 CURVE SMOOTH",
"232 510 LINE SMOOTH"
);
},
{
closed = 1;
nodes = (
"232 734 OFFCURVE",
"225 742 OFFCURVE",
"214 742 CURVE SMOOTH",
"51 742 LINE SMOOTH",
"39 742 OFFCURVE",
"32 734 OFFCURVE",
"32 719 CURVE SMOOTH",
"32 600 LINE SMOOTH",
"32 583 OFFCURVE",
"38 574 OFFCURVE",
"58 574 CURVE SMOOTH",
"199 574 LINE SMOOTH",
"222 574 OFFCURVE",
"232 583 OFFCURVE",
"232 603 CURVE SMOOTH",
"232 721 LINE SMOOTH"
);
}
);
};
layerId = "258ED206-D907-4350-8EBA-CBDDA1C16BF7";
paths = (
{
closed = 1;
nodes = (
"50 517 LINE",
"50 0 LINE",
"245 0 LINE",
"245 517 LINE"
);
},
{
closed = 1;
nodes = (
"50 743 LINE",
"50 579 LINE",
"245 579 LINE",
"245 743 LINE"
);
}
);
width = 291;
},
{
anchors = (
{
name = bottom;
position = "{123, 0}";
}
);
background = {
paths = (
{
closed = 1;
nodes = (
"147 528 OFFCURVE",
"145 530 OFFCURVE",
"138 530 CURVE SMOOTH",
"116 530 LINE SMOOTH",
"109 530 OFFCURVE",
"107 528 OFFCURVE",
"107 520 CURVE SMOOTH",
"107 10 LINE SMOOTH",
"107 2 OFFCURVE",
"109 0 OFFCURVE",
"118 0 CURVE SMOOTH",
"135 0 LINE SMOOTH",
"145 0 OFFCURVE",
"147 2 OFFCURVE",
"147 12 CURVE SMOOTH",
"147 520 LINE SMOOTH"
);
},
{
closed = 1;
nodes = (
"152 737 OFFCURVE",
"147 742 OFFCURVE",
"140 742 CURVE SMOOTH",
"114 742 LINE SMOOTH",
"107 742 OFFCURVE",
"102 737 OFFCURVE",
"102 729 CURVE SMOOTH",
"102 658 LINE SMOOTH",
"102 650 OFFCURVE",
"104 644 OFFCURVE",
"113 644 CURVE SMOOTH",
"140 644 LINE SMOOTH",
"150 644 OFFCURVE",
"152 650 OFFCURVE",
"152 660 CURVE SMOOTH",
"152 729 LINE SMOOTH"
);
}
);
};
layerId = "91AB5BCA-6A50-42DA-B2F7-8181BF189245";
paths = (
{
closed = 1;
nodes = (
"104 517 LINE",
"104 0 LINE",
"143 0 LINE",
"143 517 LINE"
);
},
{
closed = 1;
nodes = (
"99 707 LINE",
"99 647 LINE",
"147 647 LINE",
"147 707 LINE"
);
}
);
width = 246;
}
);
leftKerningGroup = n;
rightKerningGroup = d;
unicode = 0069;
},
{
glyphname = idotless;
lastChange = "2019-04-14 21:43:48 +0000";
layers = (
{
anchors = (
{
name = ogonek;
position = "{217, 9}";
},
{
name = top;
position = "{151, 517}";
}
);
background = {
anchors = (
{
name = ogonek;
position = "{204, 9}";
},
{
name = top;
position = "{136, 530}";
}
);
paths = (
{
closed = 1;
nodes = (
"232 522 OFFCURVE",
"225 530 OFFCURVE",
"214 530 CURVE SMOOTH",
"51 530 LINE SMOOTH",
"39 530 OFFCURVE",
"32 522 OFFCURVE",
"32 507 CURVE SMOOTH",
"32 25 LINE SMOOTH",
"32 8 OFFCURVE",
"38 0 OFFCURVE",
"58 0 CURVE SMOOTH",
"199 0 LINE SMOOTH",
"222 0 OFFCURVE",
"232 8 OFFCURVE",
"232 29 CURVE SMOOTH",
"232 510 LINE SMOOTH"
);
}
);
};
layerId = "258ED206-D907-4350-8EBA-CBDDA1C16BF7";
paths = (
{
closed = 1;
nodes = (
"50 517 LINE",
"50 0 LINE",
"245 0 LINE",
"245 517 LINE"
);
}
);
width = 291;
},
{
anchors = (
{
name = ogonek;
position = "{130, 13}";
},
{
name = top;
position = "{118, 517}";
}
);
background = {
anchors = (
{
name = ogonek;
position = "{134, 13}";
},
{
name = top;
position = "{122, 530}";
}
);
paths = (
{
closed = 1;
nodes = (
"142 528 OFFCURVE",
"140 530 OFFCURVE",
"133 530 CURVE SMOOTH",
"111 530 LINE SMOOTH",
"104 530 OFFCURVE",
"102 528 OFFCURVE",
"102 520 CURVE SMOOTH",
"102 10 LINE SMOOTH",
"102 2 OFFCURVE",
"104 0 OFFCURVE",
"113 0 CURVE SMOOTH",
"130 0 LINE SMOOTH",
"140 0 OFFCURVE",
"142 2 OFFCURVE",
"142 12 CURVE SMOOTH",
"142 520 LINE SMOOTH"
);
}
);
};
layerId = "91AB5BCA-6A50-42DA-B2F7-8181BF189245";
paths = (
{
closed = 1;
nodes = (
"99 517 LINE",
"99 0 LINE",
"138 0 LINE",
"138 517 LINE"
);
}
);
width = 237;
}
);
leftKerningGroup = n;
leftMetricsKey = i;
rightKerningGroup = d;
rightMetricsKey = i;
unicode = 0131;
},
{
glyphname = j;
lastChange = "2019-04-14 21:43:58 +0000";
layers = (
{
background = {
paths = (
{
closed = 1;
nodes = (
"250 510 LINE SMOOTH",
"250 522 OFFCURVE",
"244 530 OFFCURVE",
"232 530 CURVE SMOOTH",
"70 530 LINE SMOOTH",
"58 530 OFFCURVE",
"50 522 OFFCURVE",
"50 507 CURVE SMOOTH",
"50 36 LINE SMOOTH",
"50 2 OFFCURVE",
"39 -6 OFFCURVE",
"26 -10 CURVE SMOOTH",
"-9 -16 LINE SMOOTH",
"-22 -19 OFFCURVE",
"-29 -32 OFFCURVE",
"-29 -43 CURVE SMOOTH",
"-28 -145 LINE SMOOTH",
"-28 -166 OFFCURVE",
"-16 -170 OFFCURVE",
"40 -170 CURVE SMOOTH",
"182 -170 OFFCURVE",
"250 -103 OFFCURVE",
"250 29 CURVE SMOOTH"
);
},
{
closed = 1;
nodes = (
"250 734 OFFCURVE",
"244 742 OFFCURVE",
"232 742 CURVE SMOOTH",
"70 742 LINE SMOOTH",
"58 742 OFFCURVE",
"50 734 OFFCURVE",
"50 719 CURVE SMOOTH",
"50 600 LINE SMOOTH",
"50 583 OFFCURVE",
"57 574 OFFCURVE",
"77 574 CURVE SMOOTH",
"218 574 LINE SMOOTH",
"218 574 OFFCURVE",
"250 583 OFFCURVE",
"250 603 CURVE SMOOTH",
"250 721 LINE SMOOTH"
);
}
);
};
layerId = "258ED206-D907-4350-8EBA-CBDDA1C16BF7";
paths = (
{
closed = 1;
nodes = (
"262 517 LINE",
"67 517 LINE",
"67 28 LINE",
"67 7 OFFCURVE",
"57 -6 OFFCURVE",
"20 -14 CURVE",
"-10 -19 LINE",
"-9 -149 LINE",
"-9 -149 OFFCURVE",
"6 -166 OFFCURVE",
"58 -166 CURVE",
"196 -166 OFFCURVE",
"262 -100 OFFCURVE",
"262 28 CURVE SMOOTH"
);
},
{
closed = 1;
nodes = (
"67 743 LINE",
"67 579 LINE",
"262 579 LINE",
"262 743 LINE"
);
}
);
width = 316;
},
{
background = {
paths = (
{
closed = 1;
nodes = (
"147 520 LINE SMOOTH",
"147 527 OFFCURVE",
"145 530 OFFCURVE",
"139 530 CURVE SMOOTH",
"117 530 LINE SMOOTH",
"110 530 OFFCURVE",
"107 527 OFFCURVE",
"107 520 CURVE SMOOTH",
"107 -46 LINE SMOOTH",
"107 -110 OFFCURVE",
"86 -132 OFFCURVE",
"33 -133 CURVE SMOOTH",
"-25 -134 LINE SMOOTH",
"-29 -134 OFFCURVE",
"-31 -136 OFFCURVE",
"-31 -140 CURVE SMOOTH",
"-31 -161 LINE SMOOTH",
"-31 -169 OFFCURVE",
"-25 -170 OFFCURVE",
"34 -170 CURVE SMOOTH",
"125 -170 OFFCURVE",
"147 -133 OFFCURVE",
"147 -51 CURVE SMOOTH"
);
},
{
closed = 1;
nodes = (
"152 737 OFFCURVE",
"147 742 OFFCURVE",
"140 742 CURVE SMOOTH",
"114 742 LINE SMOOTH",
"107 742 OFFCURVE",
"102 737 OFFCURVE",
"102 729 CURVE SMOOTH",
"102 658 LINE SMOOTH",
"102 650 OFFCURVE",
"104 644 OFFCURVE",
"113 644 CURVE SMOOTH",
"140 644 LINE SMOOTH",
"150 644 OFFCURVE",
"152 650 OFFCURVE",
"152 660 CURVE SMOOTH",
"152 729 LINE SMOOTH"
);
}
);
};
layerId = "91AB5BCA-6A50-42DA-B2F7-8181BF189245";
paths = (
{
closed = 1;
nodes = (
"142 517 LINE",
"103 517 LINE",
"103 -45 LINE SMOOTH",
"103 -107 OFFCURVE",
"83 -129 OFFCURVE",
"31 -130 CURVE SMOOTH",
"-31 -131 LINE",
"-31 -157 LINE SMOOTH",
"-31 -157 OFFCURVE",
"-26 -166 OFFCURVE",
"32 -166 CURVE SMOOTH",
"121 -166 OFFCURVE",
"142 -130 OFFCURVE",
"142 -50 CURVE SMOOTH"
);
},
{
closed = 1;
nodes = (
"99 707 LINE",
"99 647 LINE",
"147 647 LINE",
"147 707 LINE"
);
}
);
width = 236;
}
);
leftKerningGroup = n;
rightKerningGroup = d;
unicode = 006A;
},
{
glyphname = jdotless;
lastChange = "2019-04-14 21:43:58 +0000";
layers = (
{
anchors = (
{
name = top;
position = "{157, 517}";
}
);
background = {
anchors = (
{
name = top;
position = "{142, 530}";
}
);
paths = (
{
closed = 1;
nodes = (
"242 510 LINE SMOOTH",
"242 522 OFFCURVE",
"236 530 OFFCURVE",
"224 530 CURVE SMOOTH",
"62 530 LINE SMOOTH",
"50 530 OFFCURVE",
"42 522 OFFCURVE",
"42 507 CURVE SMOOTH",
"42 36 LINE SMOOTH",
"42 2 OFFCURVE",
"31 -6 OFFCURVE",
"18 -10 CURVE SMOOTH",
"-17 -16 LINE SMOOTH",
"-30 -19 OFFCURVE",
"-37 -32 OFFCURVE",
"-37 -43 CURVE SMOOTH",
"-36 -145 LINE SMOOTH",
"-36 -166 OFFCURVE",
"-24 -170 OFFCURVE",
"32 -170 CURVE SMOOTH",
"174 -170 OFFCURVE",
"242 -103 OFFCURVE",
"242 29 CURVE SMOOTH"
);
}
);
};
layerId = "258ED206-D907-4350-8EBA-CBDDA1C16BF7";
paths = (
{
closed = 1;
nodes = (
"255 517 LINE",
"60 517 LINE",
"60 28 LINE",
"60 7 OFFCURVE",
"49 -6 OFFCURVE",
"12 -14 CURVE",
"-17 -19 LINE",
"-16 -149 LINE",
"-16 -149 OFFCURVE",
"-2 -166 OFFCURVE",
"50 -166 CURVE",
"188 -166 OFFCURVE",
"255 -100 OFFCURVE",
"255 28 CURVE SMOOTH"
);
}
);
width = 323;
},
{
anchors = (
{
name = top;
position = "{107, 517}";
}
);
background = {
anchors = (
{
name = top;
position = "{111, 530}";
}
);
paths = (
{
closed = 1;
nodes = (
"131 520 LINE SMOOTH",
"131 527 OFFCURVE",
"129 530 OFFCURVE",
"123 530 CURVE SMOOTH",
"101 530 LINE SMOOTH",
"94 530 OFFCURVE",
"91 527 OFFCURVE",
"91 520 CURVE SMOOTH",
"91 -46 LINE SMOOTH",
"91 -110 OFFCURVE",
"70 -132 OFFCURVE",
"17 -133 CURVE SMOOTH",
"-41 -134 LINE SMOOTH",
"-45 -134 OFFCURVE",
"-47 -136 OFFCURVE",
"-47 -140 CURVE SMOOTH",
"-47 -161 LINE SMOOTH",
"-47 -169 OFFCURVE",
"-41 -170 OFFCURVE",
"18 -170 CURVE SMOOTH",
"109 -170 OFFCURVE",
"131 -133 OFFCURVE",
"131 -51 CURVE SMOOTH"
);
}
);
};
layerId = "91AB5BCA-6A50-42DA-B2F7-8181BF189245";
paths = (
{
closed = 1;
nodes = (
"127 517 LINE",
"88 517 LINE",
"88 -45 LINE SMOOTH",
"88 -107 OFFCURVE",
"67 -129 OFFCURVE",
"16 -130 CURVE SMOOTH",
"-47 -131 LINE",
"-47 -157 LINE SMOOTH",
"-47 -165 OFFCURVE",
"-41 -166 OFFCURVE",
"17 -166 CURVE SMOOTH",
"105 -166 OFFCURVE",
"127 -130 OFFCURVE",
"127 -50 CURVE SMOOTH"
);
}
);
width = 214;
}
);
leftKerningGroup = n;
rightKerningGroup = d;
unicode = 0237;
},
{
glyphname = k;
lastChange = "2019-04-14 20:29:02 +0000";
layers = (
{
anchors = (
{
name = bottom;
position = "{303, 0}";
}
);
background = {
anchors = (
{
name = bottom;
position = "{292, 0}";
}
);
paths = (
{
closed = 1;
nodes = (
"445 337 LINE SMOOTH",
"436 355 OFFCURVE",
"438 361 OFFCURVE",
"447 372 CURVE SMOOTH",
"576 501 LINE SMOOTH",
"589 515 OFFCURVE",
"585 530 OFFCURVE",
"562 530 CURVE SMOOTH",
"425 530 LINE SMOOTH",
"415 530 OFFCURVE",
"404 523 OFFCURVE",
"394 513 CURVE SMOOTH",
"244 344 LINE SMOOTH",
"236 335 OFFCURVE",
"232 340 OFFCURVE",
"232 346 CURVE SMOOTH",
"232 721 LINE SMOOTH",
"232 734 OFFCURVE",
"226 742 OFFCURVE",
"214 742 CURVE SMOOTH",
"51 742 LINE SMOOTH",
"40 742 OFFCURVE",
"32 734 OFFCURVE",
"32 719 CURVE SMOOTH",
"32 25 LINE SMOOTH",
"32 8 OFFCURVE",
"38 0 OFFCURVE",
"59 0 CURVE SMOOTH",
"200 0 LINE SMOOTH",
"223 0 OFFCURVE",
"232 8 OFFCURVE",
"232 29 CURVE SMOOTH",
"232 130 LINE SMOOTH",
"232 146 OFFCURVE",
"235 153 OFFCURVE",
"241 158 CURVE SMOOTH",
"289 203 LINE SMOOTH",
"299 213 OFFCURVE",
"304 211 OFFCURVE",
"310 198 CURVE SMOOTH",
"382 26 LINE SMOOTH",
"389 10 OFFCURVE",
"398 0 OFFCURVE",
"415 0 CURVE SMOOTH",
"586 0 LINE SMOOTH",
"604 0 OFFCURVE",
"611 17 OFFCURVE",
"605 28 CURVE SMOOTH"
);
}
);
};
guideLines = (
{
angle = 50.4927;
position = "{245, 343}";
},
{
angle = 122;
position = "{386, 0}";
}
);
layerId = "258ED206-D907-4350-8EBA-CBDDA1C16BF7";
paths = (
{
closed = 1;
nodes = (
"401 303 LINE",
"590 517 LINE",
"387 517 LINE",
"245 343 LINE",
"245 743 LINE",
"50 743 LINE",
"50 0 LINE",
"245 0 LINE",
"245 146 LINE",
"283 190 LINE",
"402 0 LINE",
"591 0 LINE"
);
}
);
width = 599;
},
{
anchors = (
{
name = bottom;
position = "{272, 0}";
}
);
background = {
anchors = (
{
name = bottom;
position = "{280, 0}";
}
);
paths = (
{
closed = 1;
nodes = (
"313 331 LINE SMOOTH",
"310 336 OFFCURVE",
"311 339 OFFCURVE",
"314 342 CURVE SMOOTH",
"483 515 LINE SMOOTH",
"492 524 OFFCURVE",
"491 530 OFFCURVE",
"481 530 CURVE SMOOTH",
"449 530 LINE SMOOTH",
"442 530 OFFCURVE",
"439 528 OFFCURVE",
"432 520 CURVE",
"148 229 LINE SMOOTH",
"140 221 OFFCURVE",
"138 222 OFFCURVE",
"138 234 CURVE SMOOTH",
"138 732 LINE SMOOTH",
"138 740 OFFCURVE",
"136 742 OFFCURVE",
"129 742 CURVE SMOOTH",
"107 742 LINE SMOOTH",
"100 742 OFFCURVE",
"98 740 OFFCURVE",
"98 732 CURVE SMOOTH",
"98 10 LINE SMOOTH",
"98 2 OFFCURVE",
"100 0 OFFCURVE",
"109 0 CURVE SMOOTH",
"126 0 LINE SMOOTH",
"136 0 OFFCURVE",
"138 2 OFFCURVE",
"138 12 CURVE SMOOTH",
"138 152 LINE SMOOTH",
"138 159 OFFCURVE",
"140 164 OFFCURVE",
"145 169 CURVE SMOOTH",
"273 299 LINE SMOOTH",
"278 304 OFFCURVE",
"279 302 OFFCURVE",
"281 299 CURVE SMOOTH",
"463 7 LINE SMOOTH",
"466 2 OFFCURVE",
"469 0 OFFCURVE",
"475 0 CURVE SMOOTH",
"506 0 LINE SMOOTH",
"515 0 OFFCURVE",
"516 4 OFFCURVE",
"511 12 CURVE SMOOTH"
);
}
);
};
guideLines = (
{
angle = 121.8697;
position = "{303, 140}";
}
);
layerId = "91AB5BCA-6A50-42DA-B2F7-8181BF189245";
paths = (
{
closed = 1;
nodes = (
"300 329 LINE",
"485 517 LINE",
"430 517 LINE",
"134 214 LINE",
"134 743 LINE",
"95 743 LINE",
"95 0 LINE",
"134 0 LINE",
"134 158 LINE",
"270 296 LINE",
"454 0 LINE",
"504 0 LINE"
);
}
);
width = 548;
}
);
leftKerningGroup = h;
leftMetricsKey = n;
rightKerningGroup = k;
unicode = 006B;
},
{
glyphname = kgreenlandic;
lastChange = "2019-04-14 21:44:08 +0000";
layers = (
{
background = {
paths = (
{
closed = 1;
nodes = (
"445 337 LINE SMOOTH",
"436 355 OFFCURVE",
"438 361 OFFCURVE",
"447 372 CURVE SMOOTH",
"576 501 LINE SMOOTH",
"589 515 OFFCURVE",
"585 530 OFFCURVE",
"562 530 CURVE SMOOTH",
"425 530 LINE SMOOTH",
"415 530 OFFCURVE",
"404 523 OFFCURVE",
"394 513 CURVE SMOOTH",
"244 344 LINE SMOOTH",
"236 335 OFFCURVE",
"232 340 OFFCURVE",
"232 346 CURVE SMOOTH",
"232 509 LINE SMOOTH",
"232 522 OFFCURVE",
"226 530 OFFCURVE",
"214 530 CURVE SMOOTH",
"51 530 LINE SMOOTH",
"40 530 OFFCURVE",
"32 522 OFFCURVE",
"32 507 CURVE SMOOTH",
"32 25 LINE SMOOTH",
"32 8 OFFCURVE",
"38 0 OFFCURVE",
"59 0 CURVE SMOOTH",
"200 0 LINE SMOOTH",
"223 0 OFFCURVE",
"232 8 OFFCURVE",
"232 29 CURVE SMOOTH",
"232 130 LINE SMOOTH",
"232 146 OFFCURVE",
"235 153 OFFCURVE",
"241 158 CURVE SMOOTH",
"289 203 LINE SMOOTH",
"299 213 OFFCURVE",
"304 211 OFFCURVE",
"310 198 CURVE SMOOTH",
"382 26 LINE SMOOTH",
"389 10 OFFCURVE",
"398 0 OFFCURVE",
"415 0 CURVE SMOOTH",
"586 0 LINE SMOOTH",
"604 0 OFFCURVE",
"611 17 OFFCURVE",
"605 28 CURVE SMOOTH"
);
}
);
};
layerId = "258ED206-D907-4350-8EBA-CBDDA1C16BF7";
paths = (
{
closed = 1;
nodes = (
"442 350 LINE",
"608 517 LINE",
"417 517 LINE",
"245 322 LINE",
"245 517 LINE",
"50 517 LINE",
"50 0 LINE",
"245 0 LINE",
"245 146 LINE",
"314 211 LINE",
"402 0 LINE",
"622 0 LINE"
);
}
);
width = 630;
},
{
background = {
paths = (
{
closed = 1;
nodes = (
"313 331 LINE SMOOTH",
"310 336 OFFCURVE",
"311 339 OFFCURVE",
"314 342 CURVE SMOOTH",
"483 515 LINE SMOOTH",
"492 524 OFFCURVE",
"491 530 OFFCURVE",
"481 530 CURVE SMOOTH",
"449 530 LINE SMOOTH",
"442 530 OFFCURVE",
"439 528 OFFCURVE",
"432 520 CURVE",
"148 229 LINE SMOOTH",
"140 221 OFFCURVE",
"138 222 OFFCURVE",
"138 234 CURVE SMOOTH",
"138 520 LINE SMOOTH",
"138 528 OFFCURVE",
"136 530 OFFCURVE",
"129 530 CURVE SMOOTH",
"107 530 LINE SMOOTH",
"100 530 OFFCURVE",
"98 528 OFFCURVE",
"98 520 CURVE SMOOTH",
"98 10 LINE SMOOTH",
"98 2 OFFCURVE",
"100 0 OFFCURVE",
"109 0 CURVE SMOOTH",
"126 0 LINE SMOOTH",
"136 0 OFFCURVE",
"138 2 OFFCURVE",
"138 12 CURVE SMOOTH",
"138 152 LINE SMOOTH",
"138 159 OFFCURVE",
"140 164 OFFCURVE",
"145 169 CURVE SMOOTH",
"273 299 LINE SMOOTH",
"278 304 OFFCURVE",
"279 302 OFFCURVE",
"281 299 CURVE SMOOTH",
"463 7 LINE SMOOTH",
"466 2 OFFCURVE",
"469 0 OFFCURVE",
"475 0 CURVE SMOOTH",
"506 0 LINE SMOOTH",
"515 0 OFFCURVE",
"516 4 OFFCURVE",
"511 12 CURVE SMOOTH"
);
}
);
};
layerId = "91AB5BCA-6A50-42DA-B2F7-8181BF189245";
paths = (
{
closed = 1;
nodes = (
"300 329 LINE",
"485 517 LINE",
"430 517 LINE",
"134 214 LINE",
"134 517 LINE",
"95 517 LINE",
"95 0 LINE",
"134 0 LINE",
"134 158 LINE",
"270 296 LINE",
"454 0 LINE",
"504 0 LINE"
);
}
);
width = 548;
}
);
leftKerningGroup = h;
leftMetricsKey = k;
rightKerningGroup = k;
rightMetricsKey = k;
unicode = 0138;
},
{
glyphname = l;
lastChange = "2019-04-14 20:29:12 +0000";
layers = (
{
anchors = (
{
name = bottom;
position = "{133, 0}";
},
{
name = top;
position = "{147, 765}";
},
{
name = topright;
position = "{390, 765}";
}
);
background = {
anchors = (
{
name = bottom;
position = "{76, 0}";
},
{
name = top;
position = "{132, 742}";
},
{
name = topright;
position = "{319, 530}";
}
);
paths = (
{
closed = 1;
nodes = (
"309 129 LINE",
"309 129 OFFCURVE",
"283 131 OFFCURVE",
"274 133 CURVE SMOOTH",
"235 142 OFFCURVE",
"228 163 OFFCURVE",
"228 190 CURVE SMOOTH",
"228 742 LINE",
"31 742 LINE",
"28 173 LINE",
"28 95 OFFCURVE",
"39 -1 OFFCURVE",
"234 2 CURVE SMOOTH",
"260 3 OFFCURVE",
"276 5 OFFCURVE",
"309 9 CURVE"
);
}
);
};
layerId = "258ED206-D907-4350-8EBA-CBDDA1C16BF7";
paths = (
{
closed = 1;
nodes = (
"272 -11 OFFCURVE",
"297 -4 OFFCURVE",
"320 5 CURVE",
"320 123 LINE",
"299 125 LINE",
"247 132 OFFCURVE",
"241 157 OFFCURVE",
"241 182 CURVE SMOOTH",
"241 743 LINE",
"50 743 LINE",
"50 156 LINE",
"50 80 OFFCURVE",
"56 -11 OFFCURVE",
"247 -11 CURVE SMOOTH"
);
}
);
width = 340;
},
{
anchors = (
{
name = bottom;
position = "{137, 1}";
},
{
name = top;
position = "{113, 762}";
},
{
name = topright;
position = "{255, 723}";
}
);
background = {
anchors = (
{
name = bottom;
position = "{117, 0}";
},
{
name = top;
position = "{117, 742}";
},
{
name = topright;
position = "{262, 742}";
}
);
paths = (
{
closed = 1;
nodes = (
"247 36 LINE",
"237 36 OFFCURVE",
"224 36 OFFCURVE",
"208 36 CURVE SMOOTH",
"144 36 OFFCURVE",
"137 87 OFFCURVE",
"137 130 CURVE",
"137 742 LINE",
"97 742 LINE",
"97 130 LINE",
"97 57 OFFCURVE",
"125 2 OFFCURVE",
"196 2 CURVE SMOOTH",
"220 2 OFFCURVE",
"234 3 OFFCURVE",
"247 6 CURVE"
);
}
);
};
layerId = "91AB5BCA-6A50-42DA-B2F7-8181BF189245";
paths = (
{
closed = 1;
nodes = (
"200 -4 OFFCURVE",
"214 -3 OFFCURVE",
"226 0 CURVE",
"226 29 LINE",
"194 29 LINE",
"166 29 OFFCURVE",
"136 54 OFFCURVE",
"136 121 CURVE",
"136 743 LINE",
"97 743 LINE",
"97 121 LINE",
"97 50 OFFCURVE",
"124 -4 OFFCURVE",
"193 -4 CURVE SMOOTH"
);
}
);
width = 273;
}
);
leftKerningGroup = h;
rightKerningGroup = l;
unicode = 006C;
},
{
glyphname = lslash;
lastChange = "2019-04-14 21:44:16 +0000";
layers = (
{
background = {
components = (
{
name = l;
transform = "{1, 0, 0, 1, 40, 0}";
}
);
paths = (
{
closed = 1;
nodes = (
"344 507 OFFCURVE",
"337 511 OFFCURVE",
"320 500 CURVE SMOOTH",
"39 324 LINE SMOOTH",
"27 316 OFFCURVE",
"20 305 OFFCURVE",
"20 290 CURVE SMOOTH",
"20 170 LINE SMOOTH",
"20 153 OFFCURVE",
"26 150 OFFCURVE",
"46 163 CURVE SMOOTH",
"324 345 LINE SMOOTH",
"337 354 OFFCURVE",
"344 366 OFFCURVE",
"344 378 CURVE SMOOTH",
"344 491 LINE SMOOTH"
);
}
);
};
components = (
{
name = l;
transform = "{1, 0, 0, 1, 78, 0}";
}
);
layerId = "258ED206-D907-4350-8EBA-CBDDA1C16BF7";
paths = (
{
closed = 1;
nodes = (
"38 304 LINE",
"38 142 LINE",
"354 349 LINE",
"354 502 LINE"
);
}
);
width = 402;
},
{
background = {
components = (
{
name = l;
transform = "{1, 0, 0, 1, 10, 0}";
}
);
paths = (
{
closed = 1;
nodes = (
"240 437 OFFCURVE",
"238 439 OFFCURVE",
"233 435 CURVE SMOOTH",
"8 225 LINE SMOOTH",
"5 222 OFFCURVE",
"3 219 OFFCURVE",
"3 215 CURVE SMOOTH",
"3 186 LINE SMOOTH",
"3 181 OFFCURVE",
"5 177 OFFCURVE",
"10 181 CURVE SMOOTH",
"234 392 LINE SMOOTH",
"238 396 OFFCURVE",
"240 399 OFFCURVE",
"240 403 CURVE SMOOTH",
"240 433 LINE SMOOTH"
);
}
);
};
components = (
{
name = l;
transform = "{1, 0, 0, 1, 6, 0}";
}
);
layerId = "91AB5BCA-6A50-42DA-B2F7-8181BF189245";
paths = (
{
closed = 1;
nodes = (
"2 215 LINE",
"2 170 LINE",
"233 388 LINE",
"233 431 LINE"
);
}
);
width = 218;
}
);
leftKerningGroup = h;
rightKerningGroup = l;
unicode = 0142;
},
{
glyphname = m;
lastChange = "2019-04-13 20:28:50 +0000";
layers = (
{
background = {
guideLines = (
{
angle = 90;
position = "{315, 331}";
showMeasurement = 1;
}
);
paths = (
{
closed = 1;
nodes = (
"199 0 LINE SMOOTH",
"223 0 OFFCURVE",
"232 8 OFFCURVE",
"232 29 CURVE SMOOTH",
"232 349 LINE",
"251 383 OFFCURVE",
"276 399 OFFCURVE",
"306 399 CURVE SMOOTH",
"338 399 OFFCURVE",
"358 381 OFFCURVE",
"358 351 CURVE SMOOTH",
"358 25 LINE SMOOTH",
"358 6 OFFCURVE",
"365 0 OFFCURVE",
"381 0 CURVE SMOOTH",
"527 0 LINE SMOOTH",
"548 0 OFFCURVE",
"557 10 OFFCURVE",
"557 30 CURVE SMOOTH",
"557 333 LINE SMOOTH",
"557 342 OFFCURVE",
"558 350 OFFCURVE",
"565 360 CURVE SMOOTH",
"580 381 OFFCURVE",
"606 399 OFFCURVE",
"631 399 CURVE SMOOTH",
"662 399 OFFCURVE",
"683 381 OFFCURVE",
"683 351 CURVE SMOOTH",
"683 25 LINE SMOOTH",
"683 6 OFFCURVE",
"689 0 OFFCURVE",
"706 0 CURVE SMOOTH",
"852 0 LINE SMOOTH",
"873 0 OFFCURVE",
"883 10 OFFCURVE",
"883 30 CURVE SMOOTH",
"883 373 LINE SMOOTH",
"883 480 OFFCURVE",
"819 540 OFFCURVE",
"729 540 CURVE SMOOTH",
"669 540 OFFCURVE",
"593 497 OFFCURVE",
"556 446 CURVE SMOOTH",
"551 440 OFFCURVE",
"546 440 OFFCURVE",
"544 445 CURVE SMOOTH",
"521 507 OFFCURVE",
"469 541 OFFCURVE",
"402 541 CURVE SMOOTH",
"341 541 OFFCURVE",
"285 507 OFFCURVE",
"242 461 CURVE SMOOTH",
"234 453 OFFCURVE",
"229 457 OFFCURVE",
"229 465 CURVE SMOOTH",
"229 510 LINE SMOOTH",
"229 522 OFFCURVE",
"223 530 OFFCURVE",
"211 530 CURVE SMOOTH",
"51 530 LINE SMOOTH",
"40 530 OFFCURVE",
"32 521 OFFCURVE",
"32 507 CURVE SMOOTH",
"32 25 LINE SMOOTH",
"32 7 OFFCURVE",
"39 0 OFFCURVE",
"58 0 CURVE SMOOTH"
);
}
);
};
guideLines = (
{
angle = 90;
position = "{615, 207}";
showMeasurement = 1;
}
);
layerId = "258ED206-D907-4350-8EBA-CBDDA1C16BF7";
paths = (
{
closed = 1;
nodes = (
"245 0 LINE",
"245 341 LINE",
"245 371 OFFCURVE",
"277 389 OFFCURVE",
"306 389 CURVE SMOOTH",
"335 389 OFFCURVE",
"367 371 OFFCURVE",
"367 341 CURVE SMOOTH",
"367 0 LINE",
"561 0 LINE",
"561 310 LINE SMOOTH",
"561 358 OFFCURVE",
"568 389 OFFCURVE",
"624 389 CURVE SMOOTH",
"653 389 OFFCURVE",
"684 371 OFFCURVE",
"684 341 CURVE SMOOTH",
"684 0 LINE",
"879 0 LINE",
"879 364 LINE SMOOTH",
"879 467 OFFCURVE",
"790 527 OFFCURVE",
"710 527 CURVE SMOOTH",
"654 527 OFFCURVE",
"589 499 OFFCURVE",
"553 455 CURVE",
"519 509 OFFCURVE",
"460 527 OFFCURVE",
"410 527 CURVE SMOOTH",
"329 527 OFFCURVE",
"276 496 OFFCURVE",
"242 455 CURVE",
"242 517 LINE",
"50 517 LINE",
"50 0 LINE"
);
}
);
width = 925;
},
{
background = {
guideLines = (
{
position = "{278, 454}";
}
);
paths = (
{
closed = 1;
nodes = (
"129 0 LINE SMOOTH",
"135 0 OFFCURVE",
"138 3 OFFCURVE",
"138 9 CURVE SMOOTH",
"138 410 LINE",
"214 471 OFFCURVE",
"259 502 OFFCURVE",
"326 502 CURVE SMOOTH",
"406 502 OFFCURVE",
"439 455 OFFCURVE",
"439 377 CURVE SMOOTH",
"439 9 LINE SMOOTH",
"439 3 OFFCURVE",
"443 0 OFFCURVE",
"448 0 CURVE SMOOTH",
"470 0 LINE SMOOTH",
"475 0 OFFCURVE",
"479 3 OFFCURVE",
"479 10 CURVE SMOOTH",
"479 393 LINE SMOOTH",
"479 407 OFFCURVE",
"484 413 OFFCURVE",
"496 423 CURVE SMOOTH",
"535 455 OFFCURVE",
"594 502 OFFCURVE",
"667 502 CURVE SMOOTH",
"747 502 OFFCURVE",
"780 455 OFFCURVE",
"780 377 CURVE SMOOTH",
"780 9 LINE SMOOTH",
"780 3 OFFCURVE",
"783 0 OFFCURVE",
"789 0 CURVE SMOOTH",
"811 0 LINE SMOOTH",
"817 0 OFFCURVE",
"820 3 OFFCURVE",
"820 10 CURVE SMOOTH",
"820 393 LINE SMOOTH",
"820 480 OFFCURVE",
"768 540 OFFCURVE",
"668 540 CURVE SMOOTH",
"599 540 OFFCURVE",
"556 511 OFFCURVE",
"484 457 CURVE SMOOTH",
"478 452 OFFCURVE",
"471 448 OFFCURVE",
"469 454 CURVE SMOOTH",
"456 494 OFFCURVE",
"411 540 OFFCURVE",
"327 540 CURVE SMOOTH",
"258 540 OFFCURVE",
"215 511 OFFCURVE",
"143 457 CURVE SMOOTH",
"137 452 OFFCURVE",
"135 453 OFFCURVE",
"135 460 CURVE SMOOTH",
"135 522 LINE SMOOTH",
"135 528 OFFCURVE",
"133 530 OFFCURVE",
"127 530 CURVE SMOOTH",
"106 530 LINE SMOOTH",
"100 530 OFFCURVE",
"98 527 OFFCURVE",
"98 521 CURVE SMOOTH",
"98 9 LINE SMOOTH",
"98 3 OFFCURVE",
"101 0 OFFCURVE",
"107 0 CURVE SMOOTH"
);
}
);
};
guideLines = (
{
position = "{315, 421}";
}
);
layerId = "91AB5BCA-6A50-42DA-B2F7-8181BF189245";
paths = (
{
closed = 1;
nodes = (
"134 0 LINE",
"134 360 LINE SMOOTH",
"134 453 OFFCURVE",
"214 489 OFFCURVE",
"279 489 CURVE SMOOTH",
"337 489 OFFCURVE",
"407 452 OFFCURVE",
"407 376 CURVE SMOOTH",
"407 0 LINE",
"446 0 LINE",
"446 360 LINE SMOOTH",
"446 462 OFFCURVE",
"532 489 OFFCURVE",
"591 489 CURVE SMOOTH",
"659 489 OFFCURVE",
"720 460 OFFCURVE",
"720 335 CURVE SMOOTH",
"720 0 LINE",
"759 0 LINE",
"759 335 LINE SMOOTH",
"759 501 OFFCURVE",
"661 527 OFFCURVE",
"591 527 CURVE SMOOTH",
"521 527 OFFCURVE",
"464 495 OFFCURVE",
"433 441 CURVE",
"410 497 OFFCURVE",
"340 527 OFFCURVE",
"280 527 CURVE SMOOTH",
"200 527 OFFCURVE",
"156 486 OFFCURVE",
"131 440 CURVE",
"131 517 LINE",
"95 517 LINE",
"95 0 LINE"
);
}
);
width = 849;
}
);
leftKerningGroup = n;
leftMetricsKey = n;
rightKerningGroup = n;
rightMetricsKey = n;
unicode = 006D;
},
{
glyphname = n;
lastChange = "2019-04-14 20:24:58 +0000";
layers = (
{
anchors = (
{
name = bottom;
position = "{306, 0}";
},
{
name = top;
position = "{306, 517}";
}
);
background = {
anchors = (
{
name = bottom;
position = "{295, 0}";
},
{
name = top;
position = "{295, 530}";
}
);
paths = (
{
closed = 1;
nodes = (
"199 0 LINE SMOOTH",
"223 0 OFFCURVE",
"232 8 OFFCURVE",
"232 29 CURVE SMOOTH",
"232 349 LINE",
"251 383 OFFCURVE",
"275 399 OFFCURVE",
"306 399 CURVE SMOOTH",
"338 399 OFFCURVE",
"359 381 OFFCURVE",
"359 351 CURVE SMOOTH",
"359 25 LINE SMOOTH",
"359 6 OFFCURVE",
"365 0 OFFCURVE",
"382 0 CURVE SMOOTH",
"529 0 LINE SMOOTH",
"550 0 OFFCURVE",
"559 10 OFFCURVE",
"559 30 CURVE SMOOTH",
"559 378 LINE SMOOTH",
"559 477 OFFCURVE",
"495 540 OFFCURVE",
"402 540 CURVE SMOOTH",
"340 540 OFFCURVE",
"285 507 OFFCURVE",
"243 461 CURVE SMOOTH",
"235 453 OFFCURVE",
"230 457 OFFCURVE",
"230 465 CURVE SMOOTH",
"230 510 LINE SMOOTH",
"230 522 OFFCURVE",
"224 530 OFFCURVE",
"212 530 CURVE SMOOTH",
"51 530 LINE SMOOTH",
"39 530 OFFCURVE",
"32 521 OFFCURVE",
"32 507 CURVE SMOOTH",
"32 25 LINE SMOOTH",
"32 7 OFFCURVE",
"39 0 OFFCURVE",
"58 0 CURVE SMOOTH"
);
}
);
};
layerId = "258ED206-D907-4350-8EBA-CBDDA1C16BF7";
paths = (
{
closed = 1;
nodes = (
"245 0 LINE",
"245 323 LINE",
"245 352 OFFCURVE",
"279 370 OFFCURVE",
"308 370 CURVE SMOOTH",
"337 370 OFFCURVE",
"368 352 OFFCURVE",
"368 323 CURVE SMOOTH",
"368 0 LINE",
"563 0 LINE",
"563 349 LINE SMOOTH",
"563 446 OFFCURVE",
"473 519 OFFCURVE",
"382 519 CURVE SMOOTH",
"301 519 OFFCURVE",
"275 488 OFFCURVE",
"243 455 CURVE",
"243 517 LINE",
"50 517 LINE",
"50 0 LINE"
);
}
);
width = 609;
},
{
anchors = (
{
name = bottom;
position = "{292, 0}";
},
{
name = top;
position = "{301, 517}";
}
);
background = {
anchors = (
{
name = bottom;
position = "{300, 0}";
},
{
name = top;
position = "{310, 530}";
}
);
paths = (
{
closed = 1;
nodes = (
"129 0 LINE SMOOTH",
"135 0 OFFCURVE",
"138 3 OFFCURVE",
"138 9 CURVE SMOOTH",
"138 410 LINE",
"218 471 OFFCURVE",
"265 502 OFFCURVE",
"336 502 CURVE SMOOTH",
"423 502 OFFCURVE",
"459 455 OFFCURVE",
"459 377 CURVE SMOOTH",
"459 9 LINE SMOOTH",
"459 3 OFFCURVE",
"462 0 OFFCURVE",
"468 0 CURVE SMOOTH",
"490 0 LINE SMOOTH",
"496 0 OFFCURVE",
"499 3 OFFCURVE",
"499 10 CURVE SMOOTH",
"499 393 LINE SMOOTH",
"499 480 OFFCURVE",
"444 540 OFFCURVE",
"337 540 CURVE SMOOTH",
"264 540 OFFCURVE",
"219 511 OFFCURVE",
"143 457 CURVE SMOOTH",
"137 452 OFFCURVE",
"135 453 OFFCURVE",
"135 460 CURVE SMOOTH",
"135 522 LINE SMOOTH",
"135 528 OFFCURVE",
"133 530 OFFCURVE",
"127 530 CURVE SMOOTH",
"106 530 LINE SMOOTH",
"100 530 OFFCURVE",
"98 527 OFFCURVE",
"98 521 CURVE SMOOTH",
"98 9 LINE SMOOTH",
"98 3 OFFCURVE",
"101 0 OFFCURVE",
"107 0 CURVE SMOOTH"
);
}
);
};
layerId = "91AB5BCA-6A50-42DA-B2F7-8181BF189245";
paths = (
{
closed = 1;
nodes = (
"134 0 LINE",
"134 360 LINE SMOOTH",
"134 448 OFFCURVE",
"213 489 OFFCURVE",
"305 489 CURVE SMOOTH",
"393 489 OFFCURVE",
"447 435 OFFCURVE",
"447 335 CURVE SMOOTH",
"447 0 LINE",
"486 0 LINE",
"486 335 LINE SMOOTH",
"486 467 OFFCURVE",
"408 527 OFFCURVE",
"305 527 CURVE SMOOTH",
"221 527 OFFCURVE",
"158 489 OFFCURVE",
"131 440 CURVE",
"131 517 LINE",
"95 517 LINE",
"95 0 LINE"
);
}
);
width = 576;
}
);
leftKerningGroup = n;
rightKerningGroup = n;
unicode = 006E;
},
